<svg width="210" height="147" viewBox="0 0 210 147" fill="none" xmlns="http://www.w3.org/2000/svg">
<rect width="210" height="147" fill="white"/>
<path d="M72 46.6964H40.5C28.1 46.6964 18 56.7964 18 69.1964C18 81.5964 28.1 91.6964 40.5 91.6964H72.4" stroke="#231815" stroke-width="1.8338" stroke-miterlimit="10"/>
<path d="M137.8 46.6964H169.5C181.9 46.6964 192 56.7964 192 69.1964C192 81.5964 181.9 91.6964 169.5 91.6964H137.6" stroke="#231815" stroke-width="1.8338" stroke-miterlimit="10"/>
<path d="M150.6 43.3964L106 53.8964L61.3999 43.3964L54.8999 61.8964L69.0999 105.596L79.2999 113.996H132.7L142.8 105.596L156.1 64.7964L150.6 43.3964Z" fill="black"/>
<path d="M161.3 41.3964C157.1 41.3964 152.5 42.0964 148 43.5964C137.3 47.1964 129.4 54.2964 126.7 61.8964C121.1 59.0964 117.4 54.5964 117.4 49.3964C117.3 40.5964 127.7 33.3964 140.6 33.1964C149.4 33.0964 157.3 36.3964 161.3 41.3964Z" fill="black"/>
<path d="M136.2 29.7964C132.9 32.3964 129.8 35.7964 127.2 39.8964C121.2 49.3964 119.5 59.8964 122 67.4964C115.9 68.7964 110.2 67.5964 106.9 63.6964C101.3 56.8964 101 43.2964 110.9 35.0964C117.9 29.2964 129.9 28.3964 136.2 29.7964Z" fill="black"/>
<path d="M112.3 35.7964C111.3 39.8964 110.9 44.4964 111.3 49.1964C112.3 60.3964 117.4 69.7964 124 74.1964C119.9 78.9964 114.7 81.4964 109.7 80.2964C101.2 78.2964 96.5999 66.5964 99.3999 53.8964C101.5 45.2964 106.6 38.4964 112.3 35.7964Z" fill="black"/>
<path d="M163.8 89.0964C162.3 83.8964 159.8 78.5965 156.2 73.4965C147.7 61.4965 135.6 53.8964 124.7 52.6964C126.5 44.9964 131.1 39.2964 137.8 37.6964C149.3 34.9964 162.4 45.5964 167.2 61.3964C170.5 72.2964 168.9 82.7964 163.8 89.0964Z" fill="black"/>
<path d="M148.6 100.796C149.4 95.4965 149.3 89.5965 148.2 83.4965C145.5 69.0965 137.5 57.0965 128.2 51.4965C133 45.1965 139.6 41.8965 146.3 43.2965C157.9 45.5965 165.4 60.6965 163.2 76.9965C161.6 88.1965 155.8 97.0965 148.6 100.796Z" fill="black"/>
<path d="M171.6 65.6964C171.6 65.8964 171.4 65.9964 171.3 65.8964C167.2 62.8964 162.3 60.3964 156.7 58.5964C143.4 54.3964 130.1 55.7964 121.6 61.2964C118.2 54.3965 117.9 47.1965 121.8 41.9965C128.3 33.0965 144.2 33.4964 157.2 42.6964C166 49.0964 171.2 57.8964 171.6 65.6964Z" fill="black"/>
<path d="M50.7 41.3964C54.9 41.3964 59.5 42.0964 64 43.5964C74.7 47.1964 82.6 54.2964 85.3 61.8964C90.9 59.0964 94.5999 54.5964 94.5999 49.3964C94.6999 40.5964 84.2999 33.3964 71.3999 33.1964C62.4999 33.0964 54.7 36.3964 50.7 41.3964Z" fill="black"/>
<path d="M75.7998 29.7964C79.0998 32.3964 82.1998 35.7964 84.7998 39.8964C90.7998 49.3964 92.4998 59.8964 89.9998 67.4964C96.0998 68.7964 101.8 67.5964 105.1 63.6964C110.7 56.8964 110.6 42.3964 100.7 34.0964C93.6998 28.2964 81.9998 28.3964 75.7998 29.7964Z" fill="black"/>
<path d="M99.5999 35.7964C100.6 39.8964 101 44.4964 100.6 49.1964C99.5999 60.3964 94.4999 69.7964 87.8999 74.1964C91.9999 78.9964 97.1999 81.4964 102.2 80.2964C110.7 78.2964 115.3 66.5964 112.5 53.8964C110.4 45.2964 105.4 38.4964 99.5999 35.7964Z" fill="black"/>
<path d="M48.0999 89.0964C49.5999 83.8964 52.0999 78.5965 55.6999 73.4965C64.1999 61.4965 76.2999 53.8964 87.1999 52.6964C85.3999 44.9964 80.7999 39.2964 74.0999 37.6964C62.5999 34.9964 49.4999 45.5964 44.6999 61.3964C41.3999 72.2964 42.9999 82.7964 48.0999 89.0964Z" fill="black"/>
<path d="M63.3998 100.796C62.5998 95.4965 62.6998 89.5965 63.7998 83.4965C66.4998 69.0965 74.4998 57.0965 83.7998 51.4965C78.9998 45.1965 72.3998 41.8965 65.6998 43.2965C54.0998 45.5965 46.5998 60.6965 48.7998 76.9965C50.2998 88.1965 56.0998 97.0965 63.3998 100.796Z" fill="black"/>
<path d="M40.3999 65.6964C40.3999 65.8964 40.5999 65.9964 40.6999 65.8964C44.7999 62.8964 49.6999 60.3964 55.2999 58.5964C68.5999 54.3964 81.8999 55.7964 90.3999 61.2964C93.7999 54.3965 94.0999 47.1965 90.1999 41.9965C83.6999 33.0965 67.7999 33.4964 54.7999 42.6964C45.9999 49.0964 40.7999 57.8964 40.3999 65.6964Z" fill="black"/>
<path d="M71.5 70.8964L84 104.196H129.4L140.1 70.8964L133.8 65.4965L105.8 68.1964L78.6 63.6964L71.5 70.8964Z" fill="#D30012"/>
<path d="M106.3 59.6964L122.2 47.4965H90.5L106.3 59.6964Z" fill="white"/>
<path d="M106 67.7964L70.8998 59.2964C69.8998 58.9964 68.7998 59.6964 68.9998 60.5964L73.0998 83.0964L78.4998 66.4964L80.5998 78.3964L87.7998 68.0964V71.0964L105.9 74.2964L124 71.0964V68.0964L131.2 78.3964L133.3 66.4964L138.7 83.0964L142.8 60.5964C143 59.6964 141.9 58.9964 140.9 59.2964L106 67.7964Z" fill="white"/>
<path d="M138 60.0964L143.3 58.7964L142.6 62.7964L138 60.0964Z" fill="white"/>
<path d="M74 60.0964L68.7 58.7964L69.3999 62.7964L74 60.0964Z" fill="white"/>
<path d="M102.5 98.9965H124.7L125.9 100.296L133.1 92.7964L129.4 104.196H103.1L102.5 98.9965Z" fill="white"/>
<path d="M110.9 98.9965H88.6998L87.4998 100.296L79.7998 92.7964L83.9998 104.196H110.4L110.9 98.9965Z" fill="white"/>
</svg>
