<svg width="210" height="148" viewBox="0 0 210 148" fill="none" xmlns="http://www.w3.org/2000/svg">
<rect width="210" height="148" fill="white"/>
<path d="M72 47.1H40.5C28.1 47.1 18 57.2 18 69.6C18 82 28.1 92.1 40.5 92.1H72.4" stroke="#231815" stroke-width="1.8338" stroke-miterlimit="10"/>
<path d="M137.8 47.1H169.5C181.9 47.1 192 57.2 192 69.6C192 82 181.9 92.1 169.5 92.1H137.6" stroke="#231815" stroke-width="1.8338" stroke-miterlimit="10"/>
<path d="M52.2 103.6C45.3 105 39.2 98.8 40.7 91.9C47.2 62.4 63.9 35.2 105 35.2C146.1 35.2 162.8 62.4 169.3 91.9C170.8 98.8 164.7 105 157.8 103.6L133.2 98.7C114.6 95 95.4 95 76.7 98.7L52.2 103.6Z" fill="black"/>
<path d="M122.3 73.1C115.8 73.1 109.8 75 104.9 78.1C100.2 75.2 92.7999 73.1 86.9999 73.1C70.3999 73.1 56.8999 85.3 56.8999 100.4C56.8999 115.5 70.3999 127.7 86.9999 127.7C93.0999 127.7 98.7999 126.1 103.5 123.2C100.3 120.4 97.7999 117.1 95.8999 113.5C101 121.9 110.9 127.7 122.3 127.7C138.9 127.7 152.4 115.5 152.4 100.4C152.4 85.3 138.9 73.1 122.3 73.1Z" fill="#008F87"/>
<path d="M124.3 31.3H111.8V50.2H124.3V31.3Z" fill="white"/>
<path d="M102.5 27H90V45.9H102.5V27Z" fill="white"/>
<path d="M65.8162 37.2902L54.9912 43.5402L64.4412 59.9076L75.2662 53.6576L65.8162 37.2902Z" fill="white"/>
<path d="M163.439 50.3448L153.928 42.2335L141.664 56.6145L151.175 64.7258L163.439 50.3448Z" fill="white"/>
<path d="M105.9 77C103.4 78.6 100.1 81.2 98.3 83.5" stroke="#231815" stroke-width="0.6729" stroke-miterlimit="10"/>
</svg>
