<svg width="210" height="148" viewBox="0 0 210 148" fill="none" xmlns="http://www.w3.org/2000/svg">
<rect width="210" height="148" fill="white"/>
<path d="M72 47.1H40.5C28.1 47.1 18 57.2 18 69.6C18 82 28.1 92.1 40.5 92.1H72.4" stroke="#231815" stroke-width="1.8338" stroke-miterlimit="10"/>
<path d="M137.8 47.1H169.5C181.9 47.1 192 57.2 192 69.6C192 82 181.9 92.1 169.5 92.1H137.6" stroke="#231815" stroke-width="1.8338" stroke-miterlimit="10"/>
<path d="M143.2 42.1C129.3 41.9 118 53.1 118 67C118 67.6 118 68.2 118.1 68.8C114.3 66.5 109.9 65.1 105.1 65.1C100.3 65.1 95.9 66.4 92.1 68.8C92.1 68.2 92.2 67.6 92.2 67C92.2 53.2 80.9 41.9 67 42.1C53.6 42.3 42.7 53.2 42.5 66.6C42.3 80.5 53.5 91.8 67.4 91.8C67.5 91.8 67.6 91.8 67.8 91.8L67.7 91.9C67.7 91.9 76.7 91.8 82.6 100.3C82.8 100.6 83 100.9 83.2 101.3C87.3 109.3 95.7 113.5 105.3 113.5C115 113.5 123.3 109.3 127.4 101.3C127.6 101 127.8 100.6 128 100.3C133.9 91.8 142.9 91.9 142.9 91.9L142.8 91.8C142.9 91.8 143 91.8 143.2 91.8C157 91.8 168.3 80.5 168.1 66.6C167.5 53.2 156.6 42.3 143.2 42.1Z" fill="white"/>
<path d="M105 77.2C118.034 77.2 128.6 66.6339 128.6 53.6C128.6 40.5661 118.034 30 105 30C91.966 30 81.3999 40.5661 81.3999 53.6C81.3999 66.6339 91.966 77.2 105 77.2Z" fill="#DD0040"/>
<path d="M156 63C153.4 62.7 150.8 62.8 148.2 63.2C146.9 63.4 145.6 63.7 144.3 64.1C143 64.5 141.7 65 140.5 65.6C139.8 66 139.1 66.4 138.5 66.8C138 67.2 137.5 67.5 137 67.9C136.9 68 136.9 68 136.8 68C135.7 68.8 134.8 69.7 133.8 70.6L131 73.2C130.1 74 129.2 74.9 128.3 75.7C127.9 76.1 127.4 76.5 126.9 76.9C126.5 77.3 126 77.7 125.6 78.1C124.7 78.9 123.8 79.6 122.9 80.3C122 81 121.1 81.6 120.2 82.2C119.7 82.5 119.3 82.8 118.8 83C118.3 83.3 117.9 83.5 117.4 83.7C116.5 84.2 115.5 84.5 114.6 84.8C114.4 84.9 114.2 84.9 114.1 85C113.9 85 113.8 85.1 113.6 85.1C113.4 85.1 113.3 85.2 113.1 85.2C112.9 85.2 112.7 85.3 112.6 85.3C110.2 85.7 107.7 86 105.1 86C102.9 86 100.7 85.8 98.5999 85.5C98.7999 85.5 98.8999 85.5 99.0999 85.5C98.8999 85.5 98.7999 85.5 98.5999 85.5C97.6999 85.4 96.8998 85.2 95.9998 85C95.8998 85 95.7999 84.9 95.6999 84.9C95.1999 84.8 94.6999 84.6 94.1999 84.4C93.9999 84.3 93.7998 84.2 93.4998 84.1H93.3999C93.1999 84 92.8999 83.9 92.6999 83.8C91.7999 83.4 90.7999 82.8 89.8999 82.2C89.3999 81.9 88.9998 81.6 88.4998 81.3C87.9998 81 87.5999 80.7 87.0999 80.3C86.1999 79.6 85.2999 78.9 84.3999 78.1C83.4999 77.3 82.5999 76.6 81.6999 75.7L76.1999 70.6C75.1999 69.7 74.2999 68.9 73.1999 68C73.0999 68 73.0998 67.9 72.9998 67.9C72.4998 67.5 71.9998 67.1 71.4998 66.8C70.8998 66.4 70.2999 66 69.5999 65.6C68.9999 65.3 68.2999 65 67.6999 64.8C67.0999 64.6 66.3999 64.3 65.7999 64.1C64.4999 63.7 63.1999 63.4 61.8999 63.2C59.2999 62.8 56.6999 62.7 54.0999 63V63.5C55.2999 63.6 56.5999 63.8 57.7999 64.1C58.9999 64.4 60.1999 64.7 61.3999 65C63.7999 65.7 65.9999 66.7 68.0999 68C69.0999 68.6 69.9999 69.5 70.8999 70.3C71.7999 71.2 72.5998 72.1 73.4998 73C75.1998 74.8 76.8999 76.7 78.5999 78.5C78.9999 78.9 79.2999 79.2 79.6999 79.6C85.8999 86.9 94.9999 91.6 105.1 91.6C115.2 91.6 124.3 87 130.5 79.7C130.9 79.3 131.2 78.9 131.6 78.6C133.3 76.8 135 74.9 136.7 73.1C137.5 72.2 138.4 71.3 139.3 70.4C140.2 69.5 141.1 68.7 142.1 68.1C144.2 66.8 146.5 65.8 148.8 65.1C150 64.7 151.2 64.4 152.4 64.2C153.6 64 154.8 63.7 156.1 63.6L156 63Z" fill="#DD0040"/>
<path d="M111.8 85.3C112 85.3 112.2 85.2 112.5 85.2C112.3 85.2 112.1 85.2 111.8 85.3Z" fill="#DD0040"/>
</svg>
