<svg width="210" height="147" viewBox="0 0 210 147" fill="none" xmlns="http://www.w3.org/2000/svg">
<rect width="210" height="147" fill="white"/>
<path d="M72 46.5H40.5C28.1 46.5 18 56.6 18 69C18 81.4 28.1 91.5 40.5 91.5H72.4" stroke="#231815" stroke-width="1.8338" stroke-miterlimit="10"/>
<path d="M137.8 46.5H169.5C181.9 46.5 192 56.6 192 69C192 81.4 181.9 91.5 169.5 91.5H137.6" stroke="#231815" stroke-width="1.8338" stroke-miterlimit="10"/>
<path d="M174.3 33.8L154.5 28.1C152.6 27.6 150.6 28.7 150.2 30.7C148.2 39.3 139.9 45.8 129.9 45.8C118.9 45.8 110 38 109.2 28.1C109.2 27.5 108.6 27 108 27H103.1C102.5 27 101.9 27.5 101.9 28.1C101.2 38 92.2 45.8 81.2 45.8C71.2 45.8 62.9 39.4 60.9 30.8C60.5 28.8 58.5 27.6 56.5 28.2L37.1 33.9C34 35 32.8 38.7 34.8 41.3L54.4 68.3L54.6 101.7H156.9L157 69.1L176.6 41.2C178.5 38.5 177.3 34.9 174.3 33.8Z" fill="black"/>
<path d="M104.8 54.2L93.3 69H104.8V54.2Z" fill="white"/>
<path d="M106.6 54.2L118 69H106.6V54.2Z" fill="white"/>
<path d="M65.8999 90.6V101.7" stroke="white" stroke-width="0.7101" stroke-miterlimit="10"/>
<path d="M77.3 90.6V101.7" stroke="white" stroke-width="0.7101" stroke-miterlimit="10"/>
<path d="M88.7 90.6V101.7" stroke="white" stroke-width="0.7101" stroke-miterlimit="10"/>
<path d="M100.1 90.6V101.7" stroke="white" stroke-width="0.7101" stroke-miterlimit="10"/>
<path d="M111.4 90.6V101.7" stroke="white" stroke-width="0.7101" stroke-miterlimit="10"/>
<path d="M122.8 90.6V101.7" stroke="white" stroke-width="0.7101" stroke-miterlimit="10"/>
<path d="M134.2 90.6V101.7" stroke="white" stroke-width="0.7101" stroke-miterlimit="10"/>
<path d="M145.6 90.6V101.7" stroke="white" stroke-width="0.7101" stroke-miterlimit="10"/>
</svg>
