<svg width="58" height="58" viewBox="0 0 58 58" fill="none" xmlns="http://www.w3.org/2000/svg">
<path d="M29.1 5.3999C36.7 5.3999 37.6 5.4001 40.6 5.6001C43.4 5.7001 44.9 6.2001 45.9 6.6001C47.2 7.1001 48.2 7.7002 49.2 8.7002C50.2 9.7002 50.8 10.6 51.3 12C51.7 13 52.2 14.4998 52.3 17.2998C52.4 20.2998 52.5 21.1998 52.5 28.7998C52.5 36.3998 52.5 37.2998 52.3 40.2998C52.2 43.0998 51.7 44.6001 51.3 45.6001C50.8 46.9001 50.2 47.8999 49.2 48.8999C48.2 49.8999 47.3 50.5 45.9 51C44.9 51.4 43.4 51.9 40.6 52C37.6 52.1 36.7 52.2002 29.1 52.2002C21.5 52.2002 20.6 52.2 17.6 52C14.8 51.9 13.3 51.4 12.3 51C11 50.5 10 49.8999 9 48.8999C8 47.8999 7.39999 47.0001 6.89999 45.6001C6.49999 44.6001 5.99999 43.0998 5.89999 40.2998C5.79999 37.2998 5.70001 36.3998 5.70001 28.7998C5.70001 21.1998 5.69999 20.2998 5.89999 17.2998C5.99999 14.4998 6.49999 13 6.89999 12C7.39999 10.7 8 9.7002 9 8.7002C10 7.7002 10.9 7.1001 12.3 6.6001C13.3 6.2001 14.8 5.7001 17.6 5.6001C20.6 5.4001 21.5 5.3999 29.1 5.3999ZM29.1 0.299805C21.4 0.299805 20.4 0.3 17.3 0.5C14.3 0.6 12.2 1.0998 10.4 1.7998C8.49999 2.4998 6.89999 3.5001 5.29999 5.1001C3.69999 6.7001 2.7 8.3002 2 10.2002C1.3 12.0002 0.800012 14.1001 0.700012 17.1001C0.600012 20.1001 0.5 21.0999 0.5 28.8999C0.5 36.5999 0.500012 37.6002 0.700012 40.7002C0.800012 43.7002 1.3 45.8001 2 47.6001C2.7 49.5001 3.69999 51.1002 5.29999 52.7002C6.89999 54.3002 8.49999 55.3 10.4 56C12.2 56.7 14.3 57.1998 17.3 57.2998C20.3 57.3998 21.3 57.5 29.1 57.5C36.9 57.5 37.8 57.4998 40.9 57.2998C43.9 57.1998 46 56.7 47.8 56C49.7 55.3 51.3 54.3002 52.9 52.7002C54.5 51.1002 55.5 49.5001 56.2 47.6001C56.9 45.8001 57.4 43.7002 57.5 40.7002C57.6 37.7002 57.7 36.6999 57.7 28.8999C57.7 21.1999 57.7 20.2001 57.5 17.1001C57.4 14.1001 56.9 12.0002 56.2 10.2002C55.5 8.3002 54.5 6.7001 52.9 5.1001C51.3 3.5001 49.7 2.4998 47.8 1.7998C46 1.0998 43.9 0.6 40.9 0.5C37.8 0.3 36.8 0.299805 29.1 0.299805Z" fill="white"/>
<path d="M29.1 14.1001C21 14.1001 14.5 20.7002 14.5 28.7002C14.5 36.8002 21.1 43.2998 29.1 43.2998C37.2 43.2998 43.7 36.7002 43.7 28.7002C43.7 20.7002 37.2 14.1001 29.1 14.1001ZM29.1 38.2998C23.9 38.2998 19.6 33.9998 19.6 28.7998C19.6 23.5998 23.9 19.2998 29.1 19.2998C34.3 19.2998 38.6 23.5998 38.6 28.7998C38.6 33.9998 34.3 38.2998 29.1 38.2998Z" fill="white"/>
<path d="M44.3 16.8999C46.1778 16.8999 47.7 15.3778 47.7 13.5C47.7 11.6222 46.1778 10.1001 44.3 10.1001C42.4223 10.1001 40.9 11.6222 40.9 13.5C40.9 15.3778 42.4223 16.8999 44.3 16.8999Z" fill="white"/>
</svg>
