<svg width="401" height="656" viewBox="0 0 401 656" fill="none" xmlns="http://www.w3.org/2000/svg">
<path d="M88.6 444.5C83.4 443.5 76.6 439.2 75.7 438.6C71.1 435.6 68.3 432.5 65.2 429C62.9 432.3 60.9 434.8 56.7 438.6C50.4 444.3 46.3 446.2 44.4 447L40.1 442.9C45.7 441.1 50.4 437.6 54.6 433.6C58.8 429.5 61 426 63.5 421.8L69 423.3C69.2 423.3 69.8 423.6 69.8 424.2C69.8 424.9 69.3 425.2 68.9 425.3C73 430.3 76.8 433.5 81 435.5C84.6 437.2 88.2 438.9 92.1 439.4L88.6 444.5ZM79.8 457.5L75.4 466C74.3 468.3 73.2 470.5 72.2 472.8L66.2 470.8C70.1 464.7 71.9 461.7 74.9 455.5L62.3 456.2C58.6 456.4 52.1 457.1 48.6 457.6L48.3 451.8C49.9 451.8 57.6 451.7 59.1 451.6L71.5 450.9C73.9 450.8 78.8 450.4 80.9 450L82.7 452.1C82.2 452.9 80.2 456.7 79.8 457.5ZM70.6 445.9L62.3 446.4C60.5 446.5 56.2 447.1 55.1 447.2L54.8 441.6C58.3 441.9 61.6 441.8 62.1 441.7L70.3 441.2C72.4 441.1 75.1 440.8 77.1 440.3L77.4 446C75.1 445.7 72.8 445.8 70.6 445.9Z" fill="black"/>
<path d="M134.4 455.7L131.9 455.8C132.6 463.4 132.8 465.4 133.2 468.5L126.7 468.9C126.9 466.1 126.8 465.4 126.6 456.2L116.4 456.8C111.3 457.1 106.3 457.5 101.3 458.2L101 452.8C104 452.8 104.8 452.8 112 452.6L111.7 446.6C111.5 443.4 111.2 441.1 111 439.3C116.1 439.2 117.6 439.1 122.7 438.9L125.8 438.7L125.4 431.3L113.1 432C109.5 436.4 107.4 437.8 105.7 438.8L101.1 435.3C105.7 432.5 111.4 428.4 114.4 419L119.6 421.3C119.9 421.4 120.5 421.8 120.5 422.2C120.5 423 119.2 423 118.5 423C117.5 424.9 117.1 425.5 116.2 427.2L128.3 426.5C134 426.2 139.8 425.8 145.5 425.1L145.8 430.2C141.5 430.4 134.8 430.8 130.6 431L131 438.4C139.6 437.8 140.6 437.7 143.7 437.2L144 442.3C139.2 442.4 138.5 442.4 131.3 442.7L131.8 451.5L134.4 451.4C139.9 451.1 145.5 450.7 151 450L151.3 455.4C143.9 455.2 135.1 455.7 134.4 455.7ZM125.9 443L116.4 443.5L116.9 452.3L126.4 451.8L125.9 443Z" fill="black"/>
<path d="M169.7 423.7C166.3 433.7 166.5 444 166.6 446.5C166.8 450.2 167.4 452.4 167.8 454.2C168.2 453.2 168.6 452.2 169.1 450.4C169.6 448.1 169.7 447.8 169.9 447.1L172.8 449.4C172.4 450.6 170.3 458.1 169.8 462.5L165.6 463.5C163.2 456.7 162.4 450.5 162.2 445.7C161.9 441 162.1 437.7 163.2 429.2C163.7 425.3 164 422.9 164.5 420.4L170.6 421.3C171 421.3 171.4 421.5 171.4 422C171.4 422.6 171.2 422.7 169.7 423.7ZM203.3 457.5C201.6 455.9 198.7 454 195.6 453.2C196.6 459.5 191.7 461.4 187.4 461.7C181.2 462.1 176.8 459.3 176.5 455.2C176.3 452 178.9 449.7 180.6 449C183.9 447.6 187.9 447.4 188.4 447.3C189.2 447.3 189.6 447.3 190.1 447.3C189.5 443 189.4 441.7 188.8 432.7C185.6 433.2 184.1 433.5 181.4 433.6C179.4 433.7 178.2 433.7 177.1 433.6L176.8 428.8C178.1 429 180.6 429.3 183.3 429.1C184.7 429 186.2 428.8 188.5 428.4C188.4 427.5 188.3 422.1 188.3 420.7C188.2 419.8 188.2 419.4 188.1 418.5L194.8 418.8C195 418.8 195.6 418.8 195.7 419.5C195.7 420 195.6 420.1 194.3 421C194 422.8 193.7 424.1 193.7 427.2C195.3 426.8 197.9 426.1 200.4 424.8L200.7 429.3C197 430.8 194.1 431.4 193.7 431.5C193.7 432 193.9 435.7 193.9 436C194.1 439.8 194.5 444 195.1 447.8C198 448.5 201.7 449.7 205.1 452.1L203.3 457.5ZM187 451.8C183.6 452 181.5 453.2 181.6 454.7C181.7 456.3 183.7 457.3 186.2 457.1C188.2 457 189.7 456.1 190.2 454.8C190.5 454 190.4 453.1 190.3 451.9C189.4 451.9 188.3 451.7 187 451.8Z" fill="black"/>
<path d="M224.8 462.4C221.3 457.8 217.7 454.5 212.8 451.8L216.4 447.9C223.3 452 226.8 455.7 228.8 457.7L224.8 462.4Z" fill="black"/>
<path d="M94.8 565.1C89.9 564.5 80.7 562.2 75.1 558L75.2 559.2C75.3 561.3 75.9 565.5 76.1 566.5L70.1 566.8C70.5 565.2 70.3 560.1 70.3 559.3L70.2 557.9C62.2 564.6 53.5 567.3 51.4 567.9L47.9 563.7C52.1 563.1 59.2 561.2 65.8 555.8L64.4 555.9C62.3 556 54.3 556.6 48.4 557.3L48.1 552.2C53.5 552.3 58.8 552.1 64.2 551.8L69.9 551.5L69.7 548.2C64.1 548.5 63.4 548.6 56.4 549.4C56.5 546.7 56.5 544.7 56.4 543.1L55.8 531.8C53.9 533.9 51.9 536 49.7 537.3L44.9 534.2C52.8 530.5 57.9 521.4 59.3 517L64.7 518.6C65 518.7 65.4 518.8 65.5 519.3C65.5 520.1 65 520.3 63.4 520.6C62.9 521.7 62.4 522.9 61.3 524.5L69.7 524C70.9 520.9 71.6 518.6 71.9 516.7L77.8 517.8C78.2 517.9 78.5 518.3 78.5 518.5C78.5 518.9 78.3 519.1 77 519.7C76.3 521.1 75.7 522.5 75.1 523.7L78.8 523.5C80.8 523.4 86.8 522.9 91 522.4L91.3 527.2C87.5 527.1 83 527.3 79 527.6L75.2 527.8L75.4 530.6L77.8 530.5C80.2 530.4 84.9 529.9 87.7 529.6L87.9 534C84.5 534 79.7 534.1 78 534.2L75.6 534.3L75.8 537.1L78.1 537C81.2 536.8 85 536.6 88 536.1L88.2 540.5C82.9 540.5 79.1 540.7 78.3 540.7L76 540.8L76.2 543.7L81.7 543.4C83.6 543.3 89.2 542.9 93.2 542.3L93.5 547.2C89.9 547.1 85.7 547.3 82 547.5L74.6 547.9L74.8 551.2L80.1 550.9C82.7 550.8 90.8 550.2 96.3 549.5L96.6 554.6C91.5 554.6 85.5 554.7 80.4 555L78.6 555.1C80.4 556.2 83.4 557.6 85.4 558.3C87.6 559.1 94.1 560.4 97.6 560.5L94.8 565.1ZM70.4 528.1L59.9 528.7L60.1 531.5L70.6 530.9L70.4 528.1ZM70.7 534.6L60.2 535.2L60.4 538L70.9 537.4L70.7 534.6ZM71.1 541.1L60.6 541.7L60.8 544.6L71.3 544L71.1 541.1Z" fill="#CF6500"/>
<path d="M142.4 559C139.5 557 134.4 553.6 129 552.6C129.2 553.6 129.2 553.9 129.2 554.2C129.6 560.9 123.3 561.8 120.8 562C113.8 562.4 108.6 559 108.3 555C108 550.3 114.8 547.4 119.4 547.2C121 547.1 123.3 547.2 124 547.3C123.9 546.5 123.8 546.2 123.8 545.7C123.7 544.8 123.4 541.1 123.3 540.2C120.6 540.4 115.3 540.8 112.6 540.6C111.7 540.5 108.4 540.3 108.3 537.7C108.2 535.8 110.1 533.9 114.2 530.9L117.1 533.3C115.6 534.3 114.3 535.1 114.3 535.8C114.3 536.5 114.9 536.6 115.2 536.7C115.7 536.8 117.7 536.8 119.2 536.7C120.2 536.6 120.5 536.6 123 536.4C122.8 534.1 122.7 533.5 122.2 528C113.5 528.7 110.2 529.1 105.9 529.9L105.6 524.9L121.8 524C121.6 520.8 121.4 518 121.1 516.4L127.5 516.5C127.8 516.5 128.5 516.6 128.5 517.2C128.5 517.9 128 518.2 126.9 518.8C126.9 520.6 126.9 521.8 126.9 523.7L142.3 522.8L142.6 527.7C138.6 527.3 138.4 527.3 127 527.7C127.1 530.7 127.2 532.8 127.4 535.9C129 535.7 135 534.8 140.8 532.6L141.1 537.3C137.7 538.5 131 539.6 127.7 539.9C127.8 541.2 128.4 546.8 128.5 547.9C134.1 548.3 141.8 551.8 144.2 553.6L142.4 559ZM119.3 551.4C117.5 551.5 113.6 552.6 113.7 555.1C113.8 557 116.8 557.9 119.2 557.8C120.3 557.7 123.8 557.2 124.2 554.7C124.4 553.6 124.4 552.8 124.3 551.8C123.7 551.7 121.1 551.3 119.3 551.4Z" fill="#CF6500"/>
<path d="M190.4 554.1C186 557.3 181.6 558.2 170.8 559.3L167.9 553.8C173.5 553.4 177.9 553.2 181.8 552.5C186.5 551.6 190.9 547.7 190.6 543.1C190.5 541.6 189.5 536 182.5 536.4C176.3 536.8 171.4 541.2 167.8 545.9L162.6 544.1C162.6 543 163 538.4 163.1 537.4C163.5 533 164.1 527.3 164.8 523.2L170.7 524.2C171.2 524.3 171.8 524.5 171.8 525.1C171.8 525.6 171.4 525.9 171.1 526C170.4 526.4 170.1 526.5 169.7 526.8C168.5 531.6 168.1 536 167.8 538.5C172.3 534.7 177 532.2 182.6 531.8C187.8 531.5 195.4 534.1 195.8 542.7C196.2 546.7 195 550.8 190.4 554.1ZM183.4 522.2C176.7 519 170.6 518.6 167.7 518.5L169.2 513.5C174.6 513.7 181 515.2 185.4 516.9L183.4 522.2Z" fill="#CF6500"/>
<path d="M233.8 521.3C229 522.9 226.9 523.2 224.8 523.5C223.7 527.2 219.9 539 215.3 547.3L210.1 544.9C212.3 541.6 215.2 536.8 219.3 524.3C217.3 524.6 217.1 524.6 211.9 524.9L211.2 519.9C212.7 520.1 214.2 520.3 217 520.1C218.5 520 219.6 519.8 220.7 519.7C221.9 515.6 222.4 511.6 222.6 509.2L228.4 510.2C229.6 510.4 229.7 510.5 229.8 510.9C229.8 511.4 229.7 511.5 228.2 512.2C227 516.3 226.8 517 226.3 518.7C228.8 518.2 230.4 517.8 234.1 516.5L233.8 521.3ZM249.7 528.2C248.6 528 247.4 527.8 245.5 527.9C239.2 528.3 237.9 531 238.1 534.1C238.2 535.9 238.4 536.4 239.9 541.4C239.9 541.5 240 542 240 542.1C245.2 543.5 247 544.2 251.7 546.9L248.9 551.6C244.4 548.6 243.1 548 240.9 547.3C241 549.4 241.1 551.6 239.8 553.2C238.5 555 235.7 556.3 232.2 556.5C226.3 556.8 221.1 553.7 220.8 549C220.6 545.4 223.3 541.7 230.7 541.2C232.2 541.1 233.3 541.2 234.7 541.3C233.5 537.4 232.9 535.5 232.8 533.7C232.8 533.2 232.7 530.5 234.3 528.5C236.2 526.2 239.1 525.7 243.2 525.2C240.7 524 239.4 523.5 235.7 523L238 518.9C240.7 519.3 245.2 520.1 251.7 524.1L249.7 528.2ZM235.5 545.8C233.3 545.3 232.3 545.2 231 545.3C227.8 545.5 225.8 546.7 225.9 548.8C226 551.2 229.9 552 231.9 551.9C234.9 551.7 236 550 235.8 547.9C235.8 547.3 235.6 546.3 235.5 545.8Z" fill="#CF6500"/>
<path d="M278.7 549.1C275.8 549.3 273.2 546.7 272.1 545.6C267.7 541 265.6 535.6 265.1 526.8C265 524.7 265 523.7 265.5 514.8C265.5 514.6 265.5 513.6 265.6 513.4L270.7 514.9C271.8 515.2 272.4 515.4 272.5 516C272.5 516.5 271.9 516.8 271.2 517.2C270.9 518.9 270.2 522.2 270.5 527C271 536 275.1 542.5 277.7 542.3C280.3 542.2 281.6 535.9 282 532.9L285.4 536.1C284.6 541.1 282.9 548.9 278.7 549.1ZM304.8 536.2C304.4 531.5 303 527 300.7 522.8C297.5 517 296.2 515.5 295.1 514.3L299.9 511.7C305.9 518.2 310.2 529.1 310.8 534L304.8 536.2Z" fill="#CF6500"/>
<path d="M71.2 624.6C71 625.6 70.8 626.2 69.7 631.6C68.3 638.2 66.6 642.5 63.9 647.6C61.6 652 60.2 653.8 59.2 655.1L53.7 652.6C63 642.7 65.6 626.7 65.6 620.7L72.2 622.2C73 622.4 73.3 622.6 73.3 623C73.2 623.6 73 623.7 71.2 624.6ZM95.6 651.5C94.5 646.8 93.3 642.5 90.2 636.4C87.8 631.6 85 627 81.4 623.1L85.8 619.8C94.4 629.7 99.6999 642.9 101.4 649.2L95.6 651.5Z" fill="#CF6500"/>
<path d="M148.1 650.5C148.3 649.3 148.2 649.1 148.3 647.2L121.7 648.7C121.7 649.5 121.8 650.9 122 651.9L115.8 652.3C115.9 650.9 116 648.5 115.8 645.2C115.6 639.9 115.5 639.3 115.5 638.7L114.9 627.3C114.8 625.6 114.2 617.2 114 615.8C117.2 615.9 124.1 615.7 127.5 615.5L139.3 614.8C143.2 614.6 149 614.2 152.7 613.8C152.6 616.7 152.9 623.1 153.1 626.2L153.7 637C153.8 638.1 154.2 642.8 154.2 643.8C154.5 647.7 154.8 649 155.1 650.2L148.1 650.5ZM146.9 619.3L120 620.8L121.3 643.8L148.2 642.3L146.9 619.3Z" fill="#CF6500"/>
<path d="M206.7 622.4C206.4 625.3 204.9 633.5 202.1 638.9C201.1 640.8 195.5 650.8 188 654.2L182.5 650.9C184.7 650.1 188.9 648.4 194.3 641.6C197.1 638 199 634.7 200.3 629.2C201.6 624.1 201.4 621 201.4 619.3L174.2 620.8L174.6 627C174.6 627.8 174.9 631.5 175.3 634.2L169.3 634.5C169.6 631.2 169.5 629.3 169.5 628.8L169.2 623.7L169.1 622.7C168.9 619.4 168.5 617.8 168.3 616.8C174.1 616.9 174.7 616.9 175.4 616.8L180.6 616.5L185.3 616.2L185.1 612.2C185 610 184.7 607.8 184.5 605.6L190.2 606C190.7 606 191.7 606.1 191.7 606.9C191.7 607.6 190.9 607.8 190.5 607.9C190.3 610 190.3 612.2 190.4 613.2L190.6 615.9L192.7 615.8C195.4 615.6 198.3 615.4 200.1 615.2C202 614.9 202.9 614.7 203.8 613.9L208.2 617.3C207 619.1 206.9 620 206.7 622.4Z" fill="#CF6500"/>
<path d="M249.8 617.9C249.1 618 248.7 618.1 248.3 618.6C246.4 620.9 245 622.6 240.5 626.6L241.4 642.2C241.5 644 242.1 649 242.3 651.1L237.3 651.4C237.3 648.1 237.3 645.9 237.1 642.6L236.4 629.9C231.8 633.4 229.1 635.1 224.8 637.5L220 634C225.4 631.6 229.7 629.6 236.6 623.7C241.9 619.1 243.8 616.3 246.1 612.8L250 615.6C250.5 616 251.1 616.5 251.2 617C251.2 617.7 250.9 617.7 249.8 617.9Z" fill="#CF6500"/>
<path d="M282.4 615.8C278.6 612.6 272.8 609.9 270 608.9L272.7 603.8C281.1 607.2 283.7 609.4 285.2 610.7L282.4 615.8ZM276.4 644.4C276.3 644.6 276.1 645.5 276 645.7C275.9 645.9 275.7 646 275.4 646.1C275 646.1 274.8 645.9 274.2 644.9L270.9 639.4C279.3 637.8 298.5 628.1 308.1 614.1L310.6 619.3C300.6 632.4 283.8 640.8 276.4 644.4Z" fill="#CF6500"/>
<path d="M361.3 619.2C361 619.2 359.8 619.1 359.2 619.1C356.3 620 356.1 620.1 349.3 623.3C349.4 624.9 349.9 632.1 350 633.5L344.1 634.2C344.2 632.4 344.4 629.7 344.4 625.7C341.1 627.6 339.1 628.9 337.4 630.9C336.2 632.3 335.4 634.3 335.5 635.7C335.7 639.9 341.8 640.1 346.3 639.8C349.1 639.6 354.6 638.9 358.6 637.5L357.3 643.2C356.9 643.2 356.5 643.3 353.3 643.8C352 644 350.5 644.2 348.2 644.3C338.2 644.9 335.8 643.7 333.7 642.1C331.7 640.6 330.6 638.4 330.4 636C330 628.9 338.6 623.4 343.5 620.7C342.9 619.3 342.2 617.5 339.3 617.6C336.3 617.8 333.4 620.3 331.7 622.1C329.5 624.5 328 627.2 326.9 629.3L322 626.9C327.4 620.9 330 616.1 332.6 610.2C328.8 610.9 327.2 611.2 323.9 611.5L322.7 606.4C324.2 606.4 325.7 606.5 327.9 606.4C330.6 606.2 332.6 605.9 334.4 605.6C335.7 601.7 336.1 599.7 336.6 597.4L342.7 597.9C343.2 597.9 343.6 598.2 343.7 598.7C343.7 599.3 343.6 599.4 341.8 600.7C341 602.6 340.8 603.1 340.3 604.4C345.6 603.2 348.6 602.1 351.8 600.7L351.5 605.9C348.5 606.8 341.7 608.4 338.3 609.1C337.1 611.7 336.3 613.2 335.5 614.7C336.6 614.2 339.3 613.1 341.3 613C343.2 612.9 346.2 613.9 347.7 616.8C347.9 617.3 348.1 617.9 348.3 618.3C355.2 614.9 355.5 614.8 358 613.4L361.8 617.7C362 618 362.1 618.2 362.1 618.5C362.2 618.9 361.9 619.2 361.3 619.2Z" fill="black"/>
<path d="M381.2 643.1C376.8 643.3 373 639.8 372.7 635.4C372.4 630.9 375.8 627 380.2 626.8C384.6 626.6 388.4 630 388.7 634.5C388.9 639 385.6 642.8 381.2 643.1ZM380.4 629.3C377.3 629.5 375 632.1 375.1 635.3C375.3 638.4 377.9 640.8 381 640.7C384.1 640.6 386.4 637.8 386.3 634.7C386.1 631.4 383.4 629.1 380.4 629.3Z" fill="black"/>
<path d="M205.7 139.5L179.6 141.3L176.1 91.4002L201.1 89.7002L201.8 99.5002L186.8 100.6L187.4 109.2L195.3 108.6L196 118.3L188.1 118.9L188.9 130.9L205 129.8L205.7 139.5Z" fill="#CF6500"/>
<path d="M166.7 142.2L157.8 142.8L137.6 116.9C136.3 115.1 134.4 112.8 133.7 111.5C133.8 113.4 134.4 119.6 134.6 122.4L136.1 144.3L126.3 145L122.8 95.1002L132.3 94.4002L151.8 119.5C153.1 121.3 155 123.6 155.7 124.9C155.6 123 155 116.8 154.8 114L153.3 92.9002L163.1 92.2002L166.7 142.2Z" fill="#CF6500"/>
<path d="M264.9 85.2002L258 135.8L248.2 136.5L240.3 111.3C239.4 108.4 238.4 104.7 238 102.9C237.9 104.8 237.5 108.6 237 111.6L232.5 137.7L223.2 138.4L209.3 89.3002L219.7 88.6002L225.7 112.6C226.3 115 227.1 118.7 227.5 120.7C227.7 118.6 228.2 114.8 228.6 112.4L232.7 87.7002L241.4 87.1002L249 111C249.7 113.4 250.8 117 251.3 119.1C251.4 117 251.7 113.2 251.9 110.8L254.5 86.2002L264.9 85.2002Z" fill="#CF6500"/>
<path d="M208.8 315.8L222.1 305.2L249.1 312.8L269.4 240.1L234.9 260.4L224.3 250.2L205.3 265.8L184.3 253L175.2 264.6L138.2 249.2L168.4 318.5L194.1 307.2L208.8 315.8Z" fill="black"/>
<path d="M115.3 290.2C115.1 287.6 115.8 278.9 126.8 278.1L184.4 274.1L183.8 265.1L125.7 269.2C109.8 270.3 105.2 283.1 105.7 290.9C106.2 298.7 112.6 310.7 128.5 309.6L188.9 305.4L188.3 296.4L128.3 300.6C117.3 301.3 115.5 292.8 115.3 290.2Z" fill="black"/>
<path d="M297.8 277.4C297.6 274.8 295.7 266.3 284.7 267L227.1 271L226.5 262L284.6 257.9C300.5 256.8 306.9 268.8 307.4 276.6C307.9 284.4 303.3 297.2 287.4 298.3L227 302.5L226.4 293.5L286.4 289.3C297.3 288.7 298 280 297.8 277.4Z" fill="black"/>
<path d="M315.8 214.5L289.7 216.3L286.2 166.4L311.2 164.7L311.9 174.5L296.9 175.6L297.5 184.2L305.4 183.6L306.1 193.3L298.2 193.9L299 205.9L315.1 204.8L315.8 214.5Z" fill="#CF6500"/>
<path d="M351.8 212L325.7 213.8L322.2 163.9L347.2 162.2L347.9 172L332.9 173.1L333.5 181.7L341.4 181.1L342.1 190.8L334.2 191.4L335 203.4L351.1 202.3L351.8 212Z" fill="#CF6500"/>
<path d="M44 233.5L34 234.2L32.5 213.3L12.1 214.7L13.6 235.6L3.59998 236.3L0.0999756 186.4L10.1 185.7L11.4 204.8L31.8 203.4L30.5 184.3L40.5 183.6L44 233.5Z" fill="#CF6500"/>
<path d="M100.3 229.6L89.3 230.4L84.6 219.6L66.4 220.9L63.3 232.3L52.6 233L68.2 181.8L77.9 181.1L100.3 229.6ZM80.5 210.3L76.7 201.5C75.5 198.6 74.3 195.7 73.7 193.9C73.3 195.8 72.5 198.8 71.7 201.8L69.1 211.1L80.5 210.3Z" fill="#CF6500"/>
<path d="M276.5 167.2L269.6 217.8L259.8 218.5L251.9 193.3C251 190.4 250 186.7 249.6 184.9C249.5 186.8 249.1 190.6 248.6 193.6L244.1 219.7L234.8 220.4L220.9 171.3L231.3 170.6L237.3 194.6C237.9 197 238.7 200.7 239.1 202.7C239.3 200.6 239.8 196.8 240.2 194.4L244.3 169.7L253 169.1L260.6 193C261.3 195.4 262.4 199 262.9 201.1C263 199 263.3 195.2 263.5 192.8L266.1 168.2L276.5 167.2Z" fill="#CF6500"/>
<path d="M400.9 208.6L392 209.2L371.8 183.3C370.5 181.5 368.6 179.2 367.9 177.9C368 179.8 368.6 186 368.8 188.8L370.3 210.7L360.5 211.4L357 161.5L366.5 160.8L386 185.9C387.3 187.7 389.2 190 389.9 191.3C389.8 189.4 389.2 183.2 389 180.4L387.5 159.3L397.3 158.6L400.9 208.6Z" fill="#CF6500"/>
<path d="M130.9 227.5L109.4 229L105.9 179.1L115.9 178.4L118.7 218.4L130.2 217.6L130.9 227.5Z" fill="#CF6500"/>
<path d="M163.1 225.3L141.6 226.8L138.1 176.9L148.1 176.2L150.9 216.2L162.4 215.4L163.1 225.3Z" fill="#CF6500"/>
<path d="M193 213.9C184.9 214.5 177.9 208.4 177.4 200.3C176.8 192.2 182.9 185.2 191 184.7C199.1 184.1 206.1 190.2 206.6 198.3C207.1 206.3 201 213.3 193 213.9ZM193.7 224.3C207.5 223.3 217.9 211.4 216.9 197.6C215.9 183.8 204 173.4 190.2 174.4C176.4 175.4 166 187.3 167 201.1C167.9 214.8 179.9 225.2 193.7 224.3Z" fill="black"/>
<path d="M189.1 210.6C193.187 210.6 196.5 207.287 196.5 203.2C196.5 199.113 193.187 195.8 189.1 195.8C185.013 195.8 181.7 199.113 181.7 203.2C181.7 207.287 185.013 210.6 189.1 210.6Z" fill="black"/>
<path d="M119.9 62.8002L109.9 63.5002L108.4 42.6002L88 44.0002L89.5 64.9001L79.5 65.6002L76 15.7001L86 15.0002L87.3 34.1002L107.7 32.7001L106.4 13.6002L116.4 12.9001L119.9 62.8002Z" fill="#CF6500"/>
<path d="M159.3 60.0002L133.2 61.8002L129.7 11.9002L154.7 10.2002L155.4 20.0002L140.4 21.1002L141 29.7002L148.9 29.1002L149.6 38.8002L141.7 39.4002L142.5 51.4002L158.6 50.3002L159.3 60.0002Z" fill="#CF6500"/>
<path d="M193.7 57.2001L172.2 58.7001L168.7 8.80009L178.7 8.1001L181.5 48.1001L193 47.3001L193.7 57.2001Z" fill="#CF6500"/>
<path d="M226 54.9L204.5 56.4L201 6.50005L211 5.80005L213.8 45.8L225.3 45L226 54.9Z" fill="#CF6500"/>
<path d="M253.4 14.3001C261.5 13.7001 268.5 19.8001 269 27.9001C269.6 36.0001 263.5 43.0001 255.4 43.5001C247.3 44.1001 240.3 38.0001 239.8 29.9001C239.2 21.9001 245.3 14.9001 253.4 14.3001ZM252.6 4.00007C238.8 5.00007 228.4 16.9001 229.4 30.7001C230.4 44.5001 242.3 54.9001 256.1 53.9001C269.9 52.9001 280.3 41.0001 279.3 27.2001C278.4 13.4001 266.4 3.00007 252.6 4.00007Z" fill="black"/>
<path d="M257.3 32.4001C261.387 32.4001 264.7 29.087 264.7 25.0001C264.7 20.9132 261.387 17.6001 257.3 17.6001C253.213 17.6001 249.9 20.9132 249.9 25.0001C249.9 29.087 253.213 32.4001 257.3 32.4001Z" fill="black"/>
<path d="M299.8 20.7001L299 32.7001L292.3 33.2001L289.8 21.4001L288.4 0.800095L298.4 0.100098L299.8 20.7001ZM302.9 50.9001L290.8 51.7001L290 39.6001L302.1 38.8001L302.9 50.9001Z" fill="#CF6500"/>
</svg>
