<svg width="332" height="181" viewBox="0 0 332 181" fill="none" xmlns="http://www.w3.org/2000/svg">
<path d="M166.6 180.8L172.4 176.8L183.3 180.7L193.7 151.5L178.9 158.8L174.9 154.3L166.6 160.2L158.4 154.3L154.3 158.8L139.6 151.5L150 180.7L160.8 176.8L166.6 180.8Z" fill="black"/>
<path d="M129 167.6C129 166.5 129.5 163 134.1 163H157.9V159.3H133.9C127.3 159.3 125.1 164.4 125.1 167.6C125.1 170.8 127.4 175.9 133.9 175.9H158.8V172.2H134.1C129.5 172.2 129 168.7 129 167.6Z" fill="black"/>
<path d="M204.3 167.6C204.3 166.5 203.8 163 199.2 163H175.4V159.3H199.4C206 159.3 208.2 164.4 208.2 167.6C208.2 170.8 205.9 175.9 199.4 175.9H174.5V172.2H199.2C203.7 172.2 204.3 168.7 204.3 167.6Z" fill="black"/>
<path d="M173.1 64.3C173.1 79.2 164.4 87.5 152.7 87.5C141.1 87.5 132.5 79.4 132.5 64.5C132.5 49.6 141.2 41.3 152.9 41.3C164.6 41.3 173.1 49.4 173.1 64.3ZM160.4 64.3999C160.4 56.1999 157.6 51.8999 152.8 51.8999C148 51.8999 145.3 56.1 145.3 64.3C145.3 72.5 148.1 76.8 152.9 76.8C157.7 76.8 160.4 72.5999 160.4 64.3999Z" fill="black"/>
<path d="M199 86.8H186.8V56H179.2V48.1001C185 47.8001 187.3 46.2 188.5 42H199V86.8Z" fill="black"/>
<path d="M11.9 119.5L11.5 124.4H15.7V127.7H11.3L10.8 132.9H8.99998L9.49998 127.7H5.79998L5.29998 132.9H3.59998L3.99998 127.7H0.0999756V124.4H4.29998L4.69997 119.5H0.599976V116.2H4.99998L5.49998 111H7.19997L6.79998 116.2H10.5L10.9 111H12.6L12.2 116.2H16.2V119.5H11.9ZM6.49998 119.5L6.09998 124.4H9.79998L10.2 119.5H6.49998Z" fill="black"/>
<path d="M41.3 119.3C40.4 120.3 36.7 124.8 35.9 125.7C37.1 127.1 37.8 128 38.7 129.3L36.1 131.2C34.2 128.2 31.8 125 27.6 122.2L29.7 120C31.3 121.1 32.7 122.4 34.1 123.8C35.1 122.7 37.9 119.3 39.8 116H30.3C28.5 116 25 116.1 22 116.3V113.2C24.6 113.5 27.5 113.5 30.2 113.5H37.3C42.1 113.5 42.7 113.3 43.9 112.7L46.3 114.9C44.2 116 42.1 118.3 41.3 119.3Z" fill="black"/>
<path d="M71.7 132.3C69 127.9 65.3 125 64 124.1C59.8 128.9 55.7 131.1 52.9 132.4L50.7 129.7C52.2 129.2 55.2 128.1 58.5 125.5C62.3 122.5 64.9 118.4 66.6 114H61.3C59.1 114 56.2 114.1 54 114.3V111.3C55 111.4 58.6999 111.5 59.8999 111.5H64.3C67.2 111.5 67.5999 111.4 67.8999 111.3C68.4999 111.2 69.0999 110.9 69.3999 110.6L71.6 113.1C71 113.5 70.8 113.6 70.2 114.1C68.4 117.6 67.2 119.7 65.8 121.8C70.2 124.9 73.5 128.9 74.2 130L71.7 132.3Z" fill="black"/>
<path d="M99 115.6C96.6 122.5 93.1 129.9 84.6 134.4L81.8999 132.2C84.1999 131.2 87.7 129.7 91.2 125C94.6 120.6 95.4 116.9 95.8 115.1H86.6C85.1 117.4 83.4 119.7 80.7 122.2L78.2 120.5C79 119.8 81.1 118.3 83.5 114.7C84.6 113 85.9999 110.6 86.3999 108.9L89.7 110.3C89.9 110.4 90.1 110.5 90.1 110.7C90.1 111 89.7 111.2 89.6 111.2C89.2 111.3 89.1 111.3 88.7 111.6C88.3 112 88.3999 112.1 87.8999 112.8H92.6C96.2 112.8 96.7 112.6 97.5 112.2L99.7 114.5C99.4 115.2 99.4 115.2 99 115.6Z" fill="black"/>
<path d="M127.3 113.1C125.1 113.8 121.4 115 118.3 119.9C117.3 121.5 116.8 123.1 116.8 124.4C116.8 128.1 120.7 130.5 125.3 130.9L124.3 133.9C114.8 132.3 113.8 126.8 113.8 124.4C113.8 122.7 114.4 118 121.4 113.3C116.7 113.5 110.9 114.4 107.3 115.3L106.8 111.9C111.7 112 124.1 111.1 130.1 109.6V112.7C129.5 112.7 128.3 112.7 127.3 113.1ZM128.3 121.5C127.3 120.5 126.1 119.8 124.8 119.2L126 117.6C127.5 118 128.9 119.2 129.6 120L128.3 121.5ZM131.4 118.4C130 117.2 129.2 116.6 127.6 115.9L128.9 114.3C129.5 114.5 130.8 115 132.5 116.7L131.4 118.4Z" fill="black"/>
<path d="M155.5 112.8H142.2C141.2 114.3 140.1 115.7 138.8 116.8L136.5 114.9C139.1 113.2 140.7 110.3 141.7 107.5L144.6 108.5C144.8 108.6 145 108.6 145 108.9C145 109.4 144.6 109.4 144 109.5C143.9 109.8 143.9 109.8 143.7 110.3H155.7C157.3 110.3 158.8 110.3 163 110.2V112.8C159.4 112.8 158 112.8 155.5 112.8ZM159.5 124.3C159.4 125.5 159.3 126.5 159.1 128.8C161.7 128.7 161.8 128.7 163.2 128.6V131.2C161.9 131.1 159.9 131.1 158.7 131.1C157.7 135.1 155.7 135.1 152.9 135.1L151.6 132.1C151.9 132.2 152.7 132.2 153.5 132.2C155.2 132.2 155.5 131.6 155.8 130.9H142.6C142.5 131.7 142.4 132 142.2 132.9L139 132.7C140.1 129.1 140.7 126.2 141 124C137.9 124.1 137.5 124.2 136.7 124.2V121.5C138 121.6 140 121.6 141.3 121.7C141.5 119.6 141.7 117.2 141.6 115.1C143.4 115.2 145.2 115.3 147.7 115.3H153.5C155 115.3 158.5 115.2 159.9 115.1C159.8 115.8 159.7 120.5 159.6 121.7C162.2 121.6 162.7 121.6 163.8 121.5V124.1C162.8 124.4 162.5 124.4 159.5 124.3ZM143.9 124.2C143.8 125.1 143.6 126 143.5 126.9C143.4 127.2 143.2 128.5 143.1 128.8H148C148.5 126.9 148.7 125.4 148.8 124.2H143.9ZM144.3 117.9C144.2 119.9 144.1 121.2 144.1 122H149C149.2 120.4 149.2 119.2 149.2 117.9H144.3ZM151.4 124.2C151.3 125.3 151 126.8 150.6 128.8H156.1C156.3 127.4 156.5 124.5 156.5 124.2H151.4ZM152 117.9C151.8 119.8 151.8 120.8 151.6 122H156.6C156.7 119.6 156.7 119.4 156.7 117.9H152Z" fill="black"/>
<path d="M185.2 134C185.2 133 185.3 132.8 185.3 131.9H173.9C173.9 132.3 174 133.8 174 134.1H170.6C170.7 132.2 170.9 128.5 170.9 125.4V117.8C170.9 115.3 170.9 112.4 170.7 109.9C172 110 173.8 110.1 176.5 110.1H183C186 110.1 186.3 110 188.3 109.9C188.2 112 188.1 114.8 188.1 116.9V125.1C188.1 127.3 188.2 131.8 188.4 133.9H185.2V134ZM185.3 112.9H173.9V119.6H185.3V112.9ZM185.3 122.3H173.9V129.2H185.3V122.3Z" fill="black"/>
<path d="M206 114.8C205.8 115.3 205.8 115.6 205 118.6C204 122.2 203 124.5 201.3 127.1C199.9 129.4 199.1 130.4 198.5 131L195.6 129.5C201 124.4 202.9 115.7 203.1 112.4L206.6 113.4C207 113.5 207.2 113.6 207.2 113.9C207.1 114.4 207 114.4 206 114.8ZM218.5 130.3C218 127.7 217.5 125.3 216 121.9C214.9 119.2 213.5 116.6 211.6 114.3L214.1 112.6C218.5 118.3 221 125.7 221.7 129.2L218.5 130.3Z" fill="black"/>
<path d="M245.9 131.4C246 130.8 246 130.6 246.1 129.6H231.5C231.5 130 231.5 130.8 231.6 131.3H228.2C228.3 130.5 228.4 129.2 228.4 127.4C228.4 124.5 228.4 124.2 228.4 123.8V117.6C228.4 116.7 228.3 112.1 228.3 111.3C230.1 111.5 233.8 111.5 235.7 111.5H242.2C244.3 111.5 247.5 111.5 249.6 111.3C249.5 112.9 249.4 116.4 249.4 118.1V124C249.4 124.6 249.5 127.2 249.5 127.7C249.5 129.8 249.6 130.5 249.8 131.2H245.9V131.4ZM246.2 114.3H231.4V126.9H246.2V114.3Z" fill="black"/>
<path d="M277.7 117.9C277.4 119.5 276.4 123.9 274.7 126.8C274.1 127.8 270.7 133.1 266.5 134.7L263.6 132.7C264.8 132.3 267.2 131.6 270.3 128C271.9 126.1 273.1 124.4 274 121.4C274.9 118.6 274.9 117 274.9 116H260V119.4C260 119.8 260 121.9 260.2 123.4H256.9C257.1 121.6 257.2 120.6 257.2 120.3V117.5V116.9C257.2 115.1 257 114.2 256.9 113.6C260.1 113.8 260.4 113.8 260.8 113.8H263.6H266.2V111.6C266.2 110.4 266.1 109.2 266.1 108L269.2 108.4C269.5 108.4 270 108.5 270 108.9C270 109.3 269.5 109.4 269.3 109.4C269.1 110.5 269.1 111.8 269.1 112.3V113.8H270.2C271.7 113.8 273.3 113.8 274.2 113.7C275.2 113.6 275.7 113.5 276.2 113.1L278.5 115.1C278 116.1 277.9 116.6 277.7 117.9Z" fill="black"/>
<path d="M301.9 116.7C301.5 116.7 301.3 116.8 301 117.1C299.9 118.3 299.1 119.2 296.5 121.2V129.8C296.5 130.8 296.6 133.5 296.7 134.7H294C294.1 132.9 294.2 131.7 294.2 129.9V122.9C291.6 124.7 290 125.5 287.6 126.7L285.1 124.6C288.1 123.4 290.5 122.5 294.5 119.5C297.6 117.1 298.6 115.7 300 113.9L302.1 115.6C302.3 115.8 302.7 116.1 302.7 116.4C302.7 116.6 302.5 116.7 301.9 116.7Z" fill="black"/>
<path d="M311.7 132.1C311.6 132.2 311.5 132.7 311.4 132.8C311.3 132.9 311.2 133 311.1 133C310.9 133 310.8 132.9 310.5 132.3L308.9 129.2C313.5 128.6 324.3 123.9 330 116.5L331.2 119.4C325.3 126.2 315.9 130.3 311.7 132.1ZM315.9 116.6C313.9 114.7 310.8 113.1 309.4 112.5L311.1 109.8C315.6 111.9 316.9 113.2 317.7 114L315.9 116.6Z" fill="black"/>
<path d="M141.9 12.3999L141 11.3C143 11 144.4 9.90005 144.4 8.30005C144.4 7.90005 144.3 6.4001 142.6 6.1001C142.1 7.4001 141.4 8.59995 140.4 9.69995C140.5 9.99995 140.5 10.0001 140.7 10.6001L139.5 11.3999C139.3 10.9999 139.3 10.9 139.2 10.7C138.7 11.1 137.9 11.8 136.9 11.8C135.9 11.8 135.2 11.1999 135.2 9.8999C135.2 7.8999 136.7 6.2 138.6 5.5C138.6 5 138.6 4.2999 138.7 3.8999C137.3 3.9999 136.9 4 136.4 4L135.9 2.6001C136.3 2.7001 136.7 2.80005 137.8 2.80005C138.2 2.80005 138.5 2.80005 138.9 2.80005C139.1 1.40005 139.1 1.29995 139.3 0.199951L140.8 0.600098C141.1 0.700098 141.1 0.700049 141.1 0.800049C141.1 1.00005 141.1 0.999951 140.7 1.19995C140.6 1.59995 140.5 1.9001 140.4 2.6001C142.1 2.3001 143 2.1 144.3 1.5L144.2 2.80005C142.7 3.20005 141.9 3.39995 140.2 3.69995C140.1 4.29995 140.1 4.6 140 5C140.4 4.8 140.7 4.80005 141.8 4.80005C141.9 4.30005 141.9 4.2 141.9 4L143.3 4.19995C143.2 4.39995 143.2 4.5 143 5C143.5 5.1 144.3 5.4001 144.9 6.1001C145.5 6.8001 145.7 7.70005 145.7 8.30005C145.8 9.90005 144.6 11.7999 141.9 12.3999ZM138.8 6.69995C138.4 6.89995 138.1 7.1001 137.6 7.6001C137.1 8.1001 136.7 8.79995 136.7 9.69995C136.7 10.4 137.3 10.5 137.5 10.5C137.8 10.5 138.1 10.4 138.3 10.3C138.7 10.1 139 9.8001 139.2 9.6001C138.9 8.5001 138.8 7.19995 138.8 6.69995ZM140 6.19995C140.1 7.39995 140.1 7.6999 140.2 8.3999C140.9 7.4999 141.3 6.7 141.5 6C140.8 6 140.5 5.99995 140 6.19995Z" fill="black" stroke="black" stroke-width="0.2835" stroke-miterlimit="10"/>
<path d="M156.7 3.80005C156 4.00005 155.4 4.1999 154 4.3999C153.8 4.9999 153 7.6001 152.8 8.1001C152.1 9.9001 151.6 11.1 151.1 12.2L149.7 11.7C150.8 10.1 152.1 7.39995 152.7 4.69995C152.4 4.79995 152 4.80005 151.4 4.80005C150.9 4.80005 150.6 4.79995 150.3 4.69995V3.3999C150.7 3.3999 151.2 3.5 151.9 3.5C152.4 3.5 152.8 3.3999 153.1 3.3999C153.2 2.8999 153.3 2.4999 153.6 0.399902L155.2 0.600098C155.4 0.600098 155.6 0.699902 155.6 0.899902C155.6 1.0999 155.5 1.09995 155.1 1.19995C154.8 2.09995 154.8 2.40005 154.6 3.30005C155.2 3.20005 155.8 3.1001 157 2.6001L156.7 3.80005ZM160.1 12C159.6 12 159.1 12 158.7 12C155.8 12 155.3 11.8 154.9 11.5C154.7 11.4 154.4 11.1 154.4 10.7C154.4 9.79995 155.1 9.10005 155.4 8.80005L156.4 9.30005C156.1 9.60005 155.7 10 155.7 10.3C155.7 10.9 157.5 10.8999 158 10.8999C159.5 10.8999 159.9 10.8 160.4 10.7L160.1 12ZM160.4 6.30005C160.1 6.20005 159.7 6.1001 158.4 6.1001C157 6.1001 156.3 6.20005 155.9 6.30005L156 5.1001C156.5 5.1001 157.1 5 158.1 5C159.1 5 159.7 5.0001 160.4 5.1001V6.30005Z" fill="black" stroke="black" stroke-width="0.2835" stroke-miterlimit="10"/>
<path d="M171.9 11.2C170.7 12 169.6 12.1 166.8 12.3L166.1 10.8999C167.5 10.8999 168.7 10.9 169.7 10.8C170.9 10.6 172.1 9.7 172.1 8.5C172.1 8.1 171.9 6.69995 170.1 6.69995C168.5 6.69995 167.2 7.7999 166.2 8.8999L164.9 8.3999C164.9 8.0999 165.1 6.89995 165.1 6.69995C165.3 5.59995 165.5 4.1001 165.7 3.1001L167.2 3.5C167.3 3.5 167.5 3.59995 167.5 3.69995C167.5 3.79995 167.4 3.8999 167.3 3.8999C167.1 3.9999 167 4.0001 166.9 4.1001C166.5 5.3001 166.4 6.4001 166.3 7.1001C167.5 6.2001 168.7 5.6001 170.2 5.6001C171.5 5.6001 173.4 6.4001 173.4 8.6001C173.5 9.4001 173.1 10.4 171.9 11.2ZM170.6 2.8999C168.9 1.9999 167.4 1.79995 166.6 1.69995L167.1 0.399902C168.5 0.499902 170.1 1 171.2 1.5L170.6 2.8999Z" fill="black" stroke="black" stroke-width="0.2835" stroke-miterlimit="10"/>
<path d="M185.4 10.7C184.3 11.6 182.9 12 182.2 12C181.4 12 180.4 11.6999 179.7 10.8999C179.1 10.0999 179 9.49995 179 8.19995C179 7.49995 179.1 4.29995 179.1 3.69995C179.1 2.79995 179.1 1.4 178.9 0.5L180.5 0.699951C180.8 0.699951 181 0.8 181 1C181 1.1 181 1.1999 180.6 1.3999C180.6 1.6999 180.5 2.09995 180.5 2.69995C180.4 3.69995 180.3 7.20005 180.3 7.80005C180.3 9.10005 180.4 9.5 180.7 10C181.1 10.6 181.9 10.8 182.3 10.8C183 10.8 184.1 10.4 184.9 9.5C185.9 8.4 186.2 7.30005 186.4 6.80005L187.5 7.80005C187 8.90005 186.4 9.89995 185.4 10.7Z" fill="black" stroke="black" stroke-width="0.2835" stroke-miterlimit="10"/>
<path d="M194.5 11.2C193.8 11.2 193.1 10.5 192.9 10.2C191.8 8.89995 191.4 7.50005 191.4 5.30005C191.4 4.80005 191.4 4.49995 191.7 2.19995C191.7 2.09995 191.7 1.90005 191.7 1.80005L193 2.30005C193.3 2.40005 193.4 2.5001 193.4 2.6001C193.4 2.7001 193.2 2.7999 193 2.8999C192.9 3.2999 192.7 4.1999 192.7 5.3999C192.7 7.6999 193.7 9.3999 194.3 9.3999C194.9 9.3999 195.4 7.8001 195.6 7.1001L196.4 8C196.2 9.3 195.6 11.2 194.5 11.2ZM201.4 8.30005C201.4 7.10005 201.1 5.90005 200.5 4.80005C199.8 3.30005 199.4 2.9 199.2 2.5L200.5 1.8999C201.9 3.6999 202.9 6.50005 203 7.80005L201.4 8.30005Z" fill="black" stroke="black" stroke-width="0.2835" stroke-miterlimit="10"/>
<path d="M139.2 21.3C139.1 21.6 139.1 21.7001 138.7 23.1001C138.2 24.8001 137.7 25.8001 137 27.1001C136.4 28.2001 136 28.5999 135.7 28.8999L134.3 28.2C136.8 25.8 137.7 21.7 137.8 20.2L139.5 20.7C139.7 20.8 139.8 20.7999 139.8 20.8999C139.7 20.9999 139.7 21 139.2 21.3ZM145 28.5C144.8 27.3 144.5 26.2001 143.8 24.6001C143.3 23.3001 142.6 22.1001 141.7 21.1001L142.9 20.3C145 23 146.1 26.4001 146.5 28.1001L145 28.5Z" fill="black" stroke="black" stroke-width="0.2835" stroke-miterlimit="10"/>
<path d="M159.7 29C159.8 28.7 159.8 28.6 159.8 28.2H152.9C152.9 28.4 152.9 28.8 152.9 29H151.3C151.3 28.6 151.4 28 151.4 27.2C151.4 25.8 151.4 25.7 151.4 25.5V22.6001C151.4 22.2001 151.4 20.0001 151.3 19.6001C152.1 19.7001 153.9 19.7 154.8 19.7H157.8C158.8 19.7 160.3 19.7001 161.3 19.6001C161.2 20.3001 161.2 22 161.2 22.8V25.6001C161.2 25.9001 161.2 27.1 161.2 27.3C161.2 28.3 161.3 28.6 161.3 29H159.7V29ZM159.8 21H152.9V26.8999H159.8V21Z" fill="black" stroke="black" stroke-width="0.2835" stroke-miterlimit="10"/>
<path d="M175.8 22.7C175.7 23.4 175.2 25.4999 174.4 26.8999C174.1 27.3999 172.5 29.9001 170.6 30.6001L169.2 29.7C169.8 29.5 170.9 29.2 172.4 27.5C173.2 26.6 173.7 25.7999 174.1 24.3999C174.5 23.0999 174.5 22.2999 174.5 21.8999H167.5V23.5C167.5 23.7 167.5 24.6999 167.6 25.3999H166.1C166.2 24.5999 166.2 24.0999 166.2 23.8999V22.6001V22.3C166.2 21.5 166.1 21 166.1 20.8C167.6 20.9 167.7 20.8999 167.9 20.8999H169.2H170.4V19.8999C170.4 19.2999 170.4 18.8 170.3 18.2L171.7 18.3999C171.8 18.3999 172.1 18.4 172.1 18.7C172.1 18.9 171.9 18.8999 171.8 18.8999C171.7 19.3999 171.7 20 171.7 20.3V21H172.2C172.9 21 173.6 21 174.1 21C174.6 21 174.8 20.9 175.1 20.7L176.2 21.6001C176 21.8001 175.9 22.1 175.8 22.7Z" fill="black" stroke="black" stroke-width="0.2835" stroke-miterlimit="10"/>
<path d="M187.3 22.1001C187.1 22.1001 187 22.1 186.9 22.3C186.4 22.9 186 23.3 184.8 24.2V28.2C184.8 28.7 184.9 29.9 184.9 30.5H183.6C183.6 29.6 183.7 29.1 183.7 28.2V24.8999C182.5 25.6999 181.7 26.1 180.6 26.7L179.4 25.7C180.8 25.2 181.9 24.7 183.8 23.3C185.2 22.2 185.7 21.5 186.4 20.7L187.4 21.5C187.5 21.6 187.7 21.6999 187.7 21.8999C187.7 22.0999 187.6 22.1001 187.3 22.1001Z" fill="black" stroke="black" stroke-width="0.2835" stroke-miterlimit="10"/>
<path d="M193.5 29.3C193.5 29.4 193.4 29.6001 193.4 29.6001C193.4 29.7001 193.3 29.7 193.2 29.7C193.1 29.7 193.1 29.5999 192.9 29.3999L192.1 27.8999C194.3 27.5999 199.3 25.3999 202 21.8999L202.6 23.3C199.9 26.6 195.4 28.5 193.5 29.3ZM195.5 22.1001C194.6 21.2001 193.1 20.5 192.4 20.2L193.2 18.8999C195.3 19.8999 195.9 20.4999 196.3 20.8999L195.5 22.1001Z" fill="black" stroke="black" stroke-width="0.2835" stroke-miterlimit="10"/>
</svg>
