<svg width="135" height="182" viewBox="0 0 135 182" fill="none" xmlns="http://www.w3.org/2000/svg">
<path d="M68.6 181.3L74.4 177.3L85.3 181.2L95.7 151.9L80.9 159.3L76.9 154.8L68.6 160.7L60.4 154.8L56.3 159.3L41.6 151.9L52 181.2L62.8 177.3L68.6 181.3Z" fill="black"/>
<path d="M31 168.1C31 167 31.5 163.5 36.1 163.5H59.9V159.8H35.9C29.3 159.8 27.1 164.9 27.1 168.1C27.1 171.3 29.4 176.4 35.9 176.4H60.8V172.7H36.1C31.5 172.7 31 169.1 31 168.1Z" fill="black"/>
<path d="M106.3 168.1C106.3 167 105.8 163.5 101.2 163.5H77.4V159.8H101.4C108 159.8 110.2 164.9 110.2 168.1C110.2 171.3 107.9 176.4 101.4 176.4H76.5V172.7H101.2C105.7 172.7 106.3 169.1 106.3 168.1Z" fill="black"/>
<path d="M69.2 64.8C69.2 79.7 60.5 87.9999 48.8 87.9999C37.2 87.9999 28.6 79.8999 28.6 64.9999C28.6 50.0999 37.3 41.8 49 41.8C60.7 41.7 69.2 49.9 69.2 64.8ZM56.5 64.8998C56.5 56.6998 53.7 52.3998 48.9 52.3998C44.1 52.3998 41.4 56.6 41.4 64.8C41.4 73 44.2 77.3 49 77.3C53.8 77.3 56.5 73.0998 56.5 64.8998Z" fill="black"/>
<path d="M108.7 73C108.7 83.4 101.2 87.8999 89.1 87.8999C81.5 87.8999 75 85.3001 70.2 81.1001L76.6 73C80.2 75.8 84.3999 77.7 89.2999 77.7C94.4999 77.7 96.7 76.2 96.7 73.2C96.7 70.1 94.8999 68.8999 90.3999 68.8999H83.8999V59.2H89.7C93.6 59.2 94.8999 58.3999 94.8999 55.3999C94.8999 52.9999 93.1 51.8 88.7 51.8C84.3 51.8 81 53.1001 77.6 55.6001L71.7 47.5C75.9 44.3 81.2 41.7 89 41.7C99.8 41.7 106.9 45.1001 106.9 54.6001C106.9 59.5001 104 61.8999 100.9 63.3999C105 64.2999 108.7 67.3 108.7 73Z" fill="black"/>
<path d="M17.8 133.3H14.1L11.5 121.5L8.79999 133.3H5.09999L0.799988 117.6H3.99998L6.89998 129.2L9.49998 117.6H13.4L16 129.2L18.9 117.6H22.1L17.8 133.3Z" fill="black"/>
<path d="M26.5 114.5V111.4H29.6V114.5H26.5ZM26.5 133.3V117.6H29.6V133.3H26.5Z" fill="black"/>
<path d="M39.9 134.1C37.2 134.1 36.4 132.3 36.4 130.2V120.4H33.8V117.7H36.4V113.2H39.5V117.7H42.2V120.4H39.5V129.9C39.5 131.1 40.3 131.4 41.3 131.4C41.5 131.4 41.8 131.4 42.2 131.3V133.7C41.6 133.9 40.6 134.1 39.9 134.1Z" fill="black"/>
<path d="M56.4 133.3V122.8C56.4 121.2 55.4 119.6 53.5 119.6C50.8 119.6 49.2 122.3 49.2 124.7V133.3H46.1V111.4H49.2V119.6C49.9 118.7 51.3 116.9 54.4 116.9C57.2 116.9 59.4 118.5 59.4 122.3V133.4H56.4V133.3Z" fill="black"/>
<path d="M101.4 135.1C99.9 134.5 96.7 133.3 93.4 130.2C92 128.8 91.2 127.6 91.1 127.4C91.2 132.6 91.2 133.2 91.3 135.5H88.1C88.2 134.3 88.3 128.8 88.4 127.4C86.9 129.3 84.9 131.2 83.1 132.5C80.8 134.3 79.6 134.7 78.5 135.1L76.7 132.9C78.3 132.4 80 131.9 82.5 129.7C83.2 129.1 84.8 127.7 85.8 126.4C82.3 126.4 81.9 126.4 80.1 126.5C80.2 125.4 80.2 123.4 80.2 122.3V118.8C80.2 117.8 80.2 116.3 80.1 115.4C81 115.5 85.1 115.5 86 115.5H88.4V115V113.6H85.4C82.5 113.6 79.5 113.7 76.6 113.8V110.9C79.6 111.1 84 111.1 85.4 111.1H88.3C88.3 110.1 88.3 109.8 88.2 108.3L91.3 108.5C91.8 108.5 91.9 108.7 91.9 108.9C91.9 109.2 91.6 109.4 90.9 109.7C90.9 109.9 90.9 110.9 90.9 111.1H93.9C96.9 111.1 99.8 111 102.8 110.9V113.8C99 113.6 94.3 113.6 93.9 113.6H90.9C90.9 113.9 90.9 115.2 90.9 115.5H93.2C95 115.5 97.4 115.5 99.2 115.4C99.1 116.7 99.1 117.9 99.1 119.2V122.7C99.1 123.6 99.2 125.1 99.2 126.6C97 126.5 95 126.5 93.8 126.5H93.2C94 127.7 96.2 130.7 103 132.9L101.4 135.1ZM88.4 117.6H82.9V119.9H88.4V117.6ZM88.4 121.9H82.9V124.3H88.4V121.9ZM96.6 117.6H91V119.9H96.6V117.6ZM96.6 121.9H91V124.3H96.6V121.9Z" fill="black"/>
<path d="M113.3 130.7C112.5 132.3 111.5 133.6 110.3 134.7L108.2 132.6C110.9 130.9 111.3 128.8 111.4 127.9L114.1 129.7C114.3 129.8 114.3 129.9 114.3 130C114.3 130.3 114.1 130.6 113.3 130.7ZM124.8 126.8H118C117.3 126.8 114.3 126.8 113.7 126.9C112.6 126.9 112 127 111 127V124.5C112.4 124.6 117 124.6 120.2 124.6H128.4V122.7H121.3C118.2 122.7 116.7 122.8 112.2 123V120.4C115.2 120.6 118.2 120.6 121.3 120.6H128.5V118.7H120.3C116.6 118.7 112.9 118.8 111.5 118.9V117.4C111.3 117.5 111.3 117.5 110.8 117.6L108.9 115.3C113.7 114.2 118 109.6 118.9 108L121.9 109.2C122 109.2 122.2 109.4 122.2 109.5C122.2 110 121.4 110.1 121 110.1C120.8 110.4 120.5 110.7 120 111.3H122.9C123.5 111.3 125.9 111.2 126.4 111.2C126.9 111.2 127.2 111.1 127.5 111.1L128.5 112.2C127.9 112.9 125.1 115.9 124.5 116.5H125.1C128.9 116.5 130.2 116.4 131.3 116.3C131.2 116.8 131.2 118.5 131.2 119.1V122.9C131.2 123.4 131.3 126.4 131.4 126.9C130.3 126.8 126 126.8 124.8 126.8ZM117.4 113.5C115.7 114.9 114.6 115.7 113.2 116.5C114.4 116.5 116.4 116.6 117.5 116.6H121C121.4 116.1 123.1 114 123.5 113.5H117.4ZM127.4 134.1C126.6 135.2 125.5 135.3 124.5 135.3H119.8C117.8 135.3 116.8 135.3 116.1 134.7C115.4 134.1 115.4 133.6 115.4 132.3V129.7C115.4 129.3 115.3 127.8 115.3 127.4L118.5 127.8C118.7 127.8 119 127.9 119 128.2C119 128.6 118.6 128.7 118.1 128.8V132C118.1 133 118.3 133 119.7 133H123.9C124.5 133 125.1 133 125.8 131.6C126.3 130.8 126.3 130 126.4 129.5L128.8 131.3C128.6 131.8 128.3 132.9 127.4 134.1ZM122.2 132C121.4 130.6 120.5 129.7 119.2 128.6L121.2 126.9C122.4 127.8 123.4 128.7 124.4 130.3L122.2 132ZM131.9 134.2C130.5 131.1 128.8 129.7 127.9 128.9L130.1 127.3C132.4 129.2 133.6 131.1 134.4 132.5L131.9 134.2Z" fill="black"/>
<path d="M43.8999 12.8999L43 11.8C45 11.5 46.3999 10.4 46.3999 8.80005C46.3999 8.40005 46.3 6.9001 44.6 6.6001C44.1 7.9001 43.3999 9.09995 42.3999 10.2C42.4999 10.5 42.5 10.5001 42.7 11.1001L41.5 11.8999C41.3 11.4999 41.3 11.4 41.2 11.2C40.7 11.6 39.8999 12.3 38.8999 12.3C37.8999 12.3 37.2 11.6999 37.2 10.3999C37.2 8.3999 38.7 6.7 40.6 6C40.6 5.5 40.6 4.7999 40.7 4.3999C39.3 4.4999 38.8999 4.5 38.3999 4.5L37.8999 3.1001C38.2999 3.2001 38.7 3.30005 39.8 3.30005C40.2 3.30005 40.4999 3.30005 40.8999 3.30005C41.0999 1.90005 41.1 1.79995 41.3 0.699951L42.8 1.1001C43.1 1.2001 43.1 1.20005 43.1 1.30005C43.1 1.50005 43.1 1.49995 42.7 1.69995C42.6 2.09995 42.4999 2.4001 42.3999 3.1001C44.0999 2.8001 45 2.6 46.3 2L46.2 3.30005C44.7 3.70005 43.9 3.89995 42.2 4.19995C42.1 4.79995 42.1 5.1 42 5.5C42.4 5.3 42.7 5.30005 43.8 5.30005C43.9 4.80005 43.8999 4.7 43.8999 4.5L45.3 4.69995C45.2 4.89995 45.2 5 45 5.5C45.5 5.6 46.2999 5.9001 46.8999 6.6001C47.4999 7.3001 47.7 8.20005 47.7 8.80005C47.8 10.4 46.5999 12.2999 43.8999 12.8999ZM40.8 7.1001C40.4 7.3001 40.1 7.5 39.6 8C39.1 8.5 38.7 9.2001 38.7 10.1001C38.7 10.8001 39.3 10.8999 39.5 10.8999C39.8 10.8999 40.1 10.8 40.3 10.7C40.7 10.5 41 10.2 41.2 10C40.9 9 40.8 7.6001 40.8 7.1001ZM42 6.69995C42.1 7.89995 42.1 8.1999 42.2 8.8999C42.9 7.9999 43.3 7.2 43.5 6.5C42.8 6.4 42.5 6.49995 42 6.69995Z" fill="black" stroke="black" stroke-width="0.2835" stroke-miterlimit="10"/>
<path d="M58.7 4.30005C58 4.50005 57.4 4.6999 56 4.8999C55.8 5.4999 55 8.1001 54.8 8.6001C54.1 10.4001 53.6 11.6 53.1 12.7L51.7 12.2C52.8 10.6 54.1 7.89995 54.7 5.19995C54.4 5.29995 53.9999 5.30005 53.3999 5.30005C52.8999 5.30005 52.6 5.29995 52.3 5.19995V3.8999C52.7 3.8999 53.1999 4 53.8999 4C54.3999 4 54.8 3.8999 55.1 3.8999C55.2 3.3999 55.3 2.9999 55.6 0.899902L57.2 1.1001C57.4 1.1001 57.6 1.1999 57.6 1.3999C57.6 1.5999 57.5 1.59995 57.1 1.69995C56.8 2.59995 56.8 2.90005 56.6 3.80005C57.2 3.70005 57.8 3.6001 59 3.1001L58.7 4.30005ZM62.1 12.5C61.6 12.5 61.1 12.5 60.7 12.5C57.8 12.5 57.2999 12.3 56.8999 12C56.6999 11.9 56.3999 11.6 56.3999 11.2C56.3999 10.3 57.0999 9.60005 57.3999 9.30005L58.3999 9.80005C58.0999 10.1 57.7 10.5 57.7 10.8C57.7 11.4 59.5 11.3999 60 11.3999C61.5 11.3999 61.8999 11.3 62.3999 11.2L62.1 12.5ZM62.3999 6.80005C62.0999 6.70005 61.6999 6.6001 60.3999 6.6001C58.9999 6.6001 58.2999 6.70005 57.8999 6.80005L58 5.6001C58.5 5.6001 59.1 5.5 60.1 5.5C61.1 5.5 61.6999 5.5001 62.3999 5.6001V6.80005Z" fill="black" stroke="black" stroke-width="0.2835" stroke-miterlimit="10"/>
<path d="M73.9 11.7C72.7 12.5 71.6 12.6 68.8 12.8L68.1 11.3999C69.5 11.3999 70.7 11.4 71.7 11.3C72.9 11.1 74.1 10.2 74.1 9C74.1 8.6 73.9 7.19995 72.1 7.19995C70.5 7.19995 69.2 8.2999 68.2 9.3999L66.9 8.8999C66.9 8.5999 67.1 7.39995 67.1 7.19995C67.3 6.09995 67.5 4.6001 67.7 3.6001L69.2 4C69.3 4 69.5 4.09995 69.5 4.19995C69.5 4.29995 69.4 4.3999 69.3 4.3999C69.1 4.4999 69 4.5001 68.9 4.6001C68.5 5.8001 68.4 6.9001 68.3 7.6001C69.5 6.7001 70.7 6.1001 72.2 6.1001C73.5 6.1001 75.4 6.9001 75.4 9.1001C75.5 9.9001 75.1 10.9 73.9 11.7ZM72.6 3.3999C70.9 2.4999 69.4 2.29995 68.6 2.19995L69.1 0.899902C70.5 0.999902 72.1 1.5 73.2 2L72.6 3.3999Z" fill="black" stroke="black" stroke-width="0.2835" stroke-miterlimit="10"/>
<path d="M87.4 11.2C86.3 12.1 84.9 12.5 84.2 12.5C83.4 12.5 82.4 12.1999 81.7 11.3999C81.1 10.5999 81 9.99995 81 8.69995C81 7.99995 81.1 4.79995 81.1 4.19995C81.1 3.29995 81.1 1.9 80.9 1L82.5 1.19995C82.8 1.19995 83 1.3 83 1.5C83 1.6 83 1.6999 82.6 1.8999C82.6 2.1999 82.5 2.59995 82.5 3.19995C82.4 4.19995 82.3 7.70005 82.3 8.30005C82.3 9.60005 82.4 10 82.7 10.5C83.1 11.1 83.9 11.3 84.3 11.3C85 11.3 86.1 10.9 86.9 10C87.9 8.9 88.2 7.80005 88.4 7.30005L89.5 8.30005C89 9.30005 88.4 10.4 87.4 11.2Z" fill="black" stroke="black" stroke-width="0.2835" stroke-miterlimit="10"/>
<path d="M96.5 11.7C95.8 11.7 95.1 11 94.9 10.7C93.8 9.39995 93.4 8.00005 93.4 5.80005C93.4 5.30005 93.4 4.99995 93.7 2.69995C93.7 2.59995 93.7 2.40005 93.7 2.30005L95 2.80005C95.3 2.90005 95.4 3.0001 95.4 3.1001C95.4 3.2001 95.2 3.2999 95 3.3999C94.9 3.7999 94.7 4.6999 94.7 5.8999C94.7 8.1999 95.7 9.8999 96.3 9.8999C96.9 9.8999 97.4 8.3001 97.6 7.6001L98.4 8.5C98.2 9.7 97.6 11.7 96.5 11.7ZM103.4 8.80005C103.4 7.60005 103.1 6.40005 102.5 5.30005C101.8 3.80005 101.4 3.4 101.2 3L102.5 2.3999C103.9 4.1999 104.9 7.00005 105 8.30005L103.4 8.80005Z" fill="black" stroke="black" stroke-width="0.2835" stroke-miterlimit="10"/>
<path d="M41.2 21.7C41.1 22 41.1 22.1 40.7 23.5C40.2 25.2 39.7 26.2 39 27.5C38.4 28.6 38 29 37.7 29.3L36.3 28.6001C38.8 26.2001 39.7 22.1001 39.8 20.6001L41.5 21.1001C41.7 21.2001 41.8 21.2 41.8 21.3C41.7 21.5 41.7 21.5 41.2 21.7ZM47 29C46.8 27.8 46.5 26.7001 45.8 25.1001C45.3 23.8001 44.6 22.6001 43.7 21.6001L44.9 20.8C47 23.5 48.1 26.9001 48.5 28.6001L47 29Z" fill="black" stroke="black" stroke-width="0.2835" stroke-miterlimit="10"/>
<path d="M61.7 29.5C61.8 29.2 61.8 29.1 61.8 28.7H54.9C54.9 28.9 54.9 29.3 54.9 29.5H53.3C53.3 29.1 53.4 28.5 53.4 27.7C53.4 26.3 53.4 26.2 53.4 26V23.1001C53.4 22.7001 53.4 20.5001 53.3 20.1001C54.1 20.2001 55.9 20.2 56.8 20.2H59.8C60.8 20.2 62.3 20.2001 63.3 20.1001C63.2 20.8001 63.2 22.5 63.2 23.3V26.1001C63.2 26.4001 63.2 27.6 63.2 27.8C63.2 28.8 63.3 29.1 63.3 29.5H61.7V29.5ZM61.8 21.5H54.9V27.3999H61.8V21.5Z" fill="black" stroke="black" stroke-width="0.2835" stroke-miterlimit="10"/>
<path d="M77.8 23.1001C77.7 23.8001 77.2 25.9 76.4 27.3C76.1 27.8 74.5 30.3 72.6 31L71.2 30.1001C71.8 29.9001 72.9 29.5999 74.4 27.8999C75.2 26.9999 75.7 26.2 76.1 24.8C76.5 23.5 76.5 22.7 76.5 22.3H69.5V23.8999C69.5 24.0999 69.5 25.1 69.6 25.8H68.1C68.2 25 68.2 24.5 68.2 24.3V23V22.7C68.2 21.9 68.1 21.4 68.1 21.2C69.6 21.3 69.7 21.3 69.9 21.3H71.2H72.4V20.3C72.4 19.7 72.4 19.2001 72.3 18.6001L73.7 18.8C73.8 18.8 74.1 18.8001 74.1 19.1001C74.1 19.3001 73.9 19.3 73.8 19.3C73.7 19.8 73.7 20.4 73.7 20.7V21.3999H74.2C74.9 21.3999 75.6 21.3999 76.1 21.3999C76.6 21.3999 76.8 21.3001 77.1 21.1001L78.2 22C78 22.3 77.9 22.5001 77.8 23.1001Z" fill="black" stroke="black" stroke-width="0.2835" stroke-miterlimit="10"/>
<path d="M89.3 22.6001C89.1 22.6001 89 22.6 88.9 22.8C88.4 23.4 88 23.8 86.8 24.7V28.7C86.8 29.2 86.9 30.4 86.9 31H85.6C85.6 30.1 85.7 29.6 85.7 28.7V25.3999C84.5 26.1999 83.7 26.6 82.6 27.2L81.4 26.2C82.8 25.7 83.9 25.2 85.8 23.8C87.2 22.7 87.7 22 88.4 21.2L89.4 22C89.5 22.1 89.7 22.1999 89.7 22.3999C89.7 22.5999 89.6 22.6001 89.3 22.6001Z" fill="black" stroke="black" stroke-width="0.2835" stroke-miterlimit="10"/>
<path d="M95.5 29.8C95.5 29.9 95.4 30.1001 95.4 30.1001C95.4 30.2001 95.3 30.2 95.2 30.2C95.1 30.2 95.1 30.0999 94.9 29.8999L94.1 28.3999C96.3 28.0999 101.3 25.8999 104 22.3999L104.6 23.8C101.9 27.1 97.4 29 95.5 29.8ZM97.5 22.5C96.6 21.6 95.1 20.9001 94.4 20.6001L95.2 19.3C97.3 20.3 97.9 20.9 98.3 21.3L97.5 22.5Z" fill="black" stroke="black" stroke-width="0.2835" stroke-miterlimit="10"/>
</svg>
