<svg width="210" height="147" viewBox="0 0 210 147" fill="none" xmlns="http://www.w3.org/2000/svg">
<rect width="210" height="147" fill="white"/>
<path d="M72 46.9H40.5C28.1 46.9 18 57 18 69.4C18 81.8 28.1 91.9 40.5 91.9H72.4" stroke="#231815" stroke-width="1.8338" stroke-miterlimit="10"/>
<path d="M137.8 46.9H169.5C181.9 46.9 192 57 192 69.4C192 81.8 181.9 91.9 169.5 91.9H137.6" stroke="#231815" stroke-width="1.8338" stroke-miterlimit="10"/>
<path d="M162.1 40.7999C139.2 29.1999 104.9 27.2 104.9 27V105.9C104.9 106.4 127.2 104.1 129.1 103.8C137.4 102.5 145.7 100.5 153.6 97.2999L162.1 40.7999Z" fill="#C9CACA"/>
<path d="M47.7998 40.7999L56.2998 97.2999C64.0998 100.5 72.3998 102.5 80.7998 103.8C82.6998 104.1 105 106.4 105 105.9V27C105 27.1 70.7998 29.1999 47.7998 40.7999Z" fill="#C9CACA"/>
<path d="M55.8999 51.7L105 83.9L154 51.7L105 64.6L55.8999 51.7Z" fill="black"/>
<path d="M135.9 62.5H129.8V79.2999H135.9V62.5Z" fill="#D1007F"/>
<path d="M148.2 75.2H142V55.5L148.2 53.9V75.2Z" fill="#D1007F"/>
<path d="M142 59.5H135.9V70.7H142V59.5Z" fill="#D1007F"/>
<path d="M132.9 82.4C134.612 82.4 136 81.012 136 79.2999C136 77.5878 134.612 76.2 132.9 76.2C131.188 76.2 129.8 77.5878 129.8 79.2999C129.8 81.012 131.188 82.4 132.9 82.4Z" fill="#D1007F"/>
<path d="M139 70.7H135.9V73.7999C135.9 71.9999 137.3 70.7 139 70.7Z" fill="#D1007F"/>
<path d="M139 70.7C140.7 70.7 142.1 72.0999 142.1 73.7999V70.7H139Z" fill="#D1007F"/>
<path d="M145.1 78.2999C146.812 78.2999 148.2 76.912 148.2 75.2C148.2 73.4879 146.812 72.1 145.1 72.1C143.388 72.1 142 73.4879 142 75.2C142 76.912 143.388 78.2999 145.1 78.2999Z" fill="#D1007F"/>
<path d="M55.8999 51.7L105 83.9L154 51.7L105 64.6L55.8999 51.7Z" fill="black"/>
<path d="M86.7997 66.6L90.8997 58.5H82.6997L86.7997 66.6Z" fill="white"/>
<path d="M94.0997 68.7L98.1997 60.6H89.9998L94.0997 68.7Z" fill="white"/>
<path d="M101.7 70.7L105.8 62.6H97.5996L101.7 70.7Z" fill="white"/>
<path d="M123.1 66.6L119 58.5H127.2L123.1 66.6Z" fill="white"/>
<path d="M115.8 68.7L111.7 60.6H119.9L115.8 68.7Z" fill="white"/>
<path d="M108.2 70.7L104.1 62.6H112.3L108.2 70.7Z" fill="white"/>
<path d="M78.1997 73L82.5997 58.6L74.4998 56.5L78.1997 73Z" fill="white"/>
<path d="M131.7 73L127.4 58.6L135.4 56.5L131.7 73Z" fill="white"/>
<path d="M103.3 33.5L95.5999 45.2L103.3 49.9V33.5Z" fill="black"/>
<path d="M106.6 33.5L114.4 45.2L106.6 49.9V33.5Z" fill="black"/>
</svg>
