<svg width="210" height="147" viewBox="0 0 210 147" fill="none" xmlns="http://www.w3.org/2000/svg">
<rect width="210" height="147" fill="white"/>
<path d="M72 47.4H40.5C28.1 47.4 18 57.5 18 69.9C18 82.3 28.1 92.4 40.5 92.4H72.4" stroke="#231815" stroke-width="1.8338" stroke-miterlimit="10"/>
<path d="M137.8 47.4H169.5C181.9 47.4 192 57.5 192 69.9C192 82.3 181.9 92.4 169.5 92.4H137.6" stroke="#231815" stroke-width="1.8338" stroke-miterlimit="10"/>
<path d="M162.1 74.7L161.2 84.5C149.8 84.3 126.6 81.3 114.2 73.5C90.5 58.8 59.7 63.8 59.7 63.8H52L56 46.5L164.5 60.1L166.2 74.7H162.1Z" fill="white"/>
<path d="M167.3 81.4C160.6 82.1 133.5 83.9 114.4 72C90.7001 57.3 59.9001 62.3 59.9001 62.3H52.3L59.1 33L162.3 39.8L167.3 81.4Z" fill="black"/>
<path d="M114.4 72.8C90.7 58.1 59.9 63 59.9 63H45L38.4 95.3C40.6 98.1 41.6 99.4 43.8 102.2L153.7 106.9C156 104.9 157.4 103.7 159.7 101.6L161.4 82.6H154C142.6 82.5 126.8 80.5 114.4 72.8Z" fill="black"/>
<path d="M120.925 46.5749C121.711 45.7221 121.46 44.2114 120.363 43.2007C119.267 42.19 117.741 42.0619 116.955 42.9147C116.169 43.7675 116.42 45.2782 117.517 46.2889C118.613 47.2996 120.139 47.4277 120.925 46.5749Z" fill="white"/>
<path d="M110.998 45.885C112.221 45.0323 112.675 43.5698 112.012 42.6183C111.349 41.6668 109.819 41.5866 108.596 42.4393C107.373 43.2919 106.918 44.7545 107.582 45.706C108.245 46.6575 109.774 46.7376 110.998 45.885Z" fill="white"/>
<path d="M64.4 57.5V66.5" stroke="white" stroke-width="0.6729" stroke-miterlimit="10"/>
<path d="M57.5 58.1V67.1" stroke="white" stroke-width="0.6729" stroke-miterlimit="10"/>
<path d="M70.9 57V66" stroke="white" stroke-width="0.6729" stroke-miterlimit="10"/>
<path d="M77.4 57.4V66.4" stroke="white" stroke-width="0.6729" stroke-miterlimit="10"/>
<path d="M83.9 57.9V66.9" stroke="white" stroke-width="0.6729" stroke-miterlimit="10"/>
<path d="M90.4 58.7V67.7" stroke="white" stroke-width="0.6729" stroke-miterlimit="10"/>
<path d="M96.9 60.1V69.1" stroke="white" stroke-width="0.6729" stroke-miterlimit="10"/>
<path d="M103.4 62.3V71.3" stroke="white" stroke-width="0.6729" stroke-miterlimit="10"/>
<path d="M109.9 65.3V74.3" stroke="white" stroke-width="0.6729" stroke-miterlimit="10"/>
<path d="M116.5 68.8V77.8" stroke="white" stroke-width="0.6729" stroke-miterlimit="10"/>
<path d="M123 72.1V81.1" stroke="white" stroke-width="0.6729" stroke-miterlimit="10"/>
<path d="M129.5 74.2V83.2" stroke="white" stroke-width="0.6729" stroke-miterlimit="10"/>
<path d="M136 75.9V84.9" stroke="white" stroke-width="0.6729" stroke-miterlimit="10"/>
<path d="M142.5 77V86" stroke="white" stroke-width="0.6729" stroke-miterlimit="10"/>
<path d="M149 77.5V86.5" stroke="white" stroke-width="0.6729" stroke-miterlimit="10"/>
<path d="M155.3 77.8V86.8" stroke="white" stroke-width="0.6729" stroke-miterlimit="10"/>
</svg>
