<svg width="210" height="148" viewBox="0 0 210 148" fill="none" xmlns="http://www.w3.org/2000/svg">
<rect width="210" height="148" fill="white"/>
<path d="M72 46.6H40.5C28.1 46.6 18 56.7 18 69.1C18 81.5 28.1 91.6 40.5 91.6H72.4" stroke="#231815" stroke-width="1.8338" stroke-miterlimit="10"/>
<path d="M137.8 46.6H169.5C181.9 46.6 192 56.7 192 69.1C192 81.5 181.9 91.6 169.5 91.6H137.6" stroke="#231815" stroke-width="1.8338" stroke-miterlimit="10"/>
<path d="M161.1 38.6C155.1 31 146.4 29.1 136.9 31.7C121.2 35.9 117.7 38.5 103.9 38.5C90.1 38.5 86.6 35.9 70.9 31.7C61.4 29.1 52.6 31 46.7 38.6C38.3 49.3 41.8001 62.8 44.3001 74.7C46.9001 87 53 113.8 72.7001 106.5C82.6001 102.9 93.2001 102.2 103.8 102C114.4 102.1 125.1 102.8 134.9 106.5C154.6 113.8 160.7 87 163.3 74.7C166 62.8 169.4 49.2 161.1 38.6Z" fill="black"/>
<path d="M70.5 88.7L63.1 129.5L84.4 128L70.5 88.7Z" fill="white"/>
<path d="M137.2 88.7L144.6 129.5L123.3 128L137.2 88.7Z" fill="white"/>
<path d="M170.2 98.5L147.7 22L126 30.6L170.2 98.5Z" fill="white"/>
<path d="M37.5 98.5L60 22L81.7 30.6L37.5 98.5Z" fill="white"/>
<path d="M121.3 52.3L131.8 25.8H110.8L121.3 52.3Z" fill="white"/>
<path d="M109.5 52.4L120 25.9H99L109.5 52.4Z" fill="white"/>
<path d="M86.4 52.3L75.9 25.8H96.9L86.4 52.3Z" fill="white"/>
<path d="M98.2001 52.4L87.7001 25.9H108.7L98.2001 52.4Z" fill="white"/>
<path d="M143.1 56.9L170.2 98.5L156 50.4" fill="white"/>
<path d="M64.6 56.9L37.5 98.5L51.7 50.4" fill="white"/>
</svg>
