<svg width="210" height="148" viewBox="0 0 210 148" fill="none" xmlns="http://www.w3.org/2000/svg">
<rect width="210" height="148" fill="white"/>
<path d="M72 47.2676H40.5C28.1 47.2676 18 57.3676 18 69.7676C18 82.1676 28.1 92.2676 40.5 92.2676H72.4" stroke="#231815" stroke-width="1.8338" stroke-miterlimit="10"/>
<path d="M137.8 47.2676H169.5C181.9 47.2676 192 57.3676 192 69.7676C192 82.1676 181.9 92.2676 169.5 92.2676H137.6" stroke="#231815" stroke-width="1.8338" stroke-miterlimit="10"/>
<path d="M105 44.3676C109.75 44.3676 113.6 42.1737 113.6 39.4675C113.6 36.7613 109.75 34.5676 105 34.5676C100.25 34.5676 96.3999 36.7613 96.3999 39.4675C96.3999 42.1737 100.25 44.3676 105 44.3676Z" fill="black"/>
<path d="M170.5 69.1676C170.5 31.3676 132 26.1675 105 39.9675C77.6 26.5675 39.5 31.3676 39.5 69.1676C39.5 89.7676 64.5 119.168 105 119.168C145.5 119.168 170.5 89.8676 170.5 69.1676Z" fill="black"/>
<path d="M105.2 68.4675C105.2 73.9675 94 81.4675 80.3 81.4675C66.6 81.4675 55.4 73.8675 55.4 68.4675H55.3C55.3 79.3675 70.9 104.668 105.3 104.668C139.7 104.668 155.3 79.4675 155.3 68.4675C155.3 73.9675 144.1 81.4675 130.4 81.4675C116.7 81.4675 105.5 73.8675 105.5 68.4675" fill="#D30012"/>
<path d="M79 90.3676L82.6 80.2676H75.5L79 90.3676Z" fill="white"/>
<path d="M131.3 90.3676L134.9 80.2676H127.8L131.3 90.3676Z" fill="white"/>
<path d="M105 59.8676L114.7 48.1676H95.3L105 59.8676Z" fill="white"/>
<path d="M64.3 42.7676L89.5001 47.2676" stroke="white" stroke-width="0.5326" stroke-miterlimit="10"/>
<path d="M64.2 53.1676H89.5" stroke="white" stroke-width="0.5326" stroke-miterlimit="10"/>
<path d="M64.3 63.2676L89.5001 58.6676" stroke="white" stroke-width="0.5326" stroke-miterlimit="10"/>
<path d="M145.7 42.7676L120.5 47.2676" stroke="white" stroke-width="0.5326" stroke-miterlimit="10"/>
<path d="M145.7 53.1676H120.5" stroke="white" stroke-width="0.5326" stroke-miterlimit="10"/>
<path d="M145.7 63.2676L120.5 58.6676" stroke="white" stroke-width="0.5326" stroke-miterlimit="10"/>
</svg>
