<svg width="210" height="147" viewBox="0 0 210 147" fill="none" xmlns="http://www.w3.org/2000/svg">
<rect width="210" height="147" fill="white"/>
<path d="M72 46.9H40.5C28.1 46.9 18 57 18 69.4C18 81.8 28.1 91.9 40.5 91.9H72.4" stroke="#231815" stroke-width="1.8338" stroke-miterlimit="10"/>
<path d="M137.8 46.9H169.5C181.9 46.9 192 57 192 69.4C192 81.8 181.9 91.9 169.5 91.9H137.6" stroke="#231815" stroke-width="1.8338" stroke-miterlimit="10"/>
<path d="M162.1 40.8C139.2 29.2 104.9 27.2 104.9 27V105.9C104.9 106.4 127.2 104.1 129.1 103.8C137.4 102.5 145.7 100.5 153.6 97.3L162.1 40.8Z" fill="#80B01F"/>
<path d="M47.8 40.8L56.3 97.3C64.1 100.5 72.4 102.5 80.8 103.8C82.7001 104.1 105 106.4 105 105.9V27C105 27.2 70.8 29.2 47.8 40.8Z" fill="#80B01F"/>
<path d="M57.1001 42.2C77.9001 37.8 83.8001 64.2 105.1 64.2V88.7C105.1 88.7 93.9001 90.2 86.8001 76.7C68.4001 41.6 57.1001 42.2 57.1001 42.2Z" fill="black"/>
<path d="M152.9 42.2C132.1 37.8 126.2 64.2 104.9 64.2V88.7C104.9 88.7 116.1 90.2 123.2 76.7C141.5 41.6 152.9 42.2 152.9 42.2Z" fill="black"/>
<path d="M88.7002 48.4H81.2002V62.5H88.7002V48.4Z" fill="white"/>
<path d="M128.7 48.4H121.2V62.5H128.7V48.4Z" fill="white"/>
<path d="M96.5 34.8L103.1 55.8C103.8 58 106.2 58 106.9 55.8L113.5 34.8H96.5Z" stroke="#231815" stroke-width="0.2654" stroke-miterlimit="10"/>
</svg>
