<svg width="210" height="147" viewBox="0 0 210 147" fill="none" xmlns="http://www.w3.org/2000/svg">
<rect width="210" height="147" fill="white"/>
<path d="M72 46.9H40.5C28.1 46.9 18 57 18 69.4C18 81.8 28.1 91.9 40.5 91.9H72.4" stroke="#231815" stroke-width="1.8338" stroke-miterlimit="10"/>
<path d="M137.8 46.9H169.5C181.9 46.9 192 57 192 69.4C192 81.8 181.9 91.9 169.5 91.9H137.6" stroke="#231815" stroke-width="1.8338" stroke-miterlimit="10"/>
<path d="M162.2 40.8C139.3 29.2 105 27.2 105 27V105.9C105 106.4 127.3 104.1 129.2 103.8C137.5 102.5 145.8 100.5 153.7 97.3L162.2 40.8Z" fill="#7E9FB9"/>
<path d="M47.8999 40.8L56.3999 97.3C64.1999 100.5 72.4999 102.5 80.8999 103.8C82.7999 104.1 105.1 106.4 105.1 105.9V27C105.1 27.2 70.7999 29.2 47.8999 40.8Z" fill="#7E9FB9"/>
<path d="M131.1 75.7H125V92.5H131.1V75.7Z" fill="#D1007F"/>
<path d="M143.3 88.5H137.2V67.1L143.3 59.8V88.5Z" fill="#D1007F"/>
<path d="M137.2 67.1H131.1V83.9H137.2V67.1Z" fill="#D1007F"/>
<path d="M128 95.6C129.712 95.6 131.1 94.2121 131.1 92.5C131.1 90.7879 129.712 89.4 128 89.4C126.288 89.4 124.9 90.7879 124.9 92.5C124.9 94.2121 126.288 95.6 128 95.6Z" fill="#D1007F"/>
<path d="M134.2 83.9H131.1V87C131.1 85.3 132.5 83.9 134.2 83.9Z" fill="#D1007F"/>
<path d="M134.2 83.9C135.9 83.9 137.3 85.3 137.3 87V83.9H134.2Z" fill="#D1007F"/>
<path d="M140.3 91.6C142.012 91.6 143.4 90.2121 143.4 88.5C143.4 86.7879 142.012 85.4 140.3 85.4C138.588 85.4 137.2 86.7879 137.2 88.5C137.2 90.2121 138.588 91.6 140.3 91.6Z" fill="#D1007F"/>
<path d="M96.9999 46C99.8165 46 102.1 43.7167 102.1 40.9C102.1 38.0834 99.8165 35.8 96.9999 35.8C94.1832 35.8 91.8999 38.0834 91.8999 40.9C91.8999 43.7167 94.1832 46 96.9999 46Z" fill="black"/>
<path d="M112.4 44.3C114.278 44.3 115.8 42.7778 115.8 40.9C115.8 39.0223 114.278 37.5 112.4 37.5C110.522 37.5 109 39.0223 109 40.9C109 42.7778 110.522 44.3 112.4 44.3Z" fill="black"/>
<path d="M140.3 56.6H105.1H105H69.8L56 47.8L75.1 78.5C75.1 78.5 92.5 78.5 105 78.5C105 78.5 105 78.5 105.1 78.5C117.6 78.5 135 78.5 135 78.5L154.1 47.8L140.3 56.6Z" fill="black"/>
<path d="M98.0696 56.6835L89.4705 56.5542L89.3411 65.1533L97.9403 65.2826L98.0696 56.6835Z" fill="white"/>
<path d="M85.0582 56.296L76.5029 55.418L75.6249 63.9732L84.1802 64.8513L85.0582 56.296Z" fill="white"/>
<path d="M133.321 54.6325L124.852 56.1255L126.345 64.5947L134.814 63.1018L133.321 54.6325Z" fill="white"/>
<path d="M96.5156 72.5445L87.9482 73.2941L88.6978 81.8614L97.2651 81.1118L96.5156 72.5445Z" fill="white"/>
</svg>
