<svg width="210" height="147" viewBox="0 0 210 147" fill="none" xmlns="http://www.w3.org/2000/svg">
<rect width="210" height="147" fill="white"/>
<path d="M72 46.5739H40.5C28.1 46.5739 18 56.6739 18 69.0739C18 81.4739 28.1 91.5739 40.5 91.5739H72.4" stroke="#231815" stroke-width="1.8338" stroke-miterlimit="10"/>
<path d="M137.8 46.5739H169.5C181.9 46.5739 192 56.6739 192 69.0739C192 81.4739 181.9 91.5739 169.5 91.5739H137.6" stroke="#231815" stroke-width="1.8338" stroke-miterlimit="10"/>
<path d="M162.1 40.4739C139.2 28.8739 104.9 26.8738 104.9 26.6738V105.574C104.9 106.074 127.2 103.774 129.1 103.474C137.4 102.174 145.7 100.174 153.6 96.9739L162.1 40.4739Z" fill="white"/>
<path d="M47.9 40.4739L56.4 96.9739C64.2 100.174 72.5 102.174 80.9 103.474C82.8 103.774 105.1 106.074 105.1 105.574V26.6738C105 26.8738 70.8 28.8739 47.9 40.4739Z" fill="white"/>
<path d="M151.3 73.0739L110.9 80.5739L72.1001 73.0739H151.3Z" fill="black"/>
<path d="M165.139 25.9999L44.9662 50.7485L47.669 63.8725L167.841 39.1239L165.139 25.9999Z" fill="white" stroke="#231815" stroke-width="0.4901" stroke-miterlimit="10"/>
<path d="M161.695 45.6378L24.983 36.755L24.1142 50.1269L160.827 59.0097L161.695 45.6378Z" fill="white" stroke="#231815" stroke-width="0.5178" stroke-miterlimit="10"/>
<path d="M161.4 59.7738H46.7001V73.1738H161.4V59.7738Z" fill="white" stroke="#231815" stroke-width="0.4737" stroke-miterlimit="10"/>
<path d="M160.675 71.5291L36.739 93.6875L39.0974 106.878L163.033 84.72L160.675 71.5291Z" fill="white" stroke="#231815" stroke-width="0.4964" stroke-miterlimit="10"/>
<path d="M169.1 105.174L43.1001 81.1738L45.6001 67.9739L72.1001 73.0739L171.6 91.9739L169.1 105.174Z" fill="white" stroke="#231815" stroke-width="0.501" stroke-miterlimit="10"/>
</svg>
