<svg width="210" height="147" viewBox="0 0 210 147" fill="none" xmlns="http://www.w3.org/2000/svg">
<rect width="210" height="147" fill="white"/>
<path d="M72 47.3H40.5C28.1 47.3 18 57.4 18 69.8C18 82.2 28.1 92.3 40.5 92.3H72.4" stroke="#231815" stroke-width="1.8338" stroke-miterlimit="10"/>
<path d="M137.8 47.3H169.5C181.9 47.3 192 57.4 192 69.8C192 82.2 181.9 92.3 169.5 92.3H137.6" stroke="#231815" stroke-width="1.8338" stroke-miterlimit="10"/>
<path d="M132.8 102.4C152.24 102.4 168 86.6405 168 67.2001C168 47.7596 152.24 32 132.8 32C113.359 32 97.5999 47.7596 97.5999 67.2001C97.5999 86.6405 113.359 102.4 132.8 102.4Z" fill="white"/>
<path d="M47.9999 90C52.0316 90 55.3 86.7318 55.3 82.7001C55.3 78.6684 52.0316 75.4 47.9999 75.4C43.9683 75.4 40.7 78.6684 40.7 82.7001C40.7 86.7318 43.9683 90 47.9999 90Z" fill="white"/>
<path d="M141.1 75.4H48V90H141.1V75.4Z" fill="white"/>
<path d="M47.9999 88.5C44.7999 88.5 42.2 85.9001 42.2 82.7001C42.2 79.5001 44.7999 76.9 47.9999 76.9H51.8V88.5H47.9999Z" fill="#D30012"/>
<path d="M57.4999 102.5C60.9793 102.5 63.8 99.6795 63.8 96.2001C63.8 92.7207 60.9793 89.9 57.4999 89.9C54.0205 89.9 51.2 92.7207 51.2 96.2001C51.2 99.6795 54.0205 102.5 57.4999 102.5Z" fill="white"/>
<path d="M132.9 90H57.5V102.5H132.9V90Z" fill="white"/>
<path d="M57.4999 101C54.8999 101 52.7 98.9001 52.7 96.2001C52.7 93.6001 54.7999 91.4 57.4999 91.4H60.4999V100.9H57.4999V101Z" fill="#D30012"/>
<path d="M58.4999 60.9C62.5316 60.9 65.8 57.6318 65.8 53.6001C65.8 49.5684 62.5316 46.3 58.4999 46.3C54.4683 46.3 51.2 49.5684 51.2 53.6001C51.2 57.6318 54.4683 60.9 58.4999 60.9Z" fill="white"/>
<path d="M144.6 46.3H58.8V60.9H144.6V46.3Z" fill="white"/>
<path d="M58.4999 59.4C55.2999 59.4 52.7 56.8001 52.7 53.6001C52.7 50.4001 55.2999 47.8 58.4999 47.8H61.9999V59.4H58.4999Z" fill="#D30012"/>
<path d="M88.8999 46.6001C92.9316 46.6001 96.1999 43.3317 96.1999 39.3C96.1999 35.2684 92.9316 32 88.8999 32C84.8682 32 81.5999 35.2684 81.5999 39.3C81.5999 43.3317 84.8682 46.6001 88.8999 46.6001Z" fill="white"/>
<path d="M132.8 32H89.2998V46.6001H132.8V32Z" fill="white"/>
<path d="M88.8999 45.1001C85.6999 45.1001 83.0999 42.5 83.0999 39.3C83.0999 36.1 85.6999 33.5 88.8999 33.5H92.3999V45.1001H88.8999Z" fill="#D30012"/>
<path d="M141.1 60.9H48.7V75.5H141.1V60.9Z" fill="white"/>
<path d="M47.9999 75.4C52.0316 75.4 55.3 72.1318 55.3 68.1001C55.3 64.0684 52.0316 60.8 47.9999 60.8C43.9683 60.8 40.7 64.0684 40.7 68.1001C40.7 72.1318 43.9683 75.4 47.9999 75.4Z" fill="white"/>
<path d="M47.9999 73.9C44.7999 73.9 42.2 71.3001 42.2 68.1001C42.2 64.9001 44.7999 62.3 47.9999 62.3H52.0999V73.9H47.9999Z" fill="#D30012"/>
<path d="M47.5 75.4H91.5" stroke="#B6B7B8" stroke-width="0.7101" stroke-miterlimit="10"/>
<path d="M56.6001 60.9H91.2001" stroke="#B6B7B8" stroke-width="0.7101" stroke-miterlimit="10"/>
<path d="M86.7 46.3H121.3" stroke="#B6B7B8" stroke-width="0.7101" stroke-miterlimit="10"/>
<path d="M56.6001 90H91.2001" stroke="#B6B7B8" stroke-width="0.7101" stroke-miterlimit="10"/>
</svg>
