<svg width="210" height="147" viewBox="0 0 210 147" fill="none" xmlns="http://www.w3.org/2000/svg">
<rect width="210" height="147" fill="white"/>
<path d="M72 46.7286H40.5C28.1 46.7286 18 56.8286 18 69.2286C18 81.6286 28.1 91.7286 40.5 91.7286H72.4" stroke="#231815" stroke-width="1.8338" stroke-miterlimit="10"/>
<path d="M137.8 46.7286H169.5C181.9 46.7286 192 56.8286 192 69.2286C192 81.6286 181.9 91.7286 169.5 91.7286H137.6" stroke="#231815" stroke-width="1.8338" stroke-miterlimit="10"/>
<path d="M42 62.9287L104 44.1287L165.6 62.9287V68.3286L105 88.9287L42 68.3286V62.9287Z" fill="black"/>
<path d="M176 64.6286C176 72.5286 151.4 100.229 105 100.229C58.6 100.229 34 72.5286 34 64.6286C34 54.3286 63.8 29.2286 78.8 24.2286C92.9 19.5286 99.9 29.8286 105 29.8286C110 29.8286 117 19.6286 131.2 24.2286C146.2 29.1286 176 54.3286 176 64.6286ZM104 82.0286C114.3 82.0286 122.1 78.0286 136.5 73.1286C163.5 63.9286 163.5 63.9287 163.5 63.9287C138.4 63.9287 122.5 49.3286 104 49.3286C85.5 49.3286 69.7 63.9287 44.5 63.9287C44.5 63.9287 44.5 63.9286 71.5 73.1286C85.9 78.1286 93.7 82.0286 104 82.0286Z" fill="#D30012"/>
<path fill-rule="evenodd" clip-rule="evenodd" d="M130.3 128.929C139 117.829 141.9 97.2286 139.4 82.0286C137.8 71.9286 128.6 64.7287 118.5 65.9287C117.7 66.0287 116.9 66.1287 116.1 66.4287C113.1 67.2287 109.2 70.4286 104.8 70.3286C100.4 70.4286 96.5999 67.2287 93.5999 66.4287C92.7999 66.2287 91.9999 66.0287 91.1999 65.9287C81.1999 64.7287 72.0999 71.9287 70.3999 81.9287C67.8999 97.2287 70.8999 117.829 79.4999 129.029C85.2999 136.529 95.0999 140.629 104.7 140.829C114.6 140.429 124.3 136.429 130.3 128.929Z" fill="#D30012"/>
<path d="M105 73.9287V113.029" stroke="#231815" stroke-width="0.7363" stroke-miterlimit="10" stroke-linejoin="bevel"/>
<path d="M120.7 65.7286C129.9 65.7286 138 72.6287 139.4 81.9287C141.8 97.2287 138.9 117.729 130.3 128.829C124.3 136.329 114.6 140.429 104.9 140.629C95.3 140.329 85.6 136.329 79.7 128.829C71 117.729 68.1 97.0286 70.6 81.7286C72.1 72.4286 80 65.6287 89.2 65.6287C89.9 65.6287 90.6 65.6286 91.3 65.7286C92.1 65.8286 92.9 65.9286 93.7 66.2286C96.6 67.0286 100.3 70.1287 104.6 70.1287C104.7 70.1287 104.8 70.1287 104.9 70.1287C105 70.1287 105.1 70.1287 105.2 70.1287C109.5 70.1287 113.3 67.0286 116.2 66.2286C117 66.0286 117.8 65.8286 118.6 65.7286C119.3 65.7286 120 65.7286 120.7 65.7286ZM120.7 65.0287C120 65.0287 119.2 65.0287 118.5 65.1287C117.6 65.2287 116.8 65.4287 116 65.6287C114.9 65.9287 113.6 66.5286 112.3 67.2286C110.1 68.3286 107.7 69.5287 105.1 69.5287C105 69.5287 104.9 69.5287 104.9 69.5287C104.8 69.5287 104.7 69.5287 104.6 69.5287C102 69.5287 99.6 68.3286 97.5 67.2286C96.2 66.5286 95 65.9287 93.8 65.6287C93 65.4287 92.2 65.2287 91.3 65.1287C90.6 65.0287 89.8 65.0287 89.1 65.0287C79.6 65.0287 71.3 72.2286 69.8 81.7286C68.5 89.5286 68.7 98.5287 70.2 107.029C71.8 116.229 74.9 124.029 79.1 129.329C84.8 136.629 94.4 141.129 104.8 141.429C115.3 141.129 125.1 136.629 130.8 129.329C135 124.029 138 116.329 139.7 107.029C141.2 98.5287 141.4 89.5286 140.1 81.7286C138.7 72.2286 130.3 65.0287 120.7 65.0287Z" fill="#231815"/>
</svg>
