<svg width="200" height="200" viewBox="0 0 200 200" fill="none" xmlns="http://www.w3.org/2000/svg">
<g clip-path="url(#clip0)">
<path fill-rule="evenodd" clip-rule="evenodd" d="M135.074 63C135.074 82.8823 118.492 99 98.037 99C77.582 99 61 82.8823 61 63C61 43.1177 77.582 27 98.037 27C104.619 27 110.799 28.6687 116.156 31.5946C113.921 33.8128 112.543 36.85 112.543 40.2C112.543 46.9931 118.209 52.5 125.198 52.5C127.981 52.5 130.554 51.6266 132.644 50.1463C134.214 54.1383 135.074 58.4715 135.074 63ZM94.4936 76.4822C94.6885 76.8803 94.3899 77.34 93.9362 77.34H88.5754C88.3307 77.34 88.1092 77.1996 88.0105 76.9819L84.0759 68.3021C83.9773 68.0845 83.7557 67.944 83.511 67.944H81.3457C81.0048 67.944 80.7284 68.2126 80.7284 68.544V76.74C80.7284 77.0714 80.452 77.34 80.1111 77.34H75.1975C74.8566 77.34 74.5802 77.0714 74.5802 76.74V53.1C74.5802 52.7686 74.8566 52.5 75.1975 52.5H84.2099C90.0988 52.5 93.8765 55.128 93.8765 60.312C93.8765 63.311 92.6073 65.4156 90.3624 66.6256C90.061 66.7881 89.9237 67.1477 90.0718 67.4502L94.4936 76.4822ZM80.7284 62.376C80.7284 62.7074 81.0048 62.976 81.3457 62.976H83.4691C85.9506 62.976 87.7284 62.652 87.7284 60.312C87.7284 57.936 85.9506 57.468 83.4691 57.468H81.3457C81.0048 57.468 80.7284 57.7366 80.7284 58.068V62.376ZM107.675 72.2756C107.889 72.0336 108.252 71.9753 108.521 72.1582L111.653 74.2895C111.915 74.4676 111.996 74.8128 111.814 75.0679C110.486 76.9276 108.349 77.7 105.226 77.7C99.3745 77.7 96.856 74.028 96.856 69.564V67.044C96.856 61.464 99.819 58.98 104.634 58.98C110.004 58.98 112.412 61.968 112.412 67.584V69.108C112.412 69.4394 112.135 69.708 111.794 69.708H103.051C102.701 69.708 102.419 69.9904 102.451 70.3286C102.613 72.0378 103.24 73.164 105.263 73.164C106.667 73.164 107.179 72.8364 107.675 72.2756ZM106.791 65.477C106.559 63.9951 105.818 63.516 104.671 63.516C103.431 63.516 102.792 64.2317 102.542 65.4584C102.471 65.8041 102.761 66.108 103.123 66.108H106.204C106.558 66.108 106.845 65.8173 106.791 65.477ZM119.012 66.5996C114.487 66.6562 114.487 59.9438 119.012 60.0004C123.536 60.0569 123.546 66.6562 119.012 66.5996ZM118.714 77.841C114.19 77.8976 114.19 71.1852 118.714 71.2418C123.238 71.2983 123.248 77.8976 118.714 77.841Z" fill="black"/>
<ellipse cx="125.198" cy="40.2" rx="10.8025" ry="10.5" fill="#E7282B"/>
</g>
<path d="M55.6548 135.691L50.6215 125.597C53.2614 124.532 54.7749 122.438 54.7749 119.245C54.7749 114.438 51.2903 112 45.6939 112H37V135.691H41.9277V126.386H45.8698L50.2344 135.691H55.6548ZM41.9277 122.335V116.086H45.2363C48.1577 116.086 49.8472 116.773 49.8472 119.245C49.8472 121.717 48.1577 122.335 45.2363 122.335H41.9277Z" fill="black"/>
<path d="M68.8361 130.815C68.1674 131.742 67.569 132.292 65.7035 132.292C63.2045 132.292 62.4301 130.575 62.3949 128.206H72.4263V126.249C72.4263 121.03 70.1384 118.215 65.1755 118.215C60.5998 118.215 57.9248 120.721 57.9248 125.906V128.24C57.9248 132.67 60.459 136 65.7387 136C68.9065 136 70.948 135.176 72.1799 133.082L68.8361 130.815ZM65.2107 121.923C66.9002 121.923 67.8154 122.85 67.921 125.082H62.3949C62.5709 123.124 63.4157 121.923 65.2107 121.923Z" fill="black"/>
<path d="M81.6597 118.524H76.8728V123.227H81.6597V118.524ZM81.6597 131.021H76.8728V135.691H81.6597V131.021Z" fill="black"/>
<path d="M91.3071 112H86.6962V135.691H91.3775V121.099L96.5868 131.433H99.5786L104.858 120.996V135.691H109.575V112H104.893L98.1355 124.91L91.3071 112Z" fill="black"/>
<path d="M124.926 130.815C124.257 131.742 123.659 132.292 121.793 132.292C119.294 132.292 118.52 130.575 118.485 128.206H128.516V126.249C128.516 121.03 126.228 118.215 121.265 118.215C116.689 118.215 114.014 120.721 114.014 125.906V128.24C114.014 132.67 116.549 136 121.828 136C124.996 136 127.038 135.176 128.269 133.082L124.926 130.815ZM121.3 121.923C122.99 121.923 123.905 122.85 124.011 125.082H118.485C118.661 123.124 119.505 121.923 121.3 121.923Z" fill="black"/>
<path d="M142.923 130.815C142.255 131.742 141.656 132.292 139.791 132.292C137.292 132.292 136.517 130.575 136.482 128.206H146.513V126.249C146.513 121.03 144.226 118.215 139.263 118.215C134.687 118.215 132.012 120.721 132.012 125.906V128.24C132.012 132.67 134.546 136 139.826 136C142.994 136 145.035 135.176 146.267 133.082L142.923 130.815ZM139.298 121.923C140.987 121.923 141.903 122.85 142.008 125.082H136.482C136.658 123.124 137.503 121.923 139.298 121.923Z" fill="black"/>
<path d="M149.341 122.232H151.594V130.094C151.594 134.524 153.353 135.691 157.612 135.691H159.513V131.845H158.07C156.416 131.845 156.064 131.124 156.064 129.408V122.232H159.513V118.524H156.064V114.747H151.594V118.524H149.341V122.232Z" fill="black"/>
<path d="M68.381 145H63.4533V168.691H78.5883V164.639H68.381V145Z" fill="black"/>
<path d="M87.3493 145H82.4216V168.691H87.3493V145Z" fill="black"/>
<path d="M91.0766 145L99.5593 168.691H104.029L112.477 145H107.092L101.777 160.931L96.4619 145H91.0766Z" fill="black"/>
<path d="M115.865 145V168.691H131V164.639H120.793V158.459H129.944V154.408H120.793V149.086H131V145H115.865Z" fill="black"/>
<defs>
<clipPath id="clip0">
<rect width="75" height="72" fill="white" transform="translate(61 27)"/>
</clipPath>
</defs>
</svg>
