<svg width="412" height="124" viewBox="0 0 412 124" fill="none" xmlns="http://www.w3.org/2000/svg">
<path d="M411.2 123.5H7.89998L0.0999756 109.6L4.29998 0.400024H286L411.2 1.19995V123.5Z" fill="#CF6500"/>
<path d="M60.9 39.6L60.5 44.5H64.7V47.8H60.3L59.8 53H58.1L58.5 47.8H54.8L54.3 53H52.6L53 47.8H49.1V44.5H53.3L53.7 39.6H49.6V36.3H54L54.5 31.1H56.2L55.8 36.3H59.5L59.9 31.1H61.6L61.2 36.3H65.2V39.6H60.9ZM55.5 39.6L55.1 44.5H58.8L59.2 39.6H55.5Z" fill="white"/>
<path d="M92.1 54.5L90.3 52.1C94.6 51.5 97.6 49 97.6 45.7C97.6 44.9 97.3 41.7 93.8 41.1C92.8 43.9 91.2 46.5 89.2 48.8C89.4 49.4 89.4 49.5 89.9 50.7L87.4 52.4C87 51.5 86.9 51.4 86.8 50.9C85.7 51.8 84 53.1 81.8 53.1C79.7 53.1 78.1 51.9 78.1 49C78.1 44.8 81.2 41.1 85.4 39.7C85.3 38.6 85.5 37.1 85.6 36.4C82.6 36.7 81.8 36.7 80.6 36.7L79.5 33.8C80.3 34 81.1 34.2 83.5 34.2C84.4 34.2 85 34.2 85.7 34.1C86 31.2 86.1 30.9 86.5 28.5L89.6 29.3C90.1 29.4 90.2 29.5 90.2 29.7C90.2 30 90.1 30.1 89.3 30.6C89.1 31.5 88.9 32.1 88.6 33.7C92.3 33.2 94.2 32.6 97 31.4L96.8 34.2C93.6 35 91.9 35.4 88.2 36C87.9 37.4 87.9 37.9 87.9 38.9C88.8 38.6 89.5 38.4 91.7 38.4C91.9 37.4 92 37.1 92 36.6L95 37C94.9 37.5 94.8 37.6 94.5 38.8C95.5 39 97.2 39.6 98.6 41.2C100 42.8 100.3 44.6 100.3 45.8C100.4 49.1 97.8 53.2 92.1 54.5ZM85.4 42.2C84.5 42.7 83.9 43 82.8 44.2C81.8 45.3 80.9 46.7 80.9 48.7C80.9 50.3 82.2 50.4 82.5 50.4C83 50.4 83.7 50.2 84.2 49.9C85.1 49.4 85.6 48.8 86.1 48.3C85.7 46.2 85.5 43.3 85.4 42.2ZM87.9 41.2C88.1 43.8 88.2 44.4 88.4 45.9C89.8 44 90.6 42.3 91.1 40.7C89.7 40.7 89.1 40.8 87.9 41.2Z" fill="white"/>
<path d="M122.2 36.1C120.7 36.6 119.4 36.9 116.5 37.3C116.1 38.5 114.3 44 113.9 45.1C112.4 49 111.3 51.5 110.2 53.7L107.1 52.6C109.4 49.2 112.1 43.4 113.5 37.7C112.8 37.8 112 37.9 110.6 37.9C109.6 37.9 109 37.8 108.2 37.8V35C109 35.1 110.2 35.3 111.6 35.3C112.7 35.3 113.4 35.2 114.1 35.1C114.4 34 114.6 33.2 115.1 28.7L118.5 29.2C119 29.3 119.3 29.3 119.3 29.7C119.3 30.1 119.1 30.2 118.3 30.4C117.8 32.3 117.6 32.9 117.2 34.8C118.6 34.7 119.7 34.4 122.4 33.3L122.2 36.1ZM129.4 53.6C128.2 53.7 127.2 53.7 126.4 53.7C120.3 53.7 119.2 53.2 118.2 52.6C117.8 52.3 117.1 51.8 117.1 50.8C117.1 49 118.6 47.3 119.1 46.8L121.3 47.9C120.6 48.5 119.8 49.4 119.8 50C119.8 51.2 123.6 51.2 124.7 51.2C128 51.2 128.8 51 129.8 50.7L129.4 53.6ZM129.9 41.4C129.3 41.2 128.3 40.9 125.7 40.9C122.7 40.9 121.3 41.2 120.4 41.4L120.6 38.8C121.6 38.7 123 38.7 125.1 38.7C127.2 38.7 128.5 38.8 129.9 38.8V41.4Z" fill="white"/>
<path d="M153.6 51.9C151.1 53.5 148.7 53.9 142.7 54.1L141.3 51C144.4 51 146.8 51 148.9 50.7C151.5 50.4 154 48.4 154 45.8C154 45 153.6 41.9 149.8 41.9C146.4 41.9 143.6 44.2 141.5 46.6L138.7 45.4C138.8 44.8 139.1 42.3 139.2 41.7C139.6 39.3 140 36.2 140.6 34L143.8 34.8C144.1 34.9 144.4 35 144.4 35.3C144.4 35.6 144.1 35.7 144 35.8C143.6 36 143.5 36.1 143.2 36.2C142.4 38.8 142 41.2 141.8 42.5C144.4 40.6 147 39.3 150.1 39.3C153 39.3 157 41 157 45.7C156.9 48.1 156.1 50.2 153.6 51.9ZM150.7 34.3C147.2 32.3 143.8 31.9 142.2 31.8L143.2 29.1C146.2 29.4 149.6 30.4 152 31.5L150.7 34.3Z" fill="white"/>
<path d="M181.3 50.9C179 52.9 175.9 53.6 174.4 53.6C172.6 53.6 170.5 52.9 169.1 51.2C167.8 49.6 167.6 48.2 167.6 45.5C167.6 44 167.9 37.3 167.9 35.9C167.9 33.9 167.8 30.9 167.6 29.1L171 29.6C171.7 29.7 172 29.8 172 30.1C172 30.4 171.9 30.4 171.1 31C171 31.7 170.9 32.5 170.8 33.7C170.7 35.9 170.4 43.4 170.4 44.6C170.4 47.4 170.5 48.3 171.2 49.2C172.1 50.5 173.7 50.9 174.7 50.9C176.2 50.9 178.6 50.1 180.2 48.2C182.2 45.9 183.1 43.6 183.4 42.4L185.7 44.6C184.7 46.9 183.3 49.2 181.3 50.9Z" fill="white"/>
<path d="M199.3 52C197.7 52 196.4 50.5 195.8 49.9C193.6 47.2 192.6 44.2 192.6 39.4C192.6 38.2 192.7 37.7 193.2 32.8C193.2 32.7 193.3 32.1 193.3 32L196 33C196.6 33.2 196.9 33.3 196.9 33.6C196.9 33.9 196.6 34 196.1 34.2C195.9 35.1 195.4 36.9 195.4 39.5C195.4 44.4 197.4 48.1 198.9 48.1C200.4 48.1 201.2 44.7 201.6 43.1L203.3 44.9C202.8 47.7 201.6 52 199.3 52ZM214 45.7C213.9 43.1 213.3 40.6 212.2 38.3C210.6 35 210 34.2 209.4 33.5L212.1 32.2C215.2 36 217.2 42 217.3 44.7L214 45.7Z" fill="white"/>
<path d="M233 34.9C232.9 35.4 232.8 35.7 232 38.7C231 42.3 230 44.5 228.3 47.2C226.9 49.5 226.1 50.5 225.5 51.1L222.6 49.6C228 44.5 229.9 35.8 230.1 32.5L233.6 33.5C234.1 33.6 234.2 33.7 234.2 34C234.1 34.5 234 34.5 233 34.9ZM245.5 50.4C245 47.8 244.5 45.4 243 42C241.9 39.3 240.5 36.7 238.6 34.4L241.1 32.7C245.5 38.4 248 45.8 248.7 49.3L245.5 50.4Z" fill="white"/>
<path d="M273.5 51.5C273.6 50.9 273.6 50.7 273.7 49.7H259.1C259.1 50.2 259.1 50.9 259.2 51.4H255.8C255.9 50.6 256 49.3 256 47.5C256 44.6 256 44.3 256 43.9V37.7C256 36.8 255.9 32.2 255.9 31.4C257.7 31.6 261.4 31.6 263.3 31.6H269.7C271.8 31.6 275 31.6 277.1 31.4C277 33 276.9 36.5 276.9 38.2V44.1C276.9 44.7 277 47.3 277 47.8C277 49.9 277.1 50.7 277.3 51.3H273.5V51.5ZM273.8 34.4H259V47H273.8V34.4Z" fill="white"/>
<path d="M305.7 38C305.4 39.6 304.4 44 302.7 46.9C302.1 47.9 298.7 53.2 294.5 54.8L291.6 52.8C292.8 52.4 295.2 51.7 298.3 48.1C299.9 46.2 301.1 44.5 302 41.5C302.9 38.7 302.9 37.1 302.9 36.1H288V39.5C288 39.9 288 42 288.2 43.5H284.9C285.1 41.7 285.2 40.7 285.2 40.4V37.6V37C285.2 35.2 285.1 34.3 284.9 33.7C288.1 33.9 288.4 33.9 288.8 33.9H291.6H294.2V31.7C294.2 30.5 294.1 29.3 294.1 28.1L297.2 28.5C297.5 28.5 298 28.6 298 29C298 29.4 297.5 29.5 297.3 29.5C297.1 30.6 297.1 31.9 297.1 32.4V33.9H298.2C299.7 33.9 301.3 33.9 302.2 33.8C303.2 33.7 303.7 33.6 304.2 33.2L306.5 35.2C306 36.2 305.9 36.7 305.7 38Z" fill="white"/>
<path d="M329.9 36.8C329.5 36.8 329.3 36.9 329 37.2C327.9 38.4 327.1 39.3 324.5 41.3V49.9C324.5 50.9 324.6 53.6 324.7 54.8H322C322.1 53 322.1 51.8 322.1 50V43C319.5 44.8 317.9 45.6 315.5 46.8L313 44.7C316 43.5 318.4 42.6 322.4 39.6C325.5 37.2 326.5 35.8 327.9 34L330 35.7C330.2 35.9 330.6 36.2 330.6 36.5C330.6 36.7 330.5 36.8 329.9 36.8Z" fill="white"/>
<path d="M342.3 52.2C342.2 52.3 342.1 52.8 342 52.9C341.9 53 341.8 53.1 341.7 53.1C341.5 53.1 341.4 53 341.1 52.4L339.5 49.3C344.1 48.7 354.9 44 360.6 36.6L361.8 39.5C355.8 46.3 346.4 50.4 342.3 52.2ZM346.4 36.7C344.4 34.8 341.3 33.2 339.9 32.6L341.6 29.9C346.1 32 347.4 33.3 348.2 34.1L346.4 36.7Z" fill="white"/>
<path d="M133.8 72.8C131.6 78.1 131.4 83.8 131.4 85.2C131.4 87.2 131.6 88.5 131.8 89.5C132.1 89 132.3 88.5 132.6 87.5C133 86.2 133 86.1 133.1 85.7L134.6 87C134.4 87.6 133 91.7 132.6 94.1L130.3 94.5C129.2 90.7 129 87.3 129 84.7C129 82.1 129.2 80.3 130 75.7C130.4 73.6 130.7 72.3 131 70.9L134.3 71.6C134.5 71.6 134.7 71.7 134.7 72C134.7 72.3 134.7 72.3 133.8 72.8ZM151.1 92.3C150.2 91.4 148.7 90.3 147 89.7C147.3 93.1 144.6 94.1 142.3 94.1C138.9 94.1 136.6 92.5 136.6 90.2C136.6 88.4 138.1 87.3 139 87C140.8 86.3 143 86.3 143.3 86.3C143.8 86.3 144 86.3 144.2 86.4C144 84 144 83.3 144 78.4C142.2 78.6 141.4 78.7 140 78.7C138.9 78.7 138.2 78.6 137.7 78.6V76C138.4 76.1 139.7 76.4 141.2 76.4C142 76.4 142.8 76.3 144 76.2C144 75.7 144.1 72.8 144.1 72C144.1 71.5 144.1 71.3 144.1 70.8L147.8 71.2C147.9 71.2 148.3 71.2 148.3 71.6C148.3 71.9 148.2 71.9 147.5 72.4C147.3 73.4 147.1 74.1 147 75.8C147.9 75.6 149.3 75.3 150.8 74.7V77.2C148.7 77.9 147.1 78.1 146.9 78.2C146.9 78.5 146.9 80.5 146.9 80.7C146.9 82.8 147 85.1 147.2 87.2C148.8 87.7 150.8 88.4 152.5 89.8L151.1 92.3ZM142.4 88.7C140.5 88.7 139.4 89.3 139.4 90.1C139.4 91 140.5 91.6 141.9 91.6C143 91.6 143.8 91.1 144.1 90.5C144.3 90 144.2 89.6 144.2 88.9C143.7 88.8 143.1 88.7 142.4 88.7Z" fill="white"/>
<path d="M174.5 92.3C172.6 93.7 170.4 94.5 168 94.5C166.4 94.5 164.7 93.8 163.6 92.9C161.4 91 161.4 88.7 161.4 87.7C161.4 85.8 161.7 76.9 161.7 75.5C161.7 72.5 161.5 71 161.4 70.1L165.1 70.6C165.3 70.6 165.8 70.7 165.8 71.1C165.8 71.4 165.7 71.4 164.9 71.9C164.8 73.1 164.6 74.7 164.5 77.2C164.3 82.9 164.2 85.5 164.2 86.4C164.2 87.8 164.2 91.7 168.6 91.7C171.9 91.7 175.2 88.9 177.4 83.4L179.6 85.7C177.7 89.4 176.1 91.1 174.5 92.3ZM175.9 77.9C175.2 77.2 174.4 76.4 172.4 75L174 73.5C175.7 74.5 177.1 76 177.4 76.4L175.9 77.9ZM178.8 74.9C177.9 73.9 177.2 73.2 175.6 72.1L177 70.7C177.9 71.3 179 72.1 180.4 73.6L178.8 74.9Z" fill="white"/>
<path d="M207.1 92.2C204.5 94.2 201.5 95 200.1 95.3L198.4 92.5C204.9 92 207.8 87.9 207.8 84.1C207.8 80.3 204.6 77.2 201.6 77.4C200.7 80.4 199.8 83.4 197.8 86.6C198.4 87.5 198.9 88.1 199.5 88.8L197.5 90.9C197.1 90.4 196.7 89.9 196.1 89C195.6 89.5 194.2 91.2 192.5 92.1C191.8 92.5 191.3 92.6 190.5 92.6C187.5 92.6 186.7 89.7 186.7 87.5C186.7 83.8 188.6 80.2 191.1 78.1C190.5 76.2 190.2 74.4 189.8 72.2L192.7 71.2C192.7 72.7 192.6 73.7 193.3 76.5C195.9 75 198.2 74.9 199.2 74.8C199.2 74.4 199.3 74.1 199.5 72.1C199.6 71.3 199.6 70.6 199.6 69.7L203.1 70.6C203.3 70.7 203.3 70.8 203.3 70.9C203.3 71.2 202.8 71.7 202.6 71.8C202.3 72.6 202.3 72.8 202 74.8C202.9 74.9 204 75 205.4 75.8C208.4 77.4 210.5 80.6 210.5 84.3C210.7 86.7 209.9 90 207.1 92.2ZM192.2 81C189.9 83.6 189.6 85.8 189.6 87.1C189.6 89.7 190.4 90 191.1 90C192.2 90 193.9 88 194.9 86.8C194.1 85.5 193.5 84.3 192.2 81ZM194.2 79.2C194.8 80.9 195.6 82.6 196.5 84.2C197.9 81.6 198.3 80.1 198.8 77.5C198 77.6 196.3 77.8 194.2 79.2Z" fill="white"/>
<path d="M238.1 94C234.1 90.8 231.2 90 229.8 89.7C229.8 91 229.8 92.4 228.9 93.3C227.6 94.5 225 95 223.4 95C220.9 95 216.6 93.9 216.6 90.6C216.6 87.6 220.1 86.1 223.9 86.1C225 86.1 226.2 86.2 226.8 86.2C226.6 83.5 226.5 80.5 226.5 77.6C226.4 72.3 226.4 71.7 226.3 70L230.4 70.4C230.6 70.4 230.9 70.5 230.9 70.9C230.9 71.2 230.8 71.3 229.8 72.1C229.6 73.5 229.4 75 229.4 76.5C231.1 76.5 234.9 76.6 238.2 75.3V78.2C235.7 79 232.1 79 229.4 79C229.4 83 229.4 84.2 229.6 86.7C231.5 87.1 233.4 87.7 235.1 88.5C236.3 89 238 90 239.4 90.8L238.1 94ZM223.9 88.6C222.5 88.6 221.1 88.8 220.3 89.3C219.9 89.5 219.4 89.8 219.4 90.6C219.4 92.3 222.5 92.4 223.1 92.4C227.1 92.4 226.9 90.2 226.8 88.9C226.2 88.8 225.2 88.6 223.9 88.6Z" fill="white"/>
<path d="M262 92.1C258.8 95.2 255.9 95.9 254.6 96.2L252.5 93.4C253.8 93.2 256.5 92.9 259.1 90.8C261.6 88.8 263 85.9 263 83.2C263 81.3 262.2 79.1 259.2 79.1C257.4 79.1 253.5 80.3 250.5 82.5C250.4 82.7 250.3 83 250 83C249.7 83 249.5 82.7 249.3 82.1L248.2 79.7C254.9 77.3 257.6 76.3 260 76.3C260.4 76.3 263.1 76.3 264.5 78.3C265.5 79.7 266 81.2 266 82.9C266 85.4 265.1 89.1 262 92.1ZM261.9 73.1C261.4 73.1 260.8 73 259.1 73.6C257.3 74.2 256.8 74.5 256.3 74.9L254.7 73.8C255 73.7 256.3 73 256.5 72.8C254.4 72.3 254.2 72.3 253.8 72.2C252.3 71.7 252.1 71.7 251.9 71.6L252.3 69C255.4 70.2 257.7 70.6 260.9 70.6C261.4 70.6 261.7 70.5 262.3 70.4L261.9 73.1Z" fill="white"/>
<path d="M278 95.7C275.6 95.7 273.6 93.7 273.6 91.2C273.6 88.7 275.6 86.7 278 86.7C280.4 86.7 282.4 88.7 282.4 91.2C282.4 93.7 280.4 95.7 278 95.7ZM278 88.1C276.3 88.1 274.9 89.5 274.9 91.2C274.9 92.9 276.3 94.3 278 94.3C279.7 94.3 281.1 92.9 281.1 91.2C281.1 89.5 279.6 88.1 278 88.1Z" fill="white"/>
</svg>
