<svg width="680" height="46" viewBox="0 0 680 46" fill="none" xmlns="http://www.w3.org/2000/svg">
<path d="M221.379 40.5862H203.986V7.20361H220.677V13.7044H210.662V19.5025H215.933V26.0032H210.662V34.0854H221.379V40.5862Z" fill="#D06500"/>
<path d="M195.376 40.5862H189.402L177.104 22.3136C176.225 21.0837 175.171 19.3268 174.819 18.624C174.819 19.8539 174.995 24.0706 174.995 26.0032V40.7618H168.495V7.37927H174.819L186.591 24.949C187.47 26.1789 188.524 27.9359 188.875 28.6387C188.875 27.4088 188.7 23.1921 188.7 21.2594V7.20361H195.201V40.5862H195.376Z" fill="#D06500"/>
<path d="M263.371 7.20361L256.344 40.5862H249.842L245.802 23.3678C245.275 21.4351 244.923 18.7997 244.571 17.5698C244.396 18.7997 243.869 21.2594 243.518 23.3678L239.301 40.5862H232.976L225.948 7.20361H232.976L235.962 23.5435C236.314 25.1248 236.665 27.5845 236.841 28.9901C237.017 27.5845 237.544 25.1248 238.071 23.5435L241.936 7.20361H247.734L251.775 23.5435C252.127 25.1248 252.654 27.5845 253.005 28.9901C253.181 27.5845 253.532 25.1248 253.884 23.5435L256.87 7.20361H263.371Z" fill="#D06500"/>
<path d="M337.516 45.33L346.476 39.1806L363.167 45.1543L379.332 0L356.491 11.2446L350.342 4.39244L337.516 13.353L324.865 4.39244L318.54 11.2446L295.699 0L311.864 45.1543L328.555 39.1806L337.516 45.33Z" fill="#040000"/>
<path d="M279.359 24.9491C279.359 23.1922 280.238 17.7456 287.266 17.7456H323.987V11.9475H286.914C276.724 11.9475 273.21 19.8539 273.21 24.7735C273.21 29.693 276.724 37.5994 286.914 37.5994H325.392V31.8014H287.266C280.238 31.9771 279.359 26.5304 279.359 24.9491Z" fill="#040000"/>
<path d="M395.671 24.9491C395.671 23.1922 394.793 17.7456 387.765 17.7456H351.044V11.9475H388.116C398.307 11.9475 401.82 19.8539 401.82 24.7735C401.82 29.693 398.307 37.5994 388.116 37.5994H349.638V31.8014H387.765C394.793 31.9771 395.671 26.5304 395.671 24.9491Z" fill="#040000"/>
<path d="M622.497 40.0592H605.103V6.67664H621.795V13.1775H611.78V18.9755H617.05V25.4763H611.78V33.5584H622.497V40.0592V40.0592Z" fill="#D06500"/>
<path d="M646.568 40.0592H629.173V6.67664H645.865V13.1775H635.85V18.9755H641.121V25.4763H635.85V33.5584H646.568V40.0592V40.0592Z" fill="#D06500"/>
<path d="M440.65 40.0592H433.974V26.0034H420.269V40.0592H413.593V6.67664H420.269V19.5026H433.974V6.67664H440.65V40.0592Z" fill="#D06500"/>
<path d="M478.425 40.0592H471.045L468.41 32.6799H456.287L453.652 40.0592H446.448L459.274 6.67664H465.775L478.425 40.0592ZM466.126 26.3548L464.018 20.3811C463.315 18.4484 462.612 16.34 462.436 15.1102C462.085 16.34 461.382 18.2727 460.855 20.3811L458.747 26.3548H466.126Z" fill="#D06500"/>
<path d="M598.602 6.67664L591.574 40.0592H585.074L581.032 22.8409C580.505 20.9082 580.154 18.2727 579.803 17.0428C579.627 18.2727 579.1 20.7325 578.748 22.8409L574.532 40.0592H568.207L561.179 6.67664H568.207L571.193 23.0166C571.544 24.5978 571.896 27.0576 572.071 28.4631C572.247 27.0576 572.775 24.5978 573.302 23.0166L577.167 6.67664H582.965L587.006 23.0166C587.357 24.5978 587.885 27.0576 588.236 28.4631C588.412 27.0576 588.763 24.5978 589.114 23.0166L592.102 6.67664H598.602Z" fill="#D06500"/>
<path d="M679.599 40.0592H673.626L661.327 21.7867C660.448 20.5568 659.393 18.7998 659.042 18.097C659.042 19.3269 659.218 23.5436 659.218 25.4763V40.2349H652.718V6.85234H659.042L670.814 24.4221C671.693 25.652 672.747 27.409 673.098 28.1118C673.098 26.8819 672.923 22.6651 672.923 20.7325V6.67664H679.423V40.0592H679.599Z" fill="#D06500"/>
<path d="M498.806 40.2349H484.399V6.85229H491.076V33.5584H498.806V40.2349Z" fill="#D06500"/>
<path d="M520.417 40.2349H506.01V6.85229H512.686V33.5584H520.417V40.2349Z" fill="#D06500"/>
<path d="M540.798 33.9097C535.351 33.9097 530.958 29.5173 530.958 24.0706C530.958 18.624 535.351 14.2316 540.798 14.2316C546.244 14.2316 550.637 18.624 550.637 24.0706C550.637 29.5173 546.244 33.9097 540.798 33.9097ZM540.798 40.9376C550.11 40.9376 557.489 33.3826 557.489 24.2463C557.489 14.9344 549.934 7.55505 540.798 7.55505C531.661 7.55505 524.106 15.1101 524.106 24.2463C524.106 33.3826 531.661 40.9376 540.798 40.9376Z" fill="#040000"/>
<path d="M538.689 31.6257C541.406 31.6257 543.609 29.4231 543.609 26.7061C543.609 23.9892 541.406 21.7866 538.689 21.7866C535.972 21.7866 533.77 23.9892 533.77 26.7061C533.77 29.4231 535.972 31.6257 538.689 31.6257Z" fill="#040000"/>
<path d="M27.0577 40.4105H20.3811V26.3547H6.6766V40.4105H0V7.02795H6.6766V19.8539H20.3811V7.02795H27.0577V40.4105Z" fill="#D06500"/>
<path d="M53.4123 40.4105H36.0179V7.02795H52.7092V13.5287H42.6945V19.3268H47.9655V25.8276H42.6945V33.9097H53.4123V40.4105Z" fill="#D06500"/>
<path d="M76.4286 40.0592H62.0215V6.67664H68.6981V33.3827H76.4286V40.0592V40.0592Z" fill="#D06500"/>
<path d="M98.0393 40.0592H83.6321V6.67664H90.3087V33.3827H98.0393V40.0592V40.0592Z" fill="#D06500"/>
<path d="M118.245 14.2317C123.691 14.2317 128.084 18.6241 128.084 24.0707C128.084 29.5173 123.691 33.9098 118.245 33.9098C112.798 33.9098 108.405 29.5173 108.405 24.0707C108.405 18.6241 112.798 14.2317 118.245 14.2317ZM118.245 7.37939C108.933 7.37939 101.553 14.9344 101.553 24.0707C101.553 33.3827 109.108 40.762 118.245 40.762C127.381 40.762 134.936 33.207 134.936 24.0707C134.936 14.7587 127.381 7.37939 118.245 7.37939Z" fill="#040000"/>
<path d="M120.353 26.5304C123.07 26.5304 125.273 24.3278 125.273 21.6108C125.273 18.8938 123.07 16.6913 120.353 16.6913C117.636 16.6913 115.433 18.8938 115.433 21.6108C115.433 24.3278 117.636 26.5304 120.353 26.5304Z" fill="#040000"/>
<path d="M148.816 20.7324L147.762 28.6388H143.194L142.14 20.7324V7.02795H148.816V20.7324V20.7324ZM149.519 40.9376H141.437V32.8555H149.519V40.9376Z" fill="#D06500"/>
</svg>
