<svg width="776" height="602" viewBox="0 0 776 602" fill="none" xmlns="http://www.w3.org/2000/svg">
<path d="M406.15 258.97H355.216V161.732H404.165V180.915H374.729V197.783H389.944V216.635H374.729V240.118H406.15V258.97Z" fill="#D06500"/>
<path d="M330.079 258.97H312.55L276.83 205.721C274.515 202.083 271.208 197.121 269.885 194.806C269.885 198.444 270.215 210.682 270.215 215.974V258.97H251.033V161.732H269.554L303.951 213.328C306.266 216.966 309.573 221.927 310.896 224.242C310.896 220.604 310.566 208.367 310.566 203.075V162.063H329.748V258.97H330.079Z" fill="#D06500"/>
<path d="M528.524 161.732L508.348 258.97H489.166L477.259 209.028C475.936 203.075 474.613 195.798 473.951 192.491C473.621 196.129 472.298 203.406 470.644 209.028L458.407 258.97H440.216L420.041 161.732H440.216L448.815 209.028C449.807 213.658 450.8 220.935 451.131 224.904C451.792 220.935 453.446 213.658 454.438 209.028L465.683 161.732H482.551L494.127 209.028C495.119 213.658 496.773 220.935 497.434 224.904C497.765 220.935 499.088 213.658 499.749 209.028L508.348 161.732H528.524Z" fill="#D06500"/>
<path d="M387.96 601.948L415.411 583.096L467.006 601.617L515.956 463.037L446.17 497.765L426.987 476.597L387.96 504.38L348.932 476.597L329.749 497.765L259.963 463.037L309.243 601.617L360.508 583.096L387.96 601.948Z" fill="#040000"/>
<path d="M210.021 539.438C210.021 534.146 212.667 517.609 234.165 517.609H346.617V500.08H233.172C202.083 500.08 191.5 524.224 191.5 539.438C191.5 554.652 202.083 578.796 233.172 578.796H351.247V561.267H234.165C212.336 561.267 210.021 544.73 210.021 539.438Z" fill="#040000"/>
<path d="M566.228 539.438C566.228 534.146 563.583 517.609 542.085 517.609H429.633V500.08H543.077C574.166 500.08 584.75 524.224 584.75 539.438C584.75 554.652 574.166 578.796 543.077 578.796H425.002V561.267H542.085C563.583 561.267 566.228 544.73 566.228 539.438Z" fill="#040000"/>
<path d="M609.555 419.71H558.622V322.472H607.571V341.655H578.135V358.523H593.349V377.375H578.135V400.858H609.555V419.71Z" fill="#D06500"/>
<path d="M680.003 419.71H629.069V322.472H678.02V341.655H648.582V358.523H663.797V377.375H648.582V400.858H680.003V419.71V419.71Z" fill="#D06500"/>
<path d="M79.0475 419.71H59.5333V378.698H19.5142V419.71H0V322.472H19.5142V359.846H59.5333V322.472H79.0475V419.71Z" fill="#D06500"/>
<path d="M188.854 419.71H167.355L159.748 397.881H124.028L116.421 419.71H95.5849L132.958 322.472H151.811L188.854 419.71ZM153.133 379.69L146.85 362.161C144.865 356.538 142.881 350.585 141.889 346.947C140.896 350.585 138.912 356.538 136.927 362.161L130.643 379.69H153.133Z" fill="#D06500"/>
<path d="M539.769 322.472L519.594 419.71H500.411L488.504 369.768C487.181 363.815 485.858 356.538 485.197 353.231C484.866 356.869 483.543 364.146 481.889 369.768L469.652 419.71H451.461L431.287 322.472H451.461L460.061 369.768C461.053 374.398 462.045 381.675 462.376 385.644C463.038 381.675 464.691 374.398 465.683 369.768L476.928 322.472H493.796L505.372 369.768C506.365 374.398 508.018 381.675 508.68 385.644C509.01 381.675 510.333 374.398 510.995 369.768L519.594 322.472H539.769Z" fill="#D06500"/>
<path d="M775.918 419.71H758.389L722.67 366.461C720.354 362.823 717.047 357.861 715.724 355.546C715.724 359.184 716.055 371.422 716.055 376.714V419.71H696.871V322.472H715.393L749.789 374.068C752.105 377.706 755.412 382.667 756.735 384.982C756.735 381.344 756.404 369.107 756.404 363.815V322.803H775.588V419.71H775.918Z" fill="#D06500"/>
<path d="M248.717 420.041H206.713V322.803H226.227V400.858H248.717V420.041V420.041Z" fill="#D06500"/>
<path d="M311.558 420.041H269.554V322.803H289.068V400.858H311.558V420.041V420.041Z" fill="#D06500"/>
<path d="M371.091 401.85C355.216 401.85 342.648 388.951 342.648 373.406C342.648 357.862 355.546 344.963 371.091 344.963C386.967 344.963 399.535 357.862 399.535 373.406C399.535 388.951 386.967 401.85 371.091 401.85ZM371.091 422.025C397.881 422.025 420.041 400.196 420.041 373.076C420.041 346.286 398.212 324.126 371.091 324.126C343.97 324.126 322.142 345.955 322.142 373.076C322.473 400.196 344.301 422.025 371.091 422.025Z" fill="#040000"/>
<path d="M365.138 394.904C373.176 394.904 379.691 388.389 379.691 380.352C379.691 372.314 373.176 365.799 365.138 365.799C357.101 365.799 350.585 372.314 350.585 380.352C350.585 388.389 357.101 394.904 365.138 394.904Z" fill="#040000"/>
<path d="M249.709 98.23H230.196V57.5489H190.176V98.5607H170.663V0.992188H190.176V38.3659H230.196V0.992188H249.709V98.23Z" fill="#D06500"/>
<path d="M326.772 98.23H275.839V0.992188H324.787V20.1752H295.352V37.0429H310.566V55.8952H295.352V79.3778H326.772V98.23Z" fill="#D06500"/>
<path d="M393.913 97.5685H351.909V0H371.422V78.0548H393.913V97.5685V97.5685Z" fill="#D06500"/>
<path d="M456.754 97.5685H414.75V0H434.263V78.0548H456.754V97.5685V97.5685Z" fill="#D06500"/>
<path d="M515.626 22.4903C531.501 22.4903 544.069 35.3892 544.069 50.934C544.069 66.8096 531.17 79.3777 515.626 79.3777C499.75 79.3777 487.182 66.4788 487.182 50.934C487.182 35.0585 500.081 22.4903 515.626 22.4903ZM515.626 1.98438C488.836 1.98438 466.676 23.8133 466.676 50.934C466.676 77.724 488.505 99.8836 515.626 99.8836C542.746 99.8836 564.575 78.0547 564.575 50.934C564.575 23.8133 542.746 1.98438 515.626 1.98438Z" fill="#040000"/>
<path d="M521.909 58.2104C529.947 58.2104 536.462 51.695 536.462 43.6578C536.462 35.6206 529.947 29.1052 521.909 29.1052C513.872 29.1052 507.357 35.6206 507.357 43.6578C507.357 51.695 513.872 58.2104 521.909 58.2104Z" fill="#040000"/>
<path d="M604.925 41.0118L601.618 64.1637H588.388L585.081 41.0118V0.992188H604.594V41.0118H604.925ZM606.91 100.214H583.096V76.4011H606.91V100.214Z" fill="#D06500"/>
</svg>
