<svg width="724" height="41" viewBox="0 0 724 41" fill="none" xmlns="http://www.w3.org/2000/svg">
<path d="M29.9 17.3999C28.7 17.2999 27.3 17.1999 25.8 17.1999H14.4C12.8 17.1999 11.6 17.1999 10.5 17.3999V13.9999C7.9 15.6999 5.8 16.8999 2.5 18.3999C1.8 16.5999 1.1 15.4999 0 14.0999C4.4 12.2999 7.9 10.2999 10.9 7.8999C14.2 5.1999 16.2 2.9999 17.3 0.899902H22.5C24.3 3.5999 26.8 5.9999 29.8 8.2999C33.2 10.8999 36.3 12.4999 40.4 13.8999C39.2 15.4999 38.8 16.0999 37.9 18.5999C34.6 17.0999 32.7 15.9999 29.8 14.1999V17.3999H29.9ZM36.5 24.0999C36.1 24.4999 35.2 25.5999 34.7 26.2999L26.6 36.5999C25.5 37.9999 24.8 38.9999 23.9 40.2999L19.1 37.5999C20.2 36.5999 21.2 35.4999 22.3 34.0999L29.3 25.5999H10.1C8.4 25.5999 6.7 25.6999 4.9 25.8999V21.0999C6.6 21.2999 8.3 21.3999 10.2 21.3999H29.5C31.9 21.3999 33 21.3999 33.9 21.1999L36.5 24.0999ZM26.1 13.1999C27.2 13.1999 27.7 13.1999 28.6 13.1999C24.8 10.4999 22.8 8.59991 20.1 5.09991C17.5 8.49991 15.5 10.3999 11.8 13.1999C12.7 13.1999 13.2 13.1999 14.3 13.1999H26.1Z" fill="#231815"/>
<path d="M59.8 17.2001C59.8 16.3001 59.8 15.6001 59.7 14.7001C60.5 14.8001 61.5 14.8001 62.6 14.8001H71.9V9.30008H63C60.8 12.6001 58.7 15.2001 56 17.6001C54.8 15.8001 54.3 15.2001 52.9 13.8001C57.2 10.1001 59.4 7.4001 61.1 3.2001C61.7 1.8001 62 0.900098 62.1 0.100098L67.1 1.1001C67 1.4001 66.4 2.70009 65.3 5.00009H85.1C87.2 5.00009 88.2 5.00008 89.5 4.80008V9.40009C88.2 9.20009 87 9.2001 85.1 9.2001H76.6V14.7001H83.3C85.3 14.7001 86.4 14.7001 87.7 14.5001V18.9001C86.6 18.8001 85.3 18.7001 83.5 18.7001H76.6V25.6001H86.3C88.3 25.6001 89.6 25.5001 91 25.3001V30.1001C89.7 29.9001 88.2 29.8001 86.3 29.8001H76.6V35.0001C76.6 37.2001 76.6 38.3001 76.9 39.5001H71.7C71.9 38.3001 72 37.2001 72 34.9001V29.7001H57.8C56 29.7001 54.5 29.8001 53.2 30.0001V25.2001C54.6 25.4001 55.8 25.5001 57.8 25.5001H59.9V17.2001H59.8ZM71.9 25.9001V19.0001H64.2V25.9001H71.9Z" fill="#231815"/>
<path d="M114.1 27.8999C114.2 28.0999 114.3 28.1999 114.3 28.3999C114.3 28.6999 114.3 28.6999 113.6 30.6999C112.7 33.3999 112.1 35.5999 111.9 37.2999C111.9 37.8999 111.7 38.0999 111.1 38.1999C110.5 38.3999 109.3 38.4999 108.2 38.4999C107.8 38.4999 107.5 38.3999 107.4 38.0999C107 37.2999 106.3 34.1999 105.9 31.7999C105.6 29.6999 105.5 27.5999 105.5 25.2999C105.5 20.1999 106.1 15.3999 107.7 6.7999C108 5.3999 108.1 4.6999 108.2 3.3999C110.2 3.6999 111.6 4.09992 112.9 4.69992C113.6 5.09992 113.8 5.3999 113.8 5.7999C113.8 6.0999 113.7 6.29991 113.5 6.59991C111.7 9.69991 110 19.1999 110 26.1999C110 27.2999 110 28.8999 110.2 30.9999C111.3 28.2999 111.7 26.9999 112.7 24.8999C112.9 26.0999 113.2 26.6999 114.1 27.8999ZM121.5 16.2999C119.4 16.2999 118.9 16.1999 118.8 15.6999C118.7 15.2999 118.5 13.8999 118.5 12.8999C118.5 12.4999 118.5 12.1999 118.5 11.3999C119.7 11.4999 120.4 11.4999 121.8 11.4999C124.2 11.4999 125.7 11.4999 128 11.2999C128 5.6999 127.9 4.9999 127.5 2.8999C129.7 2.8999 131.3 3.09991 132.7 3.49991C133.4 3.69991 133.6 3.8999 133.6 4.2999C133.6 4.4999 133.6 4.59991 133.4 4.99991C133 5.99991 132.7 7.6999 132.7 10.7999C134.3 10.5999 135.7 10.2999 138.4 9.69992C138.6 9.59992 138.7 9.59991 138.8 9.59991C139.1 9.59991 139.2 9.69991 139.3 9.99991C139.4 10.3999 139.5 12.0999 139.5 12.9999C139.5 14.0999 139.5 14.2999 139 14.4999C138.3 14.8999 136.4 15.1999 132.6 15.5999C132.6 18.5999 132.9 23.6999 133.2 26.4999C136 27.6999 137.9 28.6999 139.8 30.0999C141 30.9999 141.3 31.2999 141.3 31.5999C141.3 32.0999 140.5 33.5999 139.6 34.8999C139.1 35.5999 138.8 35.8999 138.5 35.8999C138.2 35.8999 138.2 35.8999 137.2 34.8999C136.2 33.8999 135.2 33.1999 133.3 31.8999C133.3 32.0999 133.3 32.1999 133.3 32.2999C133.3 36.1999 130.1 38.6999 125.2 38.6999C120.2 38.6999 117 36.0999 117 32.0999C117 28.0999 120.3 25.1999 124.8 25.1999C126.4 25.1999 127.3 25.1999 128.5 25.3999C128.3 21.9999 128.3 21.9999 128.2 16.0999C126.2 16.0999 123.2 16.2999 121.5 16.2999ZM125.1 29.1999C122.9 29.1999 121.4 30.1999 121.4 31.7999C121.4 33.1999 122.8 34.0999 124.9 34.0999C127.2 34.0999 128.5 32.9999 128.5 30.9999C128.5 30.3999 128.5 29.8999 128.5 29.8999C127.3 29.3999 126.3 29.1999 125.1 29.1999Z" fill="#231815"/>
<path d="M156.2 28.5999C157 27.8999 157.2 27.7 157.5 27.7C158.1 27.7 160.7 29.5999 162.6 31.4999C164.8 33.4999 167.3 36.4999 167.3 37.0999C167.3 37.4999 167.2 37.6 165.9 38.7C164.2 40.2 163.9 40.4999 163.6 40.4999C163.3 40.4999 163.1 40.3 162.9 39.9C161.4 37.2 157.8 33.5999 154.7 31.4999C154.3 31.1999 154.2 31.0999 154.2 30.7999C154.1 30.4999 154.2 30.3999 156.2 28.5999Z" fill="#231815"/>
<path d="M208.5 20.4H218.4C220.3 20.4 221.4 20.4 222.5 20.2V23.9C221.4 23.8 220.4 23.7 218.5 23.7H207.3V25.9H219.3C221.8 25.9 223 25.9 224.1 25.7V30C222.7 29.8 221.4 29.8 219.3 29.8H210.9C214.1 32.1 219.5 34.2 224.9 35.1C224.1 36.2 223.8 36.8 223.4 37.6C223.4 37.7 223.2 38.1 223 38.7C222.9 38.9 222.8 39.2 222.6 39.5C219.3 38.6 216.8 37.7 214.2 36.4C211.3 34.9 209.4 33.7 207.3 31.7C207.4 33.2 207.4 34 207.4 34.5V36.9C207.4 38.4 207.4 39.1 207.7 39.9H202.6C202.8 39 202.9 38.3 202.9 36.9V34.4C202.9 33.4 202.9 32.5 203 31.6C200.8 33.7 198.8 35.2 195.4 36.7C193.1 37.8 190.9 38.5 187.9 39.3C187.2 37.7 186.5 36.4 185.5 35C191.1 34.1 196.1 32.1 199.2 29.6H191.1C189 29.6 187.7 29.6 186.3 29.8V25.5C187.4 25.7 188.5 25.7 191.1 25.7H202.9V23.5H194.6C192.9 23.5 192.1 23.5 191 23.6C191.1 22.7 191.1 21.6 191.1 20.3V15C191.1 13.6 191.1 12.5 191.2 11.4C190 12.8 189 13.6 187.3 15C186.6 13.2 186.1 12.3 185.1 10.9C188.4 8.59999 190.7 6.19999 192.9 2.79999C193.5 1.79999 194 0.9 194.2 0L199.1 0.799988C197.6 3.29999 197.5 3.39999 196.8 4.39999H204.3C205.3 2.89999 206 1.70001 206.5 0.100006L211.3 0.700012C210.2 2.50001 209.8 3.29999 209.1 4.39999H218.3C220.2 4.39999 221.2 4.40001 222.4 4.20001V8.20001C221.3 8.10001 220.5 8 218.9 8H208.6V10H216.7C218.8 10 219.5 9.99999 220.7 9.79999V13.2C219.4 13 219 13 216.7 13H208.6V15H216.7C218.8 15 219.4 15 220.7 14.8V18.2C219.5 18.1 218.9 18 216.7 18H208.6V20.4H208.5ZM204.1 8.10001H195.4V10.1H204.1V8.10001ZM204.1 13.2H195.4V15.2H204.1V13.2ZM195.5 18.2V20.4H204.2V18.2H195.5Z" fill="#231815"/>
<path d="M251.9 17.2999C251.8 15.0999 251.8 15.0999 251.8 12.3999C251.4 12.3999 251 12.3999 250.8 12.3999C247.9 12.3999 244.2 12.1 242.6 11.7C242.2 11.6 242.1 11.4999 242.1 10.9999C242.1 9.99994 242.2 8.79995 242.5 7.09995C245 7.59995 248 7.89993 250.6 7.89993C250.8 7.89993 251.2 7.89993 251.7 7.89993V4.99994C251.7 3.49994 251.7 2.79995 251.6 1.19995C253.8 1.29995 255.3 1.49995 256.4 1.69995C257.3 1.89995 257.5 2.09995 257.5 2.59995C257.5 2.79995 257.5 2.89995 257.1 3.59995C256.8 4.29995 256.7 4.49995 256.6 7.59995C259.2 7.29995 261.4 6.89995 263.4 6.19995C263.5 6.19995 263.6 6.19995 263.6 6.19995C263.9 6.19995 263.9 6.19995 264.4 7.69995C264.7 8.59995 265 9.79995 265 10.0999C265 10.3999 264.9 10.6 264.4 10.7C262.9 11.2 259.2 11.8 256.4 12.2C256.4 15.3 256.4 15.4999 256.4 16.9999C259.5 16.5999 261.2 16.1999 264.6 14.8999C264.8 14.7999 264.9 14.7999 265 14.7999C265.3 14.7999 265.4 14.8999 265.8 15.9999C266.2 17.0999 266.6 18.2999 266.6 18.7999C266.6 18.9999 266.4 19.1999 266.1 19.2999C263.7 20.1999 259.3 21.1999 256.5 21.4999C256.6 23.1999 256.7 24.0999 256.9 27.4999C259.4 28.1999 260.4 28.6 262.3 29.7C264.4 30.8 265.6 31.4999 267.4 32.9999C267.8 33.2999 267.9 33.4999 267.9 33.7999C267.9 34.0999 267.5 34.9 266.7 36.2C265.7 37.7 265.2 38.2 264.9 38.2C264.8 38.2 264.6 38.1999 264.5 37.9999C261.9 35.4999 260.1 34.2999 257.2 32.7999C257 34.8999 256.5 36.1 255.4 37.2C253.9 38.7 251.4 39.4 248.3 39.4C242.9 39.4 239.5 37 239.5 33.2C239.5 31.5 240.2 29.8999 241.4 28.7999C243.1 27.1999 245.7 26.4 249 26.4C250.1 26.4 251 26.4999 252.1 26.5999C251.9 23.6999 251.8 22.6999 251.7 21.7999C250.7 21.7999 250.1 21.7999 249.6 21.7999C246.6 21.7999 242.9 21.3 240.8 20.7C240.4 20.6 240.2 20.2999 240.2 19.9999C240.2 19.2999 240.5 17.8999 240.9 16.0999C243.6 16.7999 247.1 17.2 250.4 17.2C250.4 17.2 250.7 17.2 251.3 17.2H251.9V17.2999ZM248.8 30.7C246 30.7 244.4 31.4999 244.4 32.9999C244.4 34.2999 245.7 34.9999 248.1 34.9999C251 34.9999 252.3 33.9999 252.3 31.7999C252.3 31.4999 252.3 31.0999 252.3 31.0999C251.2 30.7999 250.4 30.7 248.8 30.7Z" fill="#231815"/>
<path d="M303.9 17.3C309.9 17.3 313.8 20.9 313.8 26.3C313.8 31.5 310.5 35.1 303.9 37.3C301.5 38 297.6 38.8 295.8 38.8C294.9 38.8 294.7 38.6 294 37.3C293.5 36.3 293 35.7001 291.7 34.7001C302.7 33.8001 308.2 31.0001 308.2 26.2001C308.2 23.5001 306.3 21.9001 303.1 21.9001C299.1 21.9001 295 24 291.6 27.6C291 28.2 290.4 29 290 29.6C289.6 30.3 289.3 30.5001 288.9 30.5001C288.2 30.5001 286.7 29.8001 285.6 29.0001C285.1 28.6001 284.9 28.3 284.9 27.6C284.9 27.2 284.9 27.2001 285 26.2001C285 26.1001 285 25.8 285 25.3C285.2 22.5 285.4 21.3 285.9 17.3C286 16.8 286 16.8001 286.3 14.7001C286.3 14.6001 286.4 13.7001 286.7 12.1001C286.7 11.7001 286.8 11.4001 286.8 10.6001C288.9 10.9001 290.9 11.4001 291.7 11.9001C292.1 12.1001 292.2 12.3001 292.2 12.6001C292.2 12.8001 292.1 12.9001 292 13.2001C291.5 13.9001 291.4 14.3001 291 16.0001C290.6 17.7001 290 21.5001 289.9 23.0001C294.5 19.0001 298.5 17.3 303.9 17.3ZM303.1 4.80005C304.8 5.80005 305.3 6.30005 305.3 6.80005C305.3 7.20005 304.6 8.50007 303.8 9.60007C303.1 10.6001 302.8 10.8 302.5 10.8C302.3 10.8 302.1 10.7 301.6 10.3C298.7 8.10005 296.3 6.80007 293 5.60007C292.3 5.30007 292.2 5.20005 292.2 4.90005C292.2 4.50005 292.6 3.70007 293.3 2.60007C294 1.50007 294.3 1.30005 294.8 1.30005C296 1.30005 300.3 3.20005 303.1 4.80005Z" fill="#231815"/>
<path d="M333 13.8999C332.2 13.8999 331.7 13.9999 331.2 13.9999C330.8 13.9999 330.8 13.9999 330.7 13.9999C330.3 13.9999 330.2 13.8999 330 13.3999C329.8 12.6999 329.5 10.3999 329.4 8.99991C329.9 8.99991 331.2 9.09991 332.7 9.09991C333.2 9.09991 336.7 8.89992 338.2 8.69992C338.9 5.09992 339.2 3.2999 339.2 0.899902C343.7 1.4999 345.4 1.9999 345.4 2.8999C345.4 3.1999 345.4 3.2999 344.7 4.2999C344.3 4.7999 344.2 5.29991 343.5 7.99991C345.6 7.59991 346.8 7.2999 348.4 6.7999C348.7 6.6999 348.8 6.69992 349.1 6.69992C349.4 6.69992 349.5 6.89992 349.8 8.19992C350 9.29992 350.2 10.1999 350.2 10.6999C350.2 11.1999 350.1 11.2999 348.9 11.5999C347.4 11.9999 344.9 12.3999 342.1 12.6999C340.5 17.5999 339.4 20.2999 337.3 24.3999C335.8 27.4999 334.9 29.0999 333.7 30.9999C333.3 31.4999 333.1 31.6999 332.8 31.6999C332.4 31.6999 331.1 30.9999 329.6 29.8999C328.9 29.3999 328.7 29.1999 328.7 28.8999C328.7 28.5999 328.9 28.2999 329.4 27.4999C330.7 25.8999 332.3 23.1999 333.8 20.2999C335 17.8999 335.5 16.8999 336.7 13.3999C335.2 13.7999 335 13.7999 333 13.8999ZM347.5 39.2999C342.7 39.2999 339.4 36.6999 339.4 32.6999C339.4 28.6999 342.8 25.5999 347.3 25.5999C348.4 25.5999 348.8 25.5999 350.6 25.8999C350.4 23.7999 350.4 22.9999 350.2 18.8999C350.2 18.0999 350.1 16.8999 350 15.4999C352.2 15.6999 354 15.9999 354.8 16.2999C355.2 16.3999 355.3 16.6999 355.3 16.9999C355.3 17.1999 355.3 17.3999 355.2 17.6999C355 18.5999 354.9 19.2999 354.9 20.4999C354.9 22.0999 355 24.8999 355.2 27.0999C358.3 28.4999 359.6 29.1999 361.8 30.8999C362.8 31.5999 363.1 31.9999 363.1 32.3999C363.1 32.7999 362.9 33.1999 361.6 35.1999C361.1 36.0999 360.7 36.4999 360.4 36.4999C360.1 36.4999 360.1 36.4999 358.9 35.3999C357.9 34.3999 356.8 33.6999 355.3 32.7999C355.6 36.7999 352.6 39.2999 347.5 39.2999ZM347.4 29.8999C345.3 29.8999 343.8 30.8999 343.8 32.4999C343.8 33.9999 345.1 34.8999 347.1 34.8999C349.4 34.8999 350.7 33.6999 350.7 31.3999C350.7 30.9999 350.7 30.6999 350.7 30.6999C349.8 30.0999 348.6 29.8999 347.4 29.8999ZM363.9 17.3999C363.4 18.0999 363.1 18.3999 362.8 18.3999C362.6 18.3999 362.4 18.2999 362.1 17.9999C361 16.8999 359.5 15.7999 357.8 14.7999C356.7 14.0999 356.7 14.0999 354.8 13.2999C354.2 12.9999 354 12.8999 354 12.4999C354 12.1999 354.2 11.7999 354.9 10.7999C356 9.2999 356.2 8.99991 356.6 8.99991C357.4 8.99991 360.7 10.6999 363 12.2999C364.9 13.5999 365.5 14.0999 365.5 14.5999C365.5 14.7999 364.8 16.0999 363.9 17.3999Z" fill="#231815"/>
<path d="M380.1 10.2C380.1 8.89995 380.1 7.19995 380 6.19995C382 6.39995 383.5 6.69995 384.7 7.19995C385.8 7.59995 386.1 7.89993 386.1 8.29993C386.1 8.59993 386.1 8.59994 385.9 8.99994C385.3 10.4999 385.2 12.2 385.2 16.2C385.2 21.8 385.6 25.3999 386.4 27.9999C387.1 30.0999 388.1 31.2999 389.3 31.2999C391.1 31.2999 392.6 29.1999 394.2 24.2999C395 26.4999 395.3 27.1999 396.6 28.7999C396.8 29.0999 397 29.4 397 29.7C397 30.4 396.3 31.9 395.5 33.2C393.8 35.7 391.6 37.0999 389.3 37.0999C385.9 37.0999 383.4 34.3999 381.8 28.9999C380.8 25.4999 380.3 20.9999 380.3 14.8999V10.2H380.1ZM406.3 10.8999C406.6 10.8999 406.8 10.9999 407.1 11.2999C409.3 13.3999 411.6 16.8999 413 20.3999C414 22.6999 414.9 25.8999 414.9 26.7999C414.9 27.1999 414.7 27.5 413.8 27.9C412.8 28.4 410.7 29.0999 410.2 29.0999C409.8 29.0999 409.6 28.8999 409.5 28.0999C408.9 24.6999 408.1 22.1999 406.8 19.3999C405.6 16.7999 405.5 16.6999 402.5 12.9999C404.3 11.6999 405.7 10.8999 406.3 10.8999Z" fill="#231815"/>
<path d="M442.2 10.5C442.2 10.7 442.1 10.9 441.9 11.3C441.4 12.1 441.2 12.8 440.7 15.3C439.3 21.5 437 26.9 434 31C432.7 32.8 431.8 33.7 431.3 33.7C431.1 33.7 430.9 33.6 430.6 33.4C429.1 32.6 427.9 32.1 426.2 31.7C430.2 28.2 433.3 22.5 435 15.8C435.5 13.5 435.8 11.3 435.8 9.29999C435.8 9.19999 435.8 8.90001 435.8 8.60001C439.7 8.80001 442.2 9.7 442.2 10.5ZM458.8 32.5C456.5 24.4 453.2 17 449.6 11.6C449.1 10.9 449 10.7 449 10.5C449 10.1 449.4 9.80001 450.7 9.10001C452 8.30001 452.7 8 453.1 8C453.6 8 453.7 8.19999 455.4 10.8C457.4 13.9 459.3 17.8 461.6 23.5C463.1 27.3 464.1 30.1 464.1 30.9C464.1 31.4 463.9 31.6 462.8 32.1C461.7 32.6 460 33.2 459.6 33.2C459.1 33.2 458.9 33 458.8 32.5Z" fill="#231815"/>
<path d="M485 34.2999C485 34.7999 484.9 35.0999 484.6 35.1999C484.2 35.2999 482.7 35.4999 481 35.4999C479.5 35.4999 479.4 35.3999 479.4 34.3999C479.4 34.1999 479.4 33.6999 479.4 32.9999C479.5 30.6999 479.8 16.4999 479.8 10.8999C479.8 9.7999 479.8 7.5999 479.8 6.3999C483.6 6.5999 489.7 6.7999 496.2 6.7999C501.6 6.7999 505.8 6.79991 508.5 6.59991C508.4 8.39991 508.4 15.2999 508.4 20.9999C508.4 24.2999 508.5 28.3999 508.7 33.7999C508.7 33.9999 508.7 33.9999 508.7 34.3999C508.7 34.8999 508.6 35.1999 508.3 35.2999C508 35.4999 506.3 35.5999 504.8 35.5999C503.1 35.5999 503 35.5999 503 34.5999V32.3999H485V34.2999V34.2999ZM503 11.5999C496.7 11.5999 495.7 11.5999 493.6 11.5999C490.7 11.5999 490.7 11.5999 485.1 11.5999V27.2999H503.1V11.5999H503Z" fill="#231815"/>
<path d="M537.9 7.40005C537.9 5.00005 537.8 3.70005 537.6 1.80005C540.7 1.90005 542.5 2.10005 543.6 2.40005C544 2.50005 544.2 2.80007 544.2 3.10007C544.2 3.30007 544.1 3.50005 543.9 3.80005C543.5 4.50005 543.4 5.30005 543.4 7.30005V8.70007H549C550.4 8.70007 551.2 8.60005 552.1 8.30005C552.6 8.10005 552.9 8.00006 553.2 8.00006C554 8.00006 555.3 8.90006 556.7 10.5001C557.4 11.3001 557.7 11.7001 557.7 12.2001C557.7 12.5001 557.6 12.8 557.3 13.3C556.9 14 556.8 14.4001 556.2 16.7001C555.2 20.7001 554.4 22.8001 552.6 25.9001C549.7 30.9001 545.5 34.8001 540.3 37.4001C539 38.0001 538.2 38.3 537.9 38.3C537.6 38.3 537.4 38.2001 537.1 37.7001C536.4 36.7001 535.3 35.9 533.6 34.8C537.1 33.3 539 32.3001 541 30.9001C545.4 27.8001 548.1 24.2001 549.9 19.1001C550.6 16.9001 551 15.3 551.2 13.3C547.2 13.2 545.6 13.2001 542 13.2001C538.3 13.2001 535.8 13.2 530.3 13.3C530.3 16 530.3 16.0001 530.3 16.5001C530.3 17.6001 530.3 18.5001 530.3 20.2001C530.3 20.3001 530.3 20.4001 530.3 20.4001C530.3 20.8001 530.2 21.0001 529.8 21.1001C529.4 21.2001 528 21.3 526.9 21.3C525.2 21.3 524.9 21.2001 524.9 20.5001C524.9 20.3001 524.9 19.9001 524.9 19.4001C524.9 18.9001 525 14.2001 525 13.1001C525 11.7001 525 10.4001 524.8 8.40005C526 8.60005 528.5 8.70007 531.3 8.70007H537.5V7.40005H537.9Z" fill="#231815"/>
<path d="M584.5 24.2999C581 26.4999 576.4 28.8999 575.7 28.8999C575.3 28.8999 575.3 28.8999 574.4 27.9999C573.7 27.1999 572.8 26.3999 571.7 25.5999C577.5 23.6999 583.3 20.2999 588.5 15.6999C590.6 13.8999 591.6 12.6999 592.8 10.8999C595.1 12.3999 596.9 14.0999 596.9 14.7999C596.9 15.0999 596.8 15.1999 596.4 15.3999C595.8 15.6999 595.4 15.9999 594.1 17.1999C593.2 17.9999 591.4 19.4999 589.4 20.9999V27.9999C589.4 31.7999 589.5 35.6999 589.6 37.5999C589.6 37.7999 589.6 37.9999 589.6 38.0999C589.6 38.7999 589.2 38.8999 586.4 38.8999C584.6 38.8999 584.5 38.8999 584.5 38.3999C584.5 38.3999 584.5 38.2999 584.5 38.1999C584.5 38.0999 584.5 38.0999 584.5 38.0999C584.5 37.9999 584.5 37.6999 584.5 37.1999C584.6 36.0999 584.6 32.1999 584.6 27.9999V24.2999H584.5Z" fill="#231815"/>
<path d="M644.9 14.1001C645.1 14.5001 645.2 14.8001 645.2 15.1001C645.2 15.5001 645 15.8001 644.5 16.6001C642.1 19.8001 639.5 22.3001 635.6 25.4001C631.2 28.8001 627.5 31.1001 622.2 33.6001C618.8 35.2001 618.6 35.3001 618.1 35.8001C617.7 36.2001 617.6 36.2001 617.3 36.2001C616.9 36.2001 616.6 35.8001 615.9 34.9001C615 33.6001 614.2 31.8001 613.7 30.2001C618.1 29.2001 623.5 26.8001 628.6 23.6001C635.4 19.3001 639.6 15.1001 642.9 9.30008C643.4 11.0001 643.7 11.9001 644.9 14.1001ZM615.6 6.7001C616.3 5.9001 616.7 5.6001 617.1 5.6001C617.9 5.6001 621.2 7.80009 624 10.0001C625.7 11.4001 626.2 11.9001 626.2 12.4001C626.2 12.7001 625.4 13.9001 624.4 15.1001C623.4 16.2001 622.9 16.6001 622.6 16.6001C622.3 16.6001 622.3 16.6001 620.5 14.9001C619.4 13.8001 617.1 12.0001 615.9 11.2001C614.4 10.2001 614.4 10.2001 614.1 10.0001C613.9 9.90009 613.8 9.7001 613.8 9.6001C613.6 9.2001 614.5 8.0001 615.6 6.7001Z" fill="#231815"/>
<path d="M675.2 26.2001C670.8 28.8001 669.6 30.0001 669.6 32.0001C669.6 32.8001 669.9 33.3001 670.6 33.7001C671.6 34.3001 673.7 34.6 676.5 34.6C678.9 34.6 682.2 34.4 684.4 34.1C685.3 34 685.9 33.8001 687.6 33.4001C687.7 33.4001 687.7 33.4001 687.8 33.4001C688.1 33.4001 688.3 33.6001 688.5 33.9001C688.8 34.8001 688.9 36.1001 688.9 37.7001C688.9 38.4001 688.7 38.6 688.1 38.8C687 39 682.2 39.3 678.9 39.3C673.5 39.3 670.7 38.9 668.6 38.1C666 37 664.8 35.1 664.8 32.3C664.8 29.7 666 27.5 668.4 25.6C670.3 24.1 670.7 23.8001 674.8 21.5001C674.4 20.0001 673.8 19.4001 672.4 19.4001C670.6 19.4001 668.7 20.1001 666.6 21.5001C665.3 22.4001 663.8 23.6001 662.9 24.5001C661.6 25.9001 661.4 26.0001 661.1 26.0001C660.7 26.0001 659.7 25.0001 658.8 23.4001C658.4 22.7001 658.1 22.1 658.1 21.8C658.1 21.4 658.2 21.3001 659.2 20.7001C662.8 18.3001 665.8 15.2001 667.6 12.0001C664.5 12.2001 662.8 12.3 661.1 12.3C660.4 12.3 660.3 12.2001 660.1 11.4001C660 10.8001 659.7 8.50005 659.7 7.30005C661.2 7.50005 662.1 7.60007 664.2 7.60007C665.9 7.60007 667.8 7.60006 669.8 7.50006C670.7 5.00006 671 3.40005 671.1 1.30005C675 2.00005 676.8 2.60005 676.8 3.40005C676.8 3.60005 676.8 3.70005 676.6 3.90005C676.3 4.50005 675.9 5.20006 675.4 6.50006C675.3 6.70006 675.3 6.70005 675.3 6.80005C677.8 6.40005 680 6.00007 681.5 5.70007C682.5 5.40007 682.7 5.40005 682.9 5.40005C683.3 5.40005 683.4 5.50005 683.5 5.80005C683.7 6.60005 683.9 8.60007 683.9 9.20007C683.9 9.70007 683.7 9.90006 683.2 10.0001C681.8 10.4001 677 11.1001 672.9 11.5001C671.6 13.9001 670.7 15.3 669.3 16.8C671.3 15.9 672.8 15.5001 674.5 15.5001C676.5 15.5001 677.8 16.6001 678.7 19.1001C683.1 16.7001 685.4 15.4 685.7 15.3C687.7 14.1 688.6 13.5001 689.5 12.4001C691.3 14.2001 693.2 17 693.2 17.8C693.2 18.1 693 18.2001 692.5 18.4001C690.3 19.0001 686.3 20.7001 679.7 23.9001C679.7 24.7001 679.8 26.7 679.8 28.1C679.8 28.3 679.8 28.7001 679.8 29.0001C679.8 29.2001 679.8 29.3001 679.8 29.4001V30.1C679.8 30.6 679.7 30.9001 679.5 31.0001C679.3 31.2001 678.1 31.4001 676.8 31.4001C675.3 31.4001 675 31.3 675 30.6C675 30.6 675 30.5001 675 30.4001C675.1 29.1001 675.1 27.5001 675.1 26.4001V26.2001H675.2Z" fill="#231815"/>
<path d="M723.1 33.0001C723.1 37.1001 719.8 40.5001 715.7 40.5001C711.6 40.5001 708.3 37.2001 708.3 33.0001C708.3 28.9001 711.6 25.6001 715.7 25.6001C719.8 25.6001 723.1 28.9001 723.1 33.0001ZM711.6 33.0001C711.6 35.2001 713.4 37.0001 715.6 37.0001C717.8 37.0001 719.6 35.2001 719.6 33.0001C719.6 30.8001 717.8 29.0001 715.6 29.0001C713.4 29.0001 711.6 30.8001 711.6 33.0001Z" fill="#231815"/>
</svg>
