<svg width="371" height="204" viewBox="0 0 371 204" fill="none" xmlns="http://www.w3.org/2000/svg">
<path d="M15.2 116C14 119.8 13.5 121.5 11.5 124.1C9.6 126.5 7.1 128.4 4.2 129.4L2.2 127.5C8.9 125.9 12.3 120.1 13 115.6H5C4 115.6 2.1 115.6 0.5 115.8V113.5C1.4 113.7 4 113.7 5.1 113.7H9.6C10 113.7 12.5 113.7 12.9 113.6C13.3 113.5 13.4 113.5 14 113.1L16 114.7C15.6 115 15.4 115.4 15.2 116ZM17.4 113.9C16.1 113.9 15 112.8 15 111.5C15 110.2 16.1 109.1 17.4 109.1C18.7 109.1 19.8 110.2 19.8 111.5C19.8 112.8 18.7 113.9 17.4 113.9ZM17.4 110.5C16.8 110.5 16.4 111 16.4 111.5C16.4 112.1 16.9 112.6 17.5 112.6C18.1 112.6 18.5 112.1 18.5 111.5C18.5 110.9 18 110.5 17.4 110.5Z" fill="black"/>
<path d="M35.3 126.9C35.4 126.4 35.4 126.4 35.5 125.6H24.7C24.7 125.9 24.7 126.5 24.7 126.9H22.2C22.3 126.3 22.4 125.4 22.4 124C22.4 121.9 22.4 121.6 22.4 121.4V116.8C22.4 116.1 22.3 112.8 22.3 112.2C23.6 112.3 26.3 112.4 27.7 112.4H32.4C34 112.4 36.3 112.4 37.8 112.3C37.7 113.4 37.7 116 37.7 117.3V121.7C37.7 122.1 37.8 124 37.8 124.4C37.8 126 37.9 126.5 38 127H35.3V126.9ZM35.5 114.3H24.7V123.5H35.5V114.3Z" fill="black"/>
<path d="M47.3 119.3C46.6 118.8 46.3 118.6 44.9 118C43.3 117.3 42.9 117.2 42.4 117L43.3 115.1C43.9 115.3 46.7 116.5 48.3 117.6L47.3 119.3ZM46 128.2C46 128.5 45.9 129 45.5 129C45.4 129 45.3 128.9 45.1 128.8L43.5 126.6C44.7 126.3 47.1 125.6 51 122.4C54.2 119.8 55.9 117.8 57.4 115.5L58.7 117.3C55.6 122.4 49 127 46 128.2ZM49.8 114.1C48.3 112.9 46.1 112 44.8 111.6L45.7 109.8C47.6 110.6 49.4 111.5 50.8 112.3L49.8 114.1ZM56.6 113.3C56 112.7 55.4 112.1 54.2 111.3L55.2 110.2C56 110.6 57.1 111.3 57.7 112.1L56.6 113.3ZM59 111.7C58.8 111.5 56.7 109.9 56.4 109.7L57.5 108.6C58.6 109.4 58.8 109.5 60.1 110.6L59 111.7Z" fill="black"/>
<path d="M75.7 128.6H67.7C67.2 128.6 66 128.6 64.9 128.7V127C66 127 67 127.1 68.1 127.1H70.9V119.1H68.9C68.1 119.1 66.5 119.2 66.1 119.3V117.5C67.8 117.6 68.8 117.6 69.3 117.6H74.4C75.1 117.6 76.5 117.5 77.5 117.5V119.3C76.5 119.2 75.5 119.1 74.8 119.1H72.9V127.1H75.6C76 127.1 77.4 127.1 78.9 127V128.7C77.7 128.6 76.7 128.6 75.7 128.6Z" fill="black"/>
<path d="M99.4 115.3C97.7 120.4 95.1 125.8 88.8 129.1L86.8 127.5C88.5 126.8 91 125.6 93.6 122.2C96.1 118.9 96.7 116.3 96.9 115H90.2C89.1 116.7 87.9 118.4 85.9 120.2L84.1 118.9C84.7 118.4 86.3 117.2 88 114.7C88.8 113.5 89.9 111.7 90.1 110.4L92.5 111.5C92.7 111.6 92.8 111.7 92.8 111.8C92.8 112 92.5 112.2 92.4 112.2C92.1 112.3 92 112.3 91.8 112.5C91.6 112.7 91.6 112.9 91.2 113.4H94.7C97.4 113.4 97.7 113.3 98.3 113L99.9 114.7C99.7 115 99.7 115 99.4 115.3Z" fill="black"/>
<path d="M118.8 123.2C117.6 122 115.6 120 112.3 118.6V122.3C112.3 123.6 112.4 127.4 112.5 128.6H109.8C110 127.5 110 125.8 110 125.4C110 124.9 110.1 122.7 110.1 122.2V116.5C110.1 115.6 110 113.3 110 112.5C110 111.9 109.9 111.5 109.8 111L112.7 111.2C112.8 111.2 113.1 111.2 113.1 111.5C113.1 111.7 112.9 111.9 112.4 112.2C112.3 113.6 112.3 114.9 112.3 116.3V118.7L113.3 116.7C116.3 118.1 119.3 120.3 120.2 121.5L118.8 123.2Z" fill="black"/>
<path d="M136.4 128.1L134.7 126.3C136 126 138.2 125.4 139.6 123.8C140.9 122.3 141.3 120.2 141.3 118.9C141.3 115.8 139 114.3 137.9 113.8C136.6 113.1 135.7 113.2 134.9 113.2C134.5 115.9 134 119.8 132.1 123.9C131.7 124.8 130.6 127.2 129.3 127.2C128.5 127.2 127.8 126.8 127.4 126.5C126.6 125.8 124.7 123.9 124.7 120.6C124.7 119 125.2 116.5 127.1 114.5C130.2 111.4 133 111.4 134.3 111.4C136.3 111.4 139 111.8 141.2 114.2C142.5 115.6 143.2 117.5 143.2 119.5C143.2 124.6 139.4 127.2 136.4 128.1ZM132.2 113.2C130.3 113.5 126.7 115.8 126.7 120.2C126.7 122.2 127.9 124.2 128.8 124.2C129.6 124.2 130.1 122.9 130.4 122.3C132 118.6 132.6 114.9 132.8 113.1C132.6 113.2 132.4 113.2 132.2 113.2Z" fill="black"/>
<path d="M159.1 118.8H154V123.3C154 124.8 154.1 126.2 154.1 127.7C155.6 127.3 156.5 126.7 157.4 126.2C156.5 125.1 155.9 123.9 155.6 122.8L157.4 122C157.5 122.4 157.8 123.6 158.9 125C160.2 123.7 160.5 122.4 160.7 121.9H158.3C157.8 121.9 156.5 121.9 154.7 122.1V120.1C156 120.2 157.3 120.3 157.6 120.3H160C160 120.3 161.3 120.2 162.5 120.1L163.1 121.1C162.5 123 161.6 124.8 160.3 126.3C161.6 127.3 162.9 127.8 164.4 128L163.2 129.9C160.8 129.2 159.8 128.6 158.8 127.7C157.4 128.8 156.3 129.2 155.6 129.5L154.3 128.2C154.3 128.7 154.3 128.9 154.4 129.7H152C152.1 129.2 152.2 128.1 152.2 127.3C150.7 127.5 148.6 127.9 147.3 128.1C146.8 128.2 146.4 128.3 145.9 128.3C145.8 128.6 145.7 128.8 145.4 128.8C145.1 128.8 145.1 128.5 145.1 128.4L144.8 126.5C145.2 126.5 146.3 126.5 147 126.5V119.1C146.7 119.1 145.8 119.1 145 119.2V117.4C145.7 117.4 146.1 117.5 148 117.5C148.4 117.5 150.4 117.6 150.8 117.6H159.2C160.6 117.6 162 117.6 164.6 117.4V119.3C162.6 118.8 161.3 118.8 159.1 118.8ZM157.4 116.4H152.2C151.7 116.4 148.4 116.5 147.7 116.5C147.8 115.3 147.8 115 147.8 114.4V112.5C147.8 111.8 147.8 111 147.7 110.2C148.6 110.3 149.1 110.3 152.2 110.3H157.1C157.5 110.3 157.9 110.3 158.4 110.3L161.7 110.1C161.7 111.1 161.6 111.7 161.6 112.2V114.3C161.6 115 161.6 115.3 161.7 116.5C160.4 116.5 158.7 116.4 157.4 116.4ZM152.1 118.8H148.8V120.2H152.1V118.8ZM152.1 121.6H148.8V123H152.1V121.6ZM152.1 124.5H148.8V126C149.7 125.9 151.2 125.8 152.1 125.7V124.5ZM159.6 111.7H149.8V112.7H159.6V111.7ZM159.6 114H149.8V115.1H159.6V114Z" fill="black"/>
<path d="M172.7 118.2H172V120.2H172.5C173.6 120.2 174.7 120.2 175.8 120V122C174.6 121.8 173.2 121.8 172.3 121.8C172.6 122.1 173.9 123.4 175.4 124.2L174.3 125.9C173.4 125.3 172.9 125 172.1 124.1V124.7C172.1 125.3 172.2 128.6 172.3 129.3H170C170 128.7 170.2 126.2 170.2 125.7C170.2 125.3 170.2 125.1 170.2 124.8V124.4C169.1 125.9 168.8 126.1 166.9 127.8L165.2 126.3C166.2 125.7 166.9 125.3 168 124.2C169 123.2 169.5 122.4 169.8 121.8H169.4C168.7 121.8 167.2 121.9 166.1 122V120C167.2 120.2 168.9 120.2 169.4 120.2H170.3V118.2H169.4C168.2 118.2 167 118.3 165.9 118.4V116.4C166.8 116.5 167.9 116.6 168.9 116.6L168 113.6C167.2 113.6 167 113.6 166.4 113.7V111.8C167.3 111.9 168.5 112 169.4 112H170.5C170.5 111.8 170.5 110.9 170.4 109.8L172.7 110C172.9 110 173 110.2 173 110.3C173 110.5 172.9 110.5 172.5 110.8C172.5 111.2 172.5 111.3 172.5 112H173.3C174 112 175.3 112 176.1 111.8V113.6C175.9 113.6 175 113.6 174.8 113.5L173.8 116.6C174.6 116.6 175.7 116.5 176.5 116.4V118.4C174.8 118.2 172.9 118.2 172.7 118.2ZM169.6 113.4L170.5 116.5H171.7L172.6 113.4H169.6ZM183 118.2V123.7C183 125.6 183.1 127.4 183.2 129.3H180.8C181 128.2 181 126.4 181 123.5V118.2H179V119.6C179 120.3 178.9 122.9 178.2 124.9C177.3 127.2 175.8 128.3 174.8 129L173 127.5C174.2 126.8 176.7 125.4 177 121.8C177 121.5 177.1 120 177.1 119.5V114C177.1 113.3 177 111.1 177 110.7C177.5 110.8 177.9 110.8 178.2 110.8C178.5 110.8 180.9 110.8 182.4 110.3C182.6 110.2 183.4 109.9 183.6 109.9L185 111.3C185.1 111.4 185.2 111.5 185.2 111.6C185.2 111.9 184.9 111.9 184.8 111.9C184.6 111.9 184.5 111.9 184.3 111.8C182.3 112.4 180.2 112.6 179 112.5V116.4H182.9C183.7 116.4 184.5 116.4 185.3 116.2V118.4C184.6 118.3 183.8 118.2 183 118.2Z" fill="black"/>
<path d="M187.6 120.3L185.7 119.6C185.8 119.4 186.6 117.3 186.6 114.9C186.6 114.7 186.6 114.5 186.6 114.3L188.5 114.7C188.6 117.2 188 119.7 187.6 120.3ZM202 118.6H197.9C197.2 118.6 195.1 118.6 193.6 118.7V116.9L192.3 117.5C192 116.5 191.7 115.5 191 114.3C191 114.5 191 115.5 191 115.7V122.2C191 123.1 191.1 128.8 191.2 129.4H188.7C188.7 128.8 188.9 126.3 189 126C189 125.4 189.2 122.6 189.2 122.2V115.7C189.2 114.7 189.2 110.5 189.2 109.6L191.3 109.8C191.7 109.8 191.8 109.9 191.8 110.1C191.8 110.3 191.8 110.3 191.3 110.7C191.2 111.9 191.2 112 191.2 114.3L192.8 113.4C193.5 114.2 194.1 115.8 194.4 116.7L194 116.9C194.7 116.9 196.9 117 198.1 117H199.2V115.8H198.5C197.5 115.8 196.3 115.8 195.4 115.9V113.9C196.7 114.1 198.4 114.1 198.5 114.1H199.2V112.9H198.2C198 112.9 196.5 112.9 194.4 113V111.2C195.6 111.3 197 111.3 198.2 111.3H199.2C199.2 110.7 199.2 109.9 199.2 109.5L201.5 109.7C201.6 109.7 201.9 109.7 201.9 109.9C201.9 110.1 201.7 110.2 201.7 110.2C201.6 110.3 201.4 110.4 201.3 110.4C201.3 110.5 201.3 111.1 201.3 111.2H202.2C203.4 111.2 204.9 111.2 206 111.1V112.9C204.4 112.8 203 112.8 202.2 112.8H201.3V114H201.8C201.8 114 203.6 114 204.9 113.8V115.8C204 115.7 202.7 115.7 201.8 115.7H201.3V116.9H202.4C203.3 116.9 205.3 116.9 206.7 116.8V118.7C205 118.6 202.9 118.6 202 118.6ZM201.2 129.6L200.5 127.7C201 127.7 201.9 127.8 202.2 127.8C202.3 127.8 202.6 127.8 202.6 127.6V126.5H197.1C197.1 127 197.1 129 197.1 129.4H195.1C195.2 129 195.2 128.7 195.2 128C195.2 127.8 195.2 126.7 195.2 126.5V122.7C195.2 121.6 195.2 120.2 195.2 119.4C195.7 119.4 197.8 119.5 197.9 119.5H201.8C202.2 119.5 204.2 119.4 204.6 119.4C204.6 120 204.5 122 204.5 122.6V125.8C204.5 126.2 204.6 127.7 204.6 128C204.6 129.2 204.2 129.7 201.2 129.6ZM202.6 121.2H197.1V122.4H202.6V121.2ZM202.6 123.9H197.1V125.1H202.6V123.9Z" fill="black"/>
<path d="M216.3 117.8C215.9 119 215.5 120 215.3 120.3C215.7 120.3 217.1 120.2 217.3 120.1V122.1C216 122 214.1 122 214 122H213.5V124H214.1C214.7 124 216.7 123.9 217.3 123.9V125.8C216.8 125.8 214.7 125.6 214.2 125.6H213.5C213.5 126.9 213.6 128.2 213.7 129.5H211.3C211.3 129.2 211.4 128.9 211.4 127.8C211.4 127.2 211.5 126.2 211.5 125.6H210.8C210.5 125.6 209.2 125.7 208.9 125.7C208.5 125.7 208.3 125.7 207.8 125.8V123.9C208.7 124 210.4 124 210.9 124H211.5V122H210.8C210.5 122 209.3 122.1 207.7 122.2V120.1C209.2 120.3 209.3 120.3 209.7 120.3C209.4 119.5 209.4 119.5 208.5 117.8C208.2 117.8 208.1 117.8 207.1 117.9V115.8C208 115.9 209.6 116 210.7 116H211.5V113.7H211C210.5 113.7 208.5 113.8 208.1 113.9V111.9C208.8 112 210.8 112.1 211.5 112.1C211.5 110.9 211.5 110.6 211.5 109.5L213.5 109.6C213.9 109.6 214.2 109.6 214.2 110C214.2 110.3 213.9 110.4 213.5 110.6C213.5 110.9 213.5 111 213.5 112H214C215.2 112 216.8 111.9 217.3 111.8V113.8C217.1 113.8 216.8 113.7 216.5 113.7C216.1 113.7 214.5 113.6 214.2 113.6H213.5V115.9H214.4C215.2 115.9 217.1 115.8 217.9 115.7V117.8C217.3 117.9 217.2 117.9 216.3 117.8ZM210.9 117.8H210.6C210.7 118 211.4 119.3 211.8 120.4H213.5C213.7 120 213.9 119.3 214.4 117.8H210.9ZM226.1 129.4C225.2 128.9 224.4 128.3 223.7 127.5C222.9 128.5 222.4 129.1 221.9 129.5L220.5 128.1C220.5 128.6 220.6 129.4 220.6 129.5H218.3C218.4 128.1 218.5 123.3 218.5 122.7V115.1C218.5 114.3 218.4 110.9 218.3 110.1C219.3 110.2 220.9 110.2 221.3 110.2H223.4C224.2 110.2 224.7 110.2 226.4 110.1C226.3 113.5 226.2 114.6 225.5 115.6C224.9 116.4 224 116.6 223.1 116.6C222.7 116.6 222.4 116.6 222.2 116.5L221.3 114.4C221.7 114.5 222.6 114.6 223.2 114.6C223.5 114.6 223.9 114.6 224.1 114C224.3 113.4 224.4 112.2 224.5 111.8H220.4V117.5H223.4C224.2 117.5 226.1 117.4 226.8 117.4C226.7 120.3 226 123.5 224.8 125.7C225.4 126.3 225.7 126.7 227.6 127.9L226.1 129.4ZM220.3 119.3V122.8C220.3 124.5 220.4 126.3 220.5 128C221.7 126.9 222.1 126.4 222.4 126C222 125.4 220.7 122.9 220.5 120.3L222.2 119.5C222.4 121 222.7 122.6 223.6 124.1C224 123.1 224.6 121.5 224.7 119.4H220.3V119.3Z" fill="black"/>
<path d="M239.4 121.8L238.7 119.4C239.3 119.5 239.9 119.6 240.7 119.6C242.3 119.6 245 119.2 245 116.5C245 115.2 243.9 114.5 242.5 114.5C241.8 114.5 241.3 114.6 240.9 114.7C241.8 116 242 116.2 242.4 117L240.3 117.8C240.1 117.4 239.6 116.4 238.8 115.4C237.6 115.9 236.7 116.3 235.2 117.2C235.7 118.3 236.3 119.4 236.8 120.6C237.5 122.3 239 126 239.7 128L237.5 128.9C236.2 124.5 235.4 122.3 233.5 118.1C231.7 119.2 230.7 120 230.1 120.5L228.7 118.7C229.1 118.5 229.3 118.4 229.7 118.2C230.2 117.9 232.3 116.7 232.7 116.4C232.6 116.3 232.5 116.1 232.5 116C231.7 114.7 230.6 113.1 229.9 112.1L232.4 111.2C232.6 111.1 232.9 111.2 232.9 111.4C232.9 111.5 232.7 112.1 232.7 112.2C233 112.7 233.1 112.8 233.7 114L234.4 115.4C235.6 114.7 237 114.1 237.7 113.8C236.8 112.8 235.9 111.9 234.9 111L237 110C238 111 238.9 112 239.8 113C240.3 112.8 241.3 112.6 242.6 112.6C245.1 112.6 247.1 114.2 247.1 116.5C247 118.3 246 121.8 239.4 121.8Z" fill="black"/>
<path d="M253 129.2C251.7 127.3 250.3 125.9 248.4 124.7L249.9 123.2C252.6 125 253.9 126.6 254.6 127.4L253 129.2Z" fill="black"/>
<path d="M286.2 124.7C285.5 124 284.7 123.5 283.9 122.9C282.6 125.8 280.7 127.4 279 128.8L277.3 127.1C279 126.4 281 124.7 282.2 121.9C280.6 121 279.3 120.4 277.1 120.2C275.3 123.7 274.8 124.5 274.1 125.5C273.6 126.1 273 126.7 271.9 126.7C270.2 126.7 269.3 125.2 269.3 123.8C269.3 120.6 272.6 118.1 275.9 118.2C276.2 117.5 276.9 115.7 277.4 114.6C277.5 114.4 277.9 113.3 278 113.1C277.3 113.3 275 113.6 273.8 113.6L273 111.7C276.3 111.7 277.7 111.6 280 110.6L281.1 111.9C280.3 113 280.1 113.3 278.8 116.1C278.7 116.3 278 118 277.9 118.4C279.6 118.7 281.3 119.2 282.9 120C283 119.5 283.4 117.9 283.4 116.1C283.4 115.7 283.4 115.4 283.4 115.1L286 115.7C286.2 115.7 286.4 115.8 286.4 116C286.4 116.2 286.2 116.4 285.6 116.7C285 119.8 284.9 120.1 284.7 120.8C286 121.5 286.7 122 287.6 122.7L286.2 124.7ZM272.2 121.3C271.4 122 271.1 123.1 271.1 123.6C271.1 124.3 271.5 124.6 271.9 124.6C272.2 124.6 272.5 124.4 272.7 124.2C273.3 123.5 273.7 122.7 275 120.1C274.4 120.2 273.3 120.3 272.2 121.3Z" fill="black"/>
<path d="M300.7 115.1C298.7 115.6 297.9 115.7 297 115.8C296.5 117.3 294.7 121.9 292.7 125.1L290.7 124C291.6 122.7 292.9 120.9 294.9 115.9C294.1 116 294 116 291.9 116L291.7 114C292.3 114.1 292.9 114.2 294 114.2C294.6 114.2 295 114.2 295.5 114.1C296.1 112.5 296.4 110.9 296.5 109.9L298.8 110.5C299.3 110.6 299.3 110.6 299.3 110.8C299.3 111 299.2 111 298.6 111.3C298 112.9 297.9 113.2 297.7 113.9C298.7 113.8 299.4 113.6 300.9 113.2L300.7 115.1ZM306.9 118.2C306.5 118.1 306 118 305.2 118C302.6 118 302.1 119.1 302.1 120.3C302.1 121 302.2 121.2 302.7 123.2C302.7 123.2 302.7 123.4 302.7 123.5C304.7 124.2 305.5 124.5 307.3 125.7L306.1 127.5C304.4 126.2 303.9 125.9 303 125.6C303 126.4 303 127.3 302.4 128C301.8 128.7 300.7 129.1 299.3 129.1C296.9 129.1 294.9 127.7 294.9 125.8C294.9 124.4 296.1 122.9 299.1 122.9C299.7 122.9 300.2 123 300.7 123C300.3 121.4 300.1 120.6 300.1 119.9C300.1 119.7 300.1 118.6 300.8 117.8C301.6 116.9 302.8 116.8 304.4 116.7C303.4 116.1 302.9 116 301.4 115.7L302.4 114.1C303.5 114.3 305.3 114.8 307.8 116.5L306.9 118.2ZM300.8 124.9C299.9 124.7 299.5 124.6 299 124.6C297.7 124.6 296.9 125 296.9 125.9C296.9 126.9 298.4 127.3 299.3 127.3C300.5 127.3 301 126.6 301 125.8C300.9 125.5 300.8 125.1 300.8 124.9Z" fill="black"/>
<path d="M325.2 123.6C322.8 121.7 320 121.6 319.5 121.6C317 121.6 316 123.1 316 124.2C316 127 319.6 127 320.3 127C321.5 127 322.8 126.8 324 126.5L324.4 128.6C323.1 128.8 321.7 128.9 320.4 128.9C317.4 128.9 316.1 128.2 315.2 127.2C314.4 126.4 314.1 125.2 314.1 124.2C314.1 122.5 315.3 119.8 319.2 119.8C320.9 119.8 322.3 120.3 323.2 120.6C322.2 119.3 321.3 118 320.4 116.2C318.1 116.9 316.6 117.2 313.9 117.4L312.8 115.5C313.5 115.6 313.8 115.6 314.1 115.6C315.9 115.6 317.8 115.2 319.5 114.7C319.2 114 317.8 111 317.5 110.4L319.7 110.1C319.8 110.1 320.3 110.1 320.3 110.1C320.5 110.1 320.6 110.3 320.6 110.4C320.6 110.5 320.5 110.6 320.4 110.7C320.3 110.8 320.2 111.1 320.1 111.1C320.4 112.3 320.7 113 321.2 114.1C322.3 113.7 323.2 113.3 324.8 112.1L325.8 113.9C323.9 114.9 323 115.3 322 115.7C323 117.7 324.7 120.1 326.4 121.7L325.2 123.6Z" fill="black"/>
<path d="M344.3 128.3C342.4 128.3 341.4 127.2 341.4 125.7C341.4 125.4 341.4 125.3 341.6 124.1C341.7 123.3 341.9 122.1 341.9 121.6C341.9 120.6 341 120.5 340.6 120.5C338.1 120.5 336 122.7 333.5 127.9L331.3 127C332.6 125 333.2 123.9 334.6 121.5L337.7 115.9C338 115.4 339.3 112.9 339.5 112.5C339.8 111.9 340 111.5 340.4 110.7L342.8 111.9C343 112 343.1 112.1 343.1 112.3C343.1 112.6 342.7 112.7 342.2 112.9C341.3 114.1 340.5 115.4 339.7 116.7L337.8 119.9C338.6 119.4 340 118.6 341.3 118.6C342.2 118.6 343.3 119 343.7 119.6C344 120 344.1 120.6 344.1 121.2C344.1 122 343.9 123.2 343.8 123.7C343.7 124.2 343.6 125 343.6 125.2C343.6 126 344.2 126.3 344.7 126.3C345.5 126.3 346.3 125.6 347.3 124.6C348.2 123.7 348.4 123.3 348.6 123.1L349.8 124.9C349 125.9 347.1 128.3 344.3 128.3Z" fill="black"/>
<path d="M363.9 128.1L362.2 126.3C363.5 126 365.7 125.4 367.1 123.8C368.4 122.3 368.8 120.2 368.8 118.9C368.8 115.8 366.5 114.3 365.4 113.8C364.1 113.1 363.2 113.2 362.4 113.2C362 115.9 361.5 119.8 359.6 123.9C359.2 124.8 358.1 127.2 356.8 127.2C356 127.2 355.3 126.8 354.9 126.5C354.1 125.8 352.2 123.9 352.2 120.6C352.2 119 352.7 116.5 354.6 114.5C357.7 111.4 360.5 111.4 361.8 111.4C363.8 111.4 366.5 111.8 368.7 114.2C370 115.6 370.7 117.5 370.7 119.5C370.7 124.6 366.9 127.2 363.9 128.1ZM359.7 113.2C357.8 113.5 354.2 115.8 354.2 120.2C354.2 122.2 355.4 124.2 356.3 124.2C357.1 124.2 357.6 122.9 357.9 122.3C359.5 118.6 360.1 114.9 360.3 113.1C360.1 113.2 359.9 113.2 359.7 113.2Z" fill="black"/>
<path d="M6.79999 161.5L6.29999 166.7H4.99999L5.49999 161.5H1.79999V159.1H5.69999L6.19999 154.1H2.29999V151.7H6.39999L6.89999 146.6H8.19999L7.69999 151.7H11.6L12.1 146.6H13.4L12.9 151.7H16.6V154.1H12.7L12.2 159.1H16.1V161.5H12L11.5 166.7H10.2L10.7 161.5H6.79999ZM10.9 159.1L11.4 154.1H7.49999L6.99999 159.1H10.9Z" fill="white"/>
<path d="M32.1 165.8L30.8 164.1C33.9 163.7 36.1 161.9 36.1 159.4C36.1 158.8 35.9 156.5 33.3 156C32.6 158.1 31.4 160 29.9 161.7C30 162.1 30.1 162.2 30.4 163.1L28.6 164.3C28.3 163.6 28.3 163.6 28.2 163.2C27.4 163.9 26.2 164.9 24.5 164.9C23 164.9 21.8 164 21.8 161.9C21.8 158.8 24.1 156.1 27.1 155.1C27 154.3 27.2 153.2 27.3 152.7C25.1 152.9 24.5 152.9 23.6 152.9L22.8 150.8C23.4 151 24 151.1 25.7 151.1C26.4 151.1 26.8 151.1 27.3 151C27.5 148.9 27.6 148.6 27.9 146.9L30.2 147.5C30.6 147.6 30.6 147.6 30.6 147.8C30.6 148 30.5 148.1 29.9 148.5C29.7 149.1 29.6 149.6 29.4 150.7C32.1 150.3 33.5 149.9 35.5 149L35.3 151.1C33 151.7 31.7 152 29 152.4C28.8 153.4 28.8 153.8 28.8 154.5C29.5 154.3 29.9 154.1 31.6 154.2C31.8 153.4 31.8 153.3 31.8 152.9L34 153.2C33.9 153.5 33.9 153.6 33.6 154.5C34.3 154.7 35.6 155.1 36.6 156.2C37.6 157.3 37.9 158.7 37.9 159.6C38.1 161.8 36.2 164.8 32.1 165.8ZM27.1 156.8C26.5 157.1 26 157.4 25.2 158.3C24.5 159.1 23.8 160.1 23.8 161.6C23.8 162.7 24.7 162.9 25 162.9C25.4 162.9 25.9 162.7 26.2 162.5C26.9 162.1 27.3 161.7 27.6 161.3C27.3 159.7 27.2 157.6 27.1 156.8ZM29 156.1C29.1 158 29.2 158.5 29.4 159.5C30.4 158.1 31 156.9 31.4 155.7C30.3 155.7 29.8 155.8 29 156.1Z" fill="white"/>
<path d="M54.2 152.3C53.1 152.6 52.2 152.9 50 153.2C49.7 154.1 48.4 158.1 48.1 158.9C47 161.8 46.2 163.6 45.4 165.2L43.1 164.4C44.8 161.9 46.8 157.7 47.8 153.4C47.3 153.5 46.7 153.6 45.7 153.6C45 153.6 44.5 153.6 43.9 153.5V151.5C44.5 151.6 45.4 151.7 46.4 151.7C47.2 151.7 47.7 151.6 48.3 151.5C48.5 150.7 48.6 150.1 49 146.8L51.5 147.2C51.9 147.3 52.1 147.3 52.1 147.6C52.1 147.9 51.9 148 51.4 148.1C51 149.5 50.9 149.9 50.6 151.3C51.6 151.2 52.5 151 54.4 150.2L54.2 152.3ZM59.5 165.1C58.6 165.1 57.9 165.1 57.3 165.1C52.8 165.1 52 164.8 51.3 164.3C51 164.1 50.5 163.7 50.5 163C50.5 161.7 51.6 160.5 52 160L53.6 160.8C53.1 161.3 52.5 161.9 52.5 162.4C52.5 163.3 55.3 163.3 56.1 163.3C58.5 163.3 59.1 163.1 59.8 162.9L59.5 165.1ZM59.9 156.2C59.5 156.1 58.7 155.8 56.8 155.8C54.6 155.8 53.6 156 52.9 156.2L53 154.3C53.7 154.3 54.8 154.2 56.3 154.2C57.8 154.2 58.8 154.2 59.8 154.3L59.9 156.2Z" fill="white"/>
<path d="M77.3 163.9C75.5 165.1 73.7 165.3 69.3 165.6L68.3 163.3C70.6 163.3 72.3 163.3 73.9 163.1C75.8 162.9 77.6 161.4 77.6 159.5C77.6 158.9 77.3 156.6 74.5 156.6C72 156.6 69.9 158.3 68.4 160.1L66.4 159.2C66.4 158.8 66.7 156.9 66.8 156.5C67.1 154.7 67.4 152.5 67.8 150.8L70.2 151.4C70.4 151.5 70.6 151.5 70.6 151.8C70.6 152 70.4 152.1 70.3 152.2C70 152.4 69.9 152.4 69.7 152.5C69.1 154.4 68.8 156.2 68.7 157.1C70.6 155.7 72.5 154.8 74.8 154.8C76.9 154.8 79.9 156 79.9 159.5C79.8 161.1 79.2 162.7 77.3 163.9ZM75.2 151C72.6 149.5 70.1 149.3 69 149.2L69.7 147.2C71.9 147.4 74.4 148.1 76.1 148.9L75.2 151Z" fill="white"/>
<path d="M99.1 163.1C97.4 164.6 95.1 165.1 94 165.1C92.7 165.1 91.2 164.6 90.1 163.3C89.1 162.1 89 161.1 89 159.1C89 158 89.2 153 89.2 152C89.2 150.6 89.2 148.4 89 147L91.5 147.4C92 147.5 92.2 147.5 92.2 147.8C92.2 148 92.1 148 91.5 148.4C91.4 148.9 91.4 149.5 91.3 150.4C91.2 152 91 157.5 91 158.4C91 160.5 91.1 161.1 91.6 161.8C92.3 162.7 93.4 163.1 94.2 163.1C95.3 163.1 97.1 162.5 98.3 161.1C99.8 159.4 100.4 157.7 100.7 156.9L102.4 158.5C101.6 160.3 100.6 161.9 99.1 163.1Z" fill="white"/>
<path d="M112.5 163.9C111.3 163.9 110.3 162.8 109.9 162.4C108.2 160.4 107.5 158.2 107.5 154.7C107.5 153.8 107.5 153.4 107.9 149.9C107.9 149.8 107.9 149.4 108 149.3L110 150C110.4 150.2 110.7 150.2 110.7 150.5C110.7 150.7 110.5 150.8 110.2 151C110 151.7 109.7 153 109.7 154.9C109.7 158.5 111.2 161.2 112.3 161.2C113.4 161.2 114 158.7 114.3 157.5L115.6 158.8C115 160.8 114.1 163.9 112.5 163.9ZM123.2 159.4C123.1 157.5 122.7 155.7 121.9 153.9C120.8 151.5 120.2 150.9 119.8 150.4L121.8 149.5C124.1 152.3 125.5 156.7 125.7 158.7L123.2 159.4Z" fill="white"/>
<path d="M135.9 151.5C135.8 151.9 135.7 152.1 135.2 154.3C134.5 156.9 133.7 158.6 132.5 160.6C131.5 162.3 130.9 163 130.4 163.5L128.2 162.4C132.2 158.7 133.5 152.3 133.7 149.9L136.3 150.6C136.6 150.7 136.7 150.8 136.7 150.9C136.8 151.1 136.7 151.1 135.9 151.5ZM145.1 162.8C144.8 160.9 144.4 159.1 143.3 156.6C142.5 154.6 141.4 152.7 140.1 151.1L141.9 149.9C145.1 154.1 146.9 159.5 147.5 162L145.1 162.8Z" fill="white"/>
<path d="M164.9 163.6C165 163.1 165 163.1 165.1 162.3H154.4C154.4 162.6 154.4 163.2 154.4 163.6H151.9C152 163 152.1 162.1 152.1 160.7C152.1 158.6 152.1 158.3 152.1 158.1V153.5C152.1 152.8 152 149.5 152 148.9C153.3 149 156 149.1 157.4 149.1H162.1C163.7 149.1 166 149.1 167.5 149C167.4 150.1 167.4 152.7 167.4 154V158.4C167.4 158.8 167.5 160.7 167.5 161.1C167.5 162.7 167.6 163.2 167.7 163.7H164.9V163.6ZM165.1 151.1H154.3V160.3H165.1V151.1Z" fill="white"/>
<path d="M188.6 153.7C188.4 154.9 187.6 158.1 186.4 160.2C185.9 160.9 183.5 164.8 180.4 166L178.3 164.5C179.2 164.2 180.9 163.7 183.2 161C184.4 159.6 185.2 158.3 185.9 156.2C186.5 154.2 186.5 152.9 186.6 152.3H175.6V154.8C175.6 155.1 175.6 156.6 175.7 157.7H173.3C173.5 156.4 173.5 155.6 173.5 155.4V153.4V153C173.5 151.7 173.4 151 173.3 150.6C175.6 150.8 175.9 150.8 176.1 150.8H178.2H180.1V149.2C180.1 148.3 180.1 147.4 180 146.5L182.3 146.8C182.5 146.8 182.9 146.9 182.9 147.2C182.9 147.5 182.5 147.6 182.4 147.6C182.3 148.4 182.2 149.3 182.2 149.7V150.8H183C184.1 150.8 185.2 150.8 186 150.7C186.7 150.6 187.1 150.5 187.5 150.3L189.2 151.8C188.8 152.4 188.8 152.7 188.6 153.7Z" fill="white"/>
<path d="M208.2 152.8C207.9 152.8 207.8 152.8 207.6 153.1C206.8 154 206.2 154.6 204.3 156.1V162.4C204.3 163.1 204.4 165.1 204.5 166H202.5C202.6 164.7 202.6 163.8 202.6 162.5V157.4C200.7 158.7 199.5 159.3 197.8 160.2L196 158.6C198.2 157.7 200 157.1 202.9 154.8C205.1 153.1 205.9 152 206.9 150.7L208.4 151.9C208.6 152.1 208.8 152.3 208.8 152.5C208.8 152.8 208.7 152.8 208.2 152.8Z" fill="white"/>
<path d="M218.8 164.1C218.8 164.2 218.6 164.5 218.6 164.6C218.6 164.7 218.5 164.7 218.4 164.7C218.2 164.7 218.2 164.6 217.9 164.2L216.7 161.9C220.1 161.4 228 158 232.2 152.6L233.1 154.7C228.7 159.8 221.8 162.8 218.8 164.1ZM221.8 152.7C220.3 151.3 218.1 150.1 217 149.7L218.2 147.7C221.5 149.3 222.5 150.2 223 150.8L221.8 152.7Z" fill="white"/>
<path d="M258.9 155.9C258.8 155.9 258.3 155.8 258.1 155.8C256.9 156.1 256.8 156.1 254.1 157.3C254.1 157.9 254.1 160.8 254.1 161.4L251.7 161.6C251.8 160.9 251.9 159.8 252 158.2C250.6 158.9 249.8 159.4 249.1 160.1C248.6 160.6 248.2 161.4 248.2 162C248.2 163.7 250.6 163.9 252.4 163.9C253.5 163.9 255.7 163.7 257.4 163.2L256.8 165.5C256.6 165.5 256.5 165.5 255.2 165.6C254.7 165.6 254.1 165.7 253.1 165.7C249.1 165.7 248.1 165.2 247.3 164.5C246.6 163.9 246.1 162.9 246.1 162C246.1 159.1 249.7 157.1 251.7 156.1C251.5 155.5 251.2 154.8 250.1 154.8C248.9 154.8 247.7 155.7 247 156.4C246.1 157.3 245.4 158.4 244.9 159.2L243 158.1C245.3 155.8 246.5 153.9 247.6 151.6C246.1 151.8 245.4 151.9 244.1 151.9L243.7 149.8C244.3 149.8 244.9 149.9 245.8 149.9C246.9 149.9 247.7 149.8 248.4 149.7C249 148.2 249.2 147.4 249.5 146.4L251.9 146.8C252.1 146.8 252.3 146.9 252.3 147.2C252.3 147.4 252.3 147.5 251.5 147.9C251.1 148.6 251.1 148.8 250.8 149.4C252.9 149 254.2 148.7 255.5 148.2L255.3 150.3C254.1 150.6 251.3 151.1 250 151.3C249.5 152.3 249.1 152.9 248.7 153.5C249.1 153.3 250.3 152.9 251.1 152.9C251.9 152.9 253.1 153.4 253.6 154.6C253.7 154.8 253.8 155 253.8 155.2C256.7 154 256.8 154 257.8 153.4L259.2 155.2C259.3 155.3 259.3 155.4 259.3 155.5C259.3 155.8 259.1 155.9 258.9 155.9Z" fill="black"/>
<path d="M273.6 164.7C271.9 164.7 268.3 164.6 266.6 163.7C265.5 163.2 264.8 162.4 264.8 161.2C264.8 159.8 265.8 158.4 267.2 157.2L268.6 158.5C267.9 159.2 267 160 267 160.9C267 162.5 269.4 162.8 272.4 162.8C274.9 162.8 277.2 162.5 279.7 162L280 164.2C277.8 164.6 275.7 164.7 273.6 164.7ZM274.1 150.8C273.5 150.8 272.7 150.8 271.7 150.8C270.6 150.8 270.3 151 267.3 150.7H267.1L266.7 148.6C268.4 148.8 269.8 149 272.1 149C274.1 149 276.1 148.9 278.1 148.5V150.6C277.5 150.6 274.7 150.8 274.1 150.8ZM280.7 151.7C280.5 151.5 280.1 151 279.6 150.6C278.7 149.8 278.6 149.7 278.5 149.6L279.6 148.4C280.4 149 281.2 149.8 281.8 150.6L280.7 151.7ZM282.4 149.1C281.8 148.1 280.6 147.2 280.2 146.9L281.4 145.9C282.5 146.6 283.1 147.4 283.4 148L282.4 149.1Z" fill="black"/>
<path d="M293.7 158.2C293.6 157.8 293.5 157.4 293.3 156.7C293.1 156.7 293 156.8 291.8 157V161.4C291.8 163.7 291.8 164.8 292 166.2H290C290.1 165.3 290.2 164 290.2 161.4V157.2C289.8 157.3 288.2 157.5 287.9 157.5C287.7 157.8 287.5 158 287.4 158C287.2 158 287.1 157.8 287.1 157.6L286.7 155.6C287.5 155.6 287.9 155.6 288.4 155.5C289.1 154.8 289.6 154.1 289.8 153.8C288.6 151.9 287.2 151 286.6 150.6L287.9 149.3C288.2 149.5 288.5 149.6 288.8 149.9C289.9 148.5 290.6 146.9 290.9 146.2L292.7 147.2C292.8 147.2 292.9 147.3 292.9 147.5C292.9 147.8 292.6 147.8 292.3 147.8C292 148.4 291.3 149.8 290.1 151.1C290.5 151.6 290.8 151.9 291 152.2C291.7 151.1 292.1 150.4 292.8 149.1L294.6 150.1C294.7 150.1 294.8 150.3 294.8 150.4C294.8 150.7 294.6 150.7 294.1 150.7C292.9 152.7 291.7 154.3 290.7 155.4C291.2 155.4 291.4 155.4 292.6 155.2C292.3 154.6 292.1 154.3 291.9 154L293.6 153.3C294.8 154.8 295.3 156.2 295.6 157.1L293.7 158.2ZM289.3 159.8C289.3 161.4 289.1 163.1 288.4 164.6L286.4 164.1C287.2 162.6 287.5 160.6 287.5 158.8L289.3 159.1C289.5 159.1 289.6 159.3 289.6 159.4C289.7 159.6 289.4 159.8 289.3 159.8ZM293.2 163.5C293.2 161.8 292.9 160.4 292.4 158.9L294.1 158.3C295 160.1 295.2 161.5 295.2 162.9L293.2 163.5ZM305.3 154.1C304.5 155.9 303.4 155.9 301.8 156L300.4 153.7C300.7 153.7 302 153.8 302.2 153.8C302.8 153.8 303.2 153.7 303.5 153C303.8 152.4 304 151.1 304 148.7H300.3C300.1 150.6 299.9 153.8 296.3 155.9L294.5 154.5C296.9 153.5 298.2 152.3 298.4 148.8C296.6 148.8 296.1 148.8 295.2 148.9V147C296.4 147.1 298.6 147.1 299.1 147.1H302.3C304 147.1 304.4 147.1 306.1 147C306.1 149.4 306 152.4 305.3 154.1ZM303.5 166.1C303.5 165.9 303.6 165.4 303.6 165H297.9C297.9 165.4 297.9 165.5 298 166.1H295.9C295.9 165.6 296 164.6 296 163.1V159.8C296 159 296 157.4 295.9 156.6C296.9 156.7 297.6 156.7 299.3 156.7H302.6C304.8 156.7 305 156.6 305.7 156.6C305.6 157.5 305.6 158.2 305.6 159.8V162.9C305.6 164.2 305.7 165.3 305.8 166.1H303.5ZM303.7 158.5H297.9V163.3H303.7V158.5Z" fill="black"/>
<path d="M328.3 156.3C323.1 154.2 321 151.6 319.5 149C317.5 152 315.2 154.5 311.2 156.6L309.2 154.6C313.5 153.2 316.9 149.8 318.1 146.3L321.1 147C321.6 147.1 321.7 147.2 321.7 147.4C321.7 147.6 321.5 147.7 321.3 147.9C321.7 148.8 323.3 150.5 324.5 151.4C326.7 153.2 328.9 153.8 330 154L328.3 156.3ZM317.8 155.6C317.6 158.4 317.5 160.6 316.1 163.1C315 165.1 313.4 166 312.5 166.4L310.4 164.7C311.2 164.5 312.7 164 314.1 162C314.4 161.6 315.1 160.5 315.4 158.3C315.5 157.4 315.6 156.6 315.6 156C315.6 155.3 315.6 154.9 315.5 154.6L317.8 154.7C318.3 154.7 318.5 154.9 318.5 155.1C318.4 155.3 318.2 155.4 317.8 155.6ZM324.3 155.9V159V161.9C324.3 162.6 324.4 165.5 324.5 166.2H322C322 165.9 322.1 163 322.1 162.4V158.8C322.1 157.7 322 155.6 322 154.7L324.2 154.8C324.4 154.8 324.9 154.8 324.9 155.2C324.9 155.4 324.8 155.6 324.3 155.9Z" fill="black"/>
<path d="M345.5 163.1C343.8 164.6 341.5 165.1 340.4 165.1C339.1 165.1 337.6 164.6 336.5 163.3C335.5 162.1 335.4 161.1 335.4 159.1C335.4 158 335.6 153 335.6 152C335.6 150.6 335.6 148.4 335.4 147L337.9 147.4C338.4 147.5 338.6 147.5 338.6 147.8C338.6 148 338.5 148 337.9 148.4C337.8 148.9 337.8 149.5 337.7 150.4C337.6 152 337.4 157.5 337.4 158.4C337.4 160.5 337.5 161.1 338 161.8C338.7 162.7 339.8 163.1 340.6 163.1C341.7 163.1 343.5 162.5 344.7 161.1C346.2 159.4 346.8 157.7 347.1 156.9L348.8 158.5C348 160.3 346.9 161.9 345.5 163.1Z" fill="black"/>
<path d="M360.8 156.1C360.6 156.7 360.3 157.6 360.3 158.5C360.3 161 362.8 162.4 364.4 162.9C365.4 163.2 366 163.2 366.7 163.2L366 165.5C363.4 165 361.5 164.4 359.9 162.8C358.6 161.6 358.1 160.1 358.1 158.5C358.1 156.8 358.9 154.9 360 153.5C361.3 151.8 362.6 150.9 363.4 150.3C360.9 150.5 356.1 151 352.9 151.9L352.6 149.4C354.9 149.4 356.8 149.3 361.1 148.8C364 148.4 366.9 148 369.7 147.3V149.7C365.4 149.8 361.9 153.4 360.8 156.1Z" fill="black"/>
<path d="M5.29999 200.7C4.09999 200.7 3.09999 199.6 2.69999 199.2C0.999989 197.2 0.299988 195 0.299988 191.5C0.299988 190.6 0.299989 190.2 0.699989 186.7C0.699989 186.6 0.699988 186.2 0.799988 186.1L2.79999 186.8C3.19999 187 3.49999 187 3.49999 187.3C3.49999 187.5 3.29999 187.6 2.99999 187.8C2.79999 188.5 2.49999 189.8 2.49999 191.7C2.49999 195.3 3.99999 198 5.09999 198C6.19999 198 6.79999 195.5 7.09999 194.3L8.39999 195.6C7.89999 197.6 6.99999 200.7 5.29999 200.7ZM16.1 196.1C16 194.2 15.6 192.4 14.8 190.6C13.7 188.2 13.1 187.6 12.7 187.1L14.7 186.2C17 189 18.4 193.4 18.6 195.4L16.1 196.1Z" fill="black"/>
<path d="M35.9 201.5C34.8 200.6 32.8 199.1 30.7 198.6C30.7 199 30.7 199.1 30.7 199.3C30.7 202 28.2 202.2 27.1 202.2C24.3 202.2 22.3 200.7 22.3 199.1C22.3 197.2 25.1 196.2 26.9 196.2C27.6 196.2 28.5 196.3 28.7 196.3C28.7 196 28.7 195.8 28.7 195.6C28.7 195.2 28.6 193.7 28.6 193.4C27.5 193.4 25.4 193.5 24.3 193.3C23.9 193.3 22.6 193.1 22.6 192C22.6 191.2 23.4 190.5 25.1 189.4L26.2 190.4C25.6 190.8 25 191.1 25 191.3C25 191.6 25.2 191.7 25.4 191.7C25.6 191.8 26.4 191.8 27 191.8C27.4 191.8 27.5 191.8 28.5 191.8C28.5 190.9 28.5 190.6 28.4 188.4C24.9 188.5 23.6 188.6 21.8 188.8V186.8H28.3C28.3 185.5 28.3 184.4 28.2 183.7L30.8 183.9C30.9 183.9 31.2 183.9 31.2 184.2C31.2 184.5 31 184.6 30.5 184.8C30.5 185.5 30.4 186 30.4 186.8H36.6V188.8C35 188.6 34.9 188.6 30.4 188.4C30.4 189.6 30.4 190.4 30.4 191.7C31 191.7 33.5 191.4 35.9 190.7V192.6C34.5 193 31.8 193.3 30.5 193.3C30.5 193.8 30.6 196.1 30.6 196.5C32.8 196.8 35.9 198.4 36.8 199.2L35.9 201.5ZM26.8 198C26.1 198 24.5 198.4 24.5 199.3C24.5 200 25.7 200.5 26.6 200.5C27 200.5 28.4 200.4 28.7 199.4C28.8 199 28.8 198.6 28.8 198.3C28.5 198.2 27.5 198 26.8 198Z" fill="black"/>
<path d="M54.7 188.2C53.3 188.2 52.8 188.2 51.9 188.3C51.9 188.8 51.7 190.9 51.7 191.4C52.1 192.2 52.7 193.3 52.7 195C52.7 195.8 52.5 199.9 49.1 203.1L46.6 202.1C47.2 201.8 47.9 201.5 48.7 200.5C49.7 199.4 49.9 198.4 50.1 197.7C49.7 198 49.3 198.2 48.4 198.2C46.3 198.2 45.3 196.2 45.3 194.5C45.3 192.6 46.5 190.3 48.8 190.3C49.2 190.3 49.7 190.3 49.8 190.4C49.8 189.8 49.8 189.7 49.8 188.4C48.2 188.4 43.7 188.7 41 189.2L40.8 186.9C41.4 186.9 41.5 186.9 42.2 186.9C43 186.9 46.5 186.8 47.2 186.7C48.2 186.7 48.7 186.7 49.8 186.7C49.8 185.7 49.8 184.5 49.5 183.1L51.9 183.2C52.3 183.2 52.7 183.2 52.7 183.6C52.7 183.8 52.5 183.9 52.5 183.9C52.3 184.1 52.3 184.1 52.1 184.3C52 184.9 52 185 51.9 186.6C52.9 186.6 56.7 186.4 58.7 186.1L58.8 188.3C56.8 188.2 55.2 188.2 54.7 188.2ZM48.9 192.3C48 192.3 47.3 193.3 47.3 194.6C47.3 196 48.2 196.5 48.6 196.5C50 196.5 50.2 195.1 50.2 194.3C50.3 193 49.6 192.3 48.9 192.3Z" fill="black"/>
<path d="M63.6 202.7C61.8 202.7 60.4 201.2 60.4 199.4C60.4 197.6 61.9 196.1 63.6 196.1C65.3 196.1 66.8 197.6 66.8 199.4C66.8 201.2 65.3 202.7 63.6 202.7ZM63.6 197.1C62.4 197.1 61.4 198.1 61.4 199.4C61.4 200.6 62.4 201.7 63.6 201.7C64.8 201.7 65.8 200.7 65.8 199.4C65.8 198.1 64.8 197.1 63.6 197.1Z" fill="black"/>
<path d="M156.4 32.7002C156.4 41.2002 151 47 138.8 47C131.3 47 124.8 43.8999 121.4 38.8999L127.9 33.1001C131 36.7001 135.1 38.2002 139.4 38.2002C144.7 38.2002 147.2 36.6998 147.2 33.2998C147.2 30.3998 145.7 29.1002 137.2 27.2002C128.9 25.3002 123.2 22.6998 123.2 13.7998C123.2 5.6998 130.4 0.700195 139.2 0.700195C146.2 0.700195 151.3 3.3002 155.5 7.7002L149 14C146.1 11.1 142.9 9.3999 138.8 9.3999C134 9.3999 132.4 11.3999 132.4 13.3999C132.4 16.1999 134.3 17.0998 141.4 18.7998C148.6 20.4998 156.4 23.0002 156.4 32.7002Z" fill="white"/>
<path d="M201.4 46.2998H193.4L177 21.8999C175.9 20.1999 174.4 17.9998 173.9 16.7998C173.9 18.4998 174 24.1001 174 26.6001V46.2998H165.2V1.5H173.8L189.7 25.2002C190.8 26.9002 192.3 29.0998 192.8 30.2998C192.8 28.5998 192.7 23 192.7 20.5V1.6001H201.5V46.2998H201.4Z" fill="white"/>
<path d="M244.9 32.7002C244.9 41.2002 239.5 47 227.3 47C219.8 47 213.3 43.8999 209.9 38.8999L216.4 33.1001C219.5 36.7001 223.6 38.2002 227.9 38.2002C233.2 38.2002 235.7 36.6998 235.7 33.2998C235.7 30.3998 234.2 29.1002 225.7 27.2002C217.4 25.3002 211.7 22.6998 211.7 13.7998C211.7 5.6998 218.9 0.700195 227.7 0.700195C234.7 0.700195 239.8 3.3002 244 7.7002L237.5 14C234.6 11.1 231.4 9.3999 227.3 9.3999C222.5 9.3999 220.9 11.3999 220.9 13.3999C220.9 16.1999 222.8 17.0998 229.9 18.7998C237 20.4998 244.9 23.0002 244.9 32.7002Z" fill="white"/>
</svg>
