<svg width="297" height="222" viewBox="0 0 297 222" fill="none" xmlns="http://www.w3.org/2000/svg">
<path d="M150.6 221.2L156.4 217.2L167.3 221.1L177.7 191.8L162.9 199.2L158.9 194.7L150.6 200.5L142.4 194.7L138.3 199.2L123.6 191.8L134 221.1L144.8 217.2L150.6 221.2Z" fill="black"/>
<path d="M113 207.9C113 206.8 113.5 203.3 118.1 203.3H141.9V199.6H117.9C111.3 199.6 109.1 204.7 109.1 207.9C109.1 211.1 111.4 216.2 117.9 216.2H142.8V212.5H118.1C113.5 212.6 113 209 113 207.9Z" fill="black"/>
<path d="M188.3 207.9C188.3 206.8 187.8 203.3 183.2 203.3H159.4V199.6H183.4C190 199.6 192.2 204.7 192.2 207.9C192.2 211.1 189.9 216.2 183.4 216.2H158.5V212.5H183.2C187.7 212.6 188.3 209 188.3 207.9Z" fill="black"/>
<path d="M150.8 64.9999C150.8 79.8999 142.1 88.1999 130.4 88.1999C118.8 88.1999 110.2 80.0999 110.2 65.1999C110.2 50.2999 118.9 41.9999 130.6 41.9999C142.2 41.8999 150.8 50.0999 150.8 64.9999ZM138 65.1C138 56.9 135.2 52.6 130.4 52.6C125.6 52.6 122.9 56.7999 122.9 64.9999C122.9 73.1999 125.7 77.4999 130.5 77.4999C135.3 77.4999 138 73.3 138 65.1Z" fill="black"/>
<path d="M189.2 87.3999H152.6C153 72.2999 160.1 65 171.3 60C176 57.9 176.7 57.1999 176.7 55.3999C176.7 53.3999 175.3 52.3 171.7 52.3C167.2 52.3 162.9 53.8 158.4 56.8L152.7 47.6001C158.4 44.0001 164.2 41.8 171.9 41.8C183 41.8 188.9 46.2999 188.9 54.3999C188.9 60.2999 186.9 63.9 178.3 67.8C169.3 72 166.8 74.5001 165.9 77.1001H189.3V87.3999H189.2Z" fill="black"/>
<path d="M11.8 120.2L11.4 125.1H15.6V128.4H11.2L10.7 133.6H8.99998L9.49998 128.4H5.79998L5.29998 133.6H3.59998L3.99998 128.4H0.0999756V125.1H4.29998L4.69997 120.2H0.599976V116.9H4.99998L5.49998 111.7H6.99998L6.59998 116.9H10.3L10.7 111.7H12.4L12 116.9H16V120.2H11.8ZM6.29998 120.2L5.89998 125.1H9.59998L9.99998 120.2H6.29998Z" fill="black"/>
<path d="M38.8 123.4H36.3V127.1C36.3 127.9 36.4 131.3 36.4 132C36.4 133.8 36.4 135.5 32.2 135.5C31.5 135.5 30.5 135.5 29.8 135.3L28.8 131.8C30.2 132.1 31.3 132.2 31.8 132.2C32.1 132.2 32.8 132.2 33.1 131.6C33.2 131.4 33.2 130.3 33.2 130V123.4H30.1C27.2 123.4 24.2 123.5 21.3 123.7V120.6C24.3 120.8 28.8 120.8 30.1 120.8H33.2V116.1L34.7 116.5C36.1 115.3 37.5 114 38.7 112.7H29.8C29.1 112.7 24.9 112.9 24 113.2V109.9C26.2 110.1 28.1 110.1 30.7 110.1H35.8C36.7 110.1 40.7 109.9 41.5 109.9C42.4 109.8 43 109.8 43.5 109.7L44.9 111.7C43.5 112.7 41.6 114.2 41.4 114.4C38.2 117.1 37.9 117.4 36.3 118.6V120.9H38.8C41.8 120.9 44.7 120.9 47.7 120.7V123.8C43.9 123.4 39.1 123.4 38.8 123.4Z" fill="black"/>
<path d="M61.3 122.3C60 123 56.6 125.1 56.6 128C56.6 131.2 60 131.9 65 131.9C69 131.9 71.2 131.2 72.2 131V134.2C69.1 134.4 67.4 134.5 65.8 134.5C59.3 134.5 53.7 133.5 53.7 128.2C53.7 125.7 55.4999 122.4 60.3999 119.9C59.3999 118.8 59.4 118.7 59.2 115.9C58.9 112.8 58.8 111.6 58.3 109.2H61.8999C62.2999 109.2 62.8 109.2 62.8 109.7C62.8 110 62.4 110.3 62 110.5C61.8 111.1 61.8 111.4 61.8 112.5C61.8 117 62.5 118 63.1 118.8C64.3 118.3 69.5 116.5 70.6 116.1C71.3 115.8 71.8 115.6 72.3 115.3L73.1 118.7C67.7 119.4 62.4 121.7 61.3 122.3ZM71 113.6C70.5 112.7 69.8 111.8 68.5 110.2L70.3999 109.1C70.8999 109.8 71.8 111 72.7 112.4L71 113.6ZM74.8999 111.9C73.8999 110.1 73.2 109.3 72.7 108.7L74.7 107.7C75.7 108.9 76.5 110.3 76.8 110.9L74.8999 111.9Z" fill="black"/>
<path d="M93.5 135.5C89 135.5 85.4 133.1 85.4 129C85.4 128 85.7 126.4 86.1 124.9C80.7 124.3 79.9 123.2 79.9 122.1C79.9 120.5 82.3 119.4 84.3 118.6L85.7 120.3C85.5 120.4 83.9 121.2 83.8 121.2C83.6 121.3 83.5 121.5 83.5 121.7C83.5 122.4 86 122.7 86.6 122.7C87.4 119.9 87.5 119.6 88.2 117.5C86.4 117.2 84.6 116.8 82.8 116.3L83.2 113.7C85.9 114.5 86.6 114.6 89 115.1C90 112.1 90 111.8 90.9 108.7L94.5 109.8C94.8 109.9 94.8 110 94.8 110.2C94.8 110.4 94.6 110.6 94.5 110.7C94.4 110.8 93.8 111 93.7 111C93.1 112 93 112.4 91.8 115.6C92.2 115.6 93 115.7 94.1 115.7C95.5 115.7 96.3 115.6 96.9 115.5L96.1 118C95.7 118 95.3 118.1 94.7 118.1C93.6 118.1 92.1 118 90.8 118C89.9 120.4 89.5 121.8 89.2 123.1C89.7 123.1 90.9 123.2 92 123.2C93.9 123.2 95.1 123.1 95.9 122.9L95.1 125.5C94.5 125.5 93.9 125.6 92.7 125.6C91 125.6 89.4 125.5 88.7 125.4C88.6 125.9 88.2 127.5 88.2 128.6C88.2 131.6 90.8 133.1 93.4 133.1C96.5 133.1 99.4 131 99.4 127.8C99.4 127.2 99.4 125.2 97.2 122.5L99.7 121.1C101.7 124.2 102.3 125.9 102.3 127.8C102.3 132.5 98 135.5 93.5 135.5Z" fill="black"/>
<path d="M118.2 122.1C116.5 123 113.1 125 113.1 128.3C113.1 130 114.9 130.9 115.6 131.2C117.4 131.8 119.3 131.9 120.9 131.9C123.7 131.9 126.4 131.8 129 130.8L129.1 134C126.8 134.4 124.4 134.5 122 134.5C117.7 134.5 110.3 134.4 110.3 128.5C110.3 123.2 115.6 120.7 117.1 120C116.2 119.2 115.9 118.7 115.7 116.8C115.3 112.7 115.1 111.2 114.7 109.2L118 109.1C118.9 109.1 119.2 109.1 119.2 109.5C119.2 109.9 118.7 110.3 118.3 110.5C118.3 111.1 118.2 111.8 118.2 112.7C118.2 115.2 118.3 116 118.6 117C118.8 117.9 119.2 118.2 119.7 118.6C120.7 118.1 121.8 117.6 124.3 116.8C127.2 115.8 127.9 115.5 128.6 115.1L129.4 118.5C126 119.1 121 120.6 118.2 122.1Z" fill="black"/>
<path d="M156 119.9C155.1 120.9 151.4 125.4 150.6 126.3C151.8 127.7 152.5 128.6 153.4 129.9L150.8 131.8C148.9 128.8 146.5 125.6 142.3 122.8L144.4 120.6C146 121.7 147.4 123 148.8 124.4C149.8 123.3 152.6 119.9 154.5 116.6H145C143.2 116.6 139.7 116.7 136.7 116.9V113.8C139.3 114.1 142.2 114.1 144.9 114.1H152C156.8 114.1 157.4 113.9 158.6 113.3L161 115.5C158.9 116.6 156.9 119 156 119.9Z" fill="black"/>
<path d="M186.4 133C183.7 128.6 180 125.7 178.7 124.8C174.5 129.6 170.4 131.8 167.6 133.1L165.4 130.4C166.9 129.9 169.9 128.8 173.2 126.2C177 123.2 179.6 119.1 181.3 114.7H176C173.8 114.7 170.9 114.8 168.7 115V112C169.7 112.1 173.4 112.2 174.6 112.2H179C181.9 112.2 182.3 112.1 182.6 112C183.2 111.9 183.8 111.6 184.1 111.3L186.3 113.8C185.7 114.2 185.5 114.3 184.9 114.8C183.1 118.3 181.9 120.4 180.5 122.5C184.9 125.6 188.2 129.6 188.9 130.7L186.4 133Z" fill="black"/>
<path d="M213.7 116.3C211.3 123.2 207.8 130.6 199.3 135.1L196.6 132.9C198.9 131.9 202.4 130.4 205.9 125.7C209.3 121.3 210.1 117.6 210.5 115.8H201.3C199.8 118.1 198.1 120.4 195.4 122.9L192.9 121.2C193.7 120.5 195.8 119 198.2 115.4C199.3 113.7 200.8 111.3 201.1 109.6L204.4 111C204.6 111.1 204.8 111.2 204.8 111.4C204.8 111.7 204.4 111.9 204.3 111.9C203.9 112 203.8 112 203.4 112.3C203 112.7 203.1 112.8 202.6 113.5H207.3C210.9 113.5 211.4 113.3 212.2 112.9L214.4 115.2C214.1 115.8 214.1 115.9 213.7 116.3Z" fill="black"/>
<path d="M242.8 128C239.4 130.8 235.1 131.4 232 131.8L230.3 128.7C243.3 128.8 243.3 121.7 243.3 120.8C243.3 117.8 240.8 115.5 237.1 115.5C235.1 115.5 234.2 115.8 229 117.4C226.4 118.2 225.1 118.7 223.9 119.1C223.7 119.8 223.6 120 223.2 120C223 120 222.8 119.9 222.6 119.4L220.9 115.9C224.5 115.6 228.4 114.6 228.9 114.5C234.7 113 235.3 112.9 237.1 112.9C242.9 112.9 246.2 116.7 246.2 120.8C246.3 123.4 245.1 126.2 242.8 128ZM241.7 112.6C241.1 111.7 240.2 110.7 239 109.7L240.6 108.5C241.9 109.6 242.2 109.9 243.4 111.2L241.7 112.6ZM246 112C245.2 110.7 244.2 109.7 243.6 109.1L245.1 108C246.3 109 247.3 110.4 247.6 110.8L246 112Z" fill="black"/>
<path d="M266.1 136.2C265.2 134.3 262.4 130.6 260.4 128.7C259 127.3 256.5 125.1 255.4 124.2C254.3 123.4 253.9 122.9 253.9 121.9C253.9 120.9 254.4 120.5 255.6 119.2C256.2 118.6 258.7 116.1 259.2 115.6C261.5 113.2 264 110.6 265.5 108.1L268.2 109.8C268.4 109.9 268.7 110.1 268.7 110.5C268.7 110.7 268.6 110.8 268.5 110.9C268.3 111 267.4 111.2 267.2 111.3C265.2 113.3 263.7 114.8 260.7 117.8C260 118.5 258.8 119.7 258.2 120.3C257.6 120.9 257.4 121.3 257.4 121.6C257.4 122.2 257.8 122.6 258.2 123C263.2 127.3 263.6 127.8 265.5 130.1C266.7 131.5 268.1 133.2 268.9 134.1L266.1 136.2Z" fill="black"/>
<path d="M282.6 127.2L280.4 127.7C279.3 125 278.8 121.9 278.8 119C278.8 116.3 279.3 112.9 279.9 109.7L283.2 110.4C283.4 110.5 283.8 110.5 283.8 110.9C283.8 111.2 283.4 111.4 282.8 111.8C281.7 114.2 281.4 117 281.4 119.6C281.4 120.6 281.5 122.3 281.8 122.3C281.9 122.3 282 122.2 282.2 121.7C282.5 121.1 284.3 117.2 284.4 116.9L285.8 118.8C284.5 121.5 283 124.5 282.6 127.2ZM295.6 111.3C295.6 112.1 295.7 114 295.7 116.4C295.7 123.2 294.9 130 289.6 134.4L286.4 132.6C287.2 132.2 289.2 131.2 290.7 128.3C292.5 124.7 292.8 120.6 292.8 118C292.8 115.3 292.5 112.5 292.2 109.8L295.6 110C295.9 110 296.4 110.1 296.4 110.5C296.4 110.8 295.9 111.1 295.6 111.3Z" fill="black"/>
<path d="M92 156C91.8 156.5 91.8 156.8 91 159.8C90 163.4 89 165.6 87.3 168.3C85.9 170.6 85.1 171.6 84.5 172.2L81.6 170.7C87 165.6 88.9 156.9 89.1 153.6L92.6 154.6C93 154.7 93.2 154.8 93.2 155C93.1 155.5 93 155.5 92 156ZM104.5 171.4C104 168.8 103.5 166.4 102 163C100.9 160.3 99.5 157.7 97.6 155.4L100.1 153.8C104.5 159.5 107 166.9 107.7 170.4L104.5 171.4Z" fill="black"/>
<path d="M131.9 172.5C132 171.9 132 171.7 132.1 170.7H117.5C117.5 171.2 117.5 171.9 117.6 172.4H114.2C114.3 171.6 114.4 170.3 114.4 168.5C114.4 165.6 114.4 165.3 114.4 164.9V158.7C114.4 157.8 114.3 153.2 114.3 152.4C116.1 152.6 119.8 152.6 121.7 152.6H128.2C130.3 152.6 133.5 152.6 135.6 152.5C135.5 154.1 135.4 157.6 135.4 159.3V165.2C135.4 165.8 135.5 168.4 135.5 168.9C135.5 171 135.6 171.7 135.8 172.4H131.9V172.5ZM132.2 155.4H117.4V168H132.2V155.4Z" fill="black"/>
<path d="M163.7 159C163.4 160.6 162.4 165 160.7 167.9C160.1 168.9 156.7 174.2 152.5 175.8L149.6 173.8C150.8 173.4 153.2 172.7 156.3 169.1C157.9 167.2 159.1 165.5 160 162.5C160.9 159.7 160.9 158.1 160.9 157.1H146V160.5C146 160.9 146 163 146.2 164.5H142.9C143.1 162.7 143.2 161.6 143.2 161.4V158.6V158C143.2 156.2 143 155.3 142.9 154.7C146.1 154.9 146.4 154.9 146.8 154.9H149.6H152.2V152.7C152.2 151.5 152.1 150.3 152.1 149.1L155.2 149.5C155.5 149.5 156 149.6 156 150C156 150.4 155.5 150.5 155.3 150.5C155.1 151.6 155.1 152.9 155.1 153.4V154.9H156.2C157.7 154.9 159.3 154.9 160.2 154.8C161.2 154.7 161.7 154.6 162.2 154.2L164.5 156.2C164 157.2 163.9 157.7 163.7 159Z" fill="black"/>
<path d="M187.9 157.9C187.5 157.9 187.3 158 187 158.3C185.9 159.5 185.1 160.4 182.5 162.4V171C182.5 172 182.6 174.7 182.7 175.9H180C180.1 174.1 180.2 172.9 180.2 171.1V164.1C177.6 165.9 176 166.7 173.6 167.9L171.1 165.8C174.1 164.6 176.5 163.7 180.5 160.7C183.6 158.3 184.6 156.9 186 155.1L188.1 156.7C188.3 156.9 188.7 157.2 188.7 157.5C188.7 157.8 188.5 157.8 187.9 157.9Z" fill="black"/>
<path d="M197.7 173.2C197.6 173.3 197.5 173.8 197.4 173.9C197.3 174 197.2 174.1 197.1 174.1C196.9 174.1 196.8 174 196.5 173.4L194.9 170.3C199.5 169.7 210.3 165 216 157.6L217.2 160.5C211.3 167.4 201.9 171.4 197.7 173.2ZM201.9 157.7C199.9 155.8 196.8 154.2 195.4 153.6L197.1 150.9C201.6 153 202.9 154.3 203.7 155.1L201.9 157.7Z" fill="black"/>
<path d="M125.5 13.1001L124.6 12C126.6 11.7 128 10.6 128 9C128 8.6 127.9 7.10005 126.2 6.80005C125.7 8.10005 125 9.2999 124 10.3999C124.1 10.6999 124.1 10.7 124.3 11.3L123.1 12.1001C122.9 11.7001 122.9 11.5999 122.8 11.3999C122.3 11.7999 121.5 12.5 120.5 12.5C119.5 12.5 118.8 11.9001 118.8 10.6001C118.8 8.6001 120.3 6.89995 122.2 6.19995C122.2 5.69995 122.2 5.0001 122.3 4.6001C120.9 4.7001 120.5 4.69995 120 4.69995L119.5 3.30005C119.9 3.40005 120.3 3.5 121.4 3.5C121.8 3.5 122.1 3.5 122.5 3.5C122.7 2.1 122.7 1.9999 122.9 0.899902L124.4 1.30005C124.7 1.40005 124.7 1.4 124.7 1.5C124.7 1.7 124.7 1.6999 124.3 1.8999C124.2 2.2999 124.1 2.60005 124 3.30005C125.7 3.00005 126.6 2.79995 127.9 2.19995L127.8 3.5C126.3 3.9 125.5 4.0999 123.8 4.3999C123.7 4.9999 123.7 5.29995 123.6 5.69995C124 5.49995 124.3 5.5 125.4 5.5C125.5 5 125.5 4.89995 125.5 4.69995L126.9 4.8999C126.8 5.0999 126.8 5.19995 126.6 5.69995C127.1 5.79995 127.9 6.10005 128.5 6.80005C129.1 7.50005 129.3 8.4 129.3 9C129.4 10.6 128.2 12.5001 125.5 13.1001ZM122.4 7.30005C122 7.50005 121.7 7.69995 121.2 8.19995C120.7 8.69995 120.3 9.40005 120.3 10.3C120.3 11 120.9 11.1001 121.1 11.1001C121.4 11.1001 121.7 10.9999 121.9 10.8999C122.3 10.6999 122.6 10.4 122.8 10.2C122.5 9.19995 122.4 7.80005 122.4 7.30005ZM123.6 6.8999C123.7 8.0999 123.7 8.4001 123.8 9.1001C124.5 8.2001 124.9 7.39995 125.1 6.69995C124.4 6.59995 124.1 6.6999 123.6 6.8999Z" fill="black" stroke="black" stroke-width="0.2835" stroke-miterlimit="10"/>
<path d="M140.3 4.5C139.6 4.7 139 4.9001 137.6 5.1001C137.4 5.7001 136.6 8.30005 136.4 8.80005C135.7 10.6 135.2 11.7999 134.7 12.8999L133.3 12.3999C134.4 10.7999 135.7 8.0999 136.3 5.3999C136 5.4999 135.6 5.5 135 5.5C134.5 5.5 134.2 5.4999 133.9 5.3999V4.1001C134.3 4.1001 134.8 4.19995 135.5 4.19995C136 4.19995 136.4 4.1001 136.7 4.1001C136.8 3.6001 136.9 3.2001 137.2 1.1001L138.8 1.30005C139 1.30005 139.2 1.4001 139.2 1.6001C139.2 1.8001 139.1 1.7999 138.7 1.8999C138.4 2.7999 138.4 3.1 138.2 4C138.8 3.9 139.4 3.80005 140.6 3.30005L140.3 4.5ZM143.7 12.7C143.2 12.7 142.7 12.7 142.3 12.7C139.4 12.7 138.9 12.5 138.5 12.2C138.3 12.1 138 11.7999 138 11.3999C138 10.4999 138.7 9.8 139 9.5L140 10C139.7 10.3 139.3 10.7 139.3 11C139.3 11.6 141.1 11.6001 141.6 11.6001C143.1 11.6001 143.5 11.4999 144 11.3999L143.7 12.7ZM143.9 7C143.6 6.9 143.2 6.80005 141.9 6.80005C140.5 6.80005 139.8 6.9 139.4 7L139.5 5.80005C140 5.80005 140.6 5.69995 141.6 5.69995C142.6 5.69995 143.2 5.70005 143.9 5.80005V7Z" fill="black" stroke="black" stroke-width="0.2835" stroke-miterlimit="10"/>
<path d="M155.5 11.8999C154.3 12.6999 153.2 12.8 150.4 13L149.7 11.6001C151.1 11.6001 152.3 11.6 153.3 11.5C154.5 11.3 155.7 10.4 155.7 9.19995C155.7 8.79995 155.5 7.3999 153.7 7.3999C152.1 7.3999 150.8 8.5001 149.8 9.6001L148.5 9.1001C148.5 8.8001 148.7 7.5999 148.7 7.3999C148.9 6.2999 149.1 4.80005 149.3 3.80005L150.8 4.19995C150.9 4.19995 151.1 4.2999 151.1 4.3999C151.1 4.4999 151 4.6001 150.9 4.6001C150.7 4.7001 150.6 4.70005 150.5 4.80005C150.1 6.00005 150 7.10005 149.9 7.80005C151.1 6.90005 152.3 6.30005 153.8 6.30005C155.1 6.30005 157 7.10005 157 9.30005C157.1 10.1 156.7 11.0999 155.5 11.8999ZM154.1 3.6001C152.4 2.7001 150.9 2.4999 150.1 2.3999L150.6 1.1001C152 1.2001 153.6 1.69995 154.7 2.19995L154.1 3.6001Z" fill="black" stroke="black" stroke-width="0.2835" stroke-miterlimit="10"/>
<path d="M169 11.3999C167.9 12.2999 166.5 12.7 165.8 12.7C165 12.7 164 12.4001 163.3 11.6001C162.7 10.8001 162.6 10.1999 162.6 8.8999C162.6 8.1999 162.7 4.9999 162.7 4.3999C162.7 3.4999 162.7 2.09995 162.5 1.19995L164.1 1.3999C164.4 1.3999 164.6 1.49995 164.6 1.69995C164.6 1.79995 164.6 1.9001 164.2 2.1001C164.2 2.4001 164.1 2.7999 164.1 3.3999C164 4.3999 163.9 7.9 163.9 8.5C163.9 9.8 164 10.2 164.3 10.7C164.7 11.3 165.5 11.5 165.9 11.5C166.6 11.5 167.7 11.1 168.5 10.2C169.5 9.09995 169.8 8 170 7.5L171.1 8.5C170.6 9.5 169.9 10.5999 169 11.3999Z" fill="black" stroke="black" stroke-width="0.2835" stroke-miterlimit="10"/>
<path d="M178.1 11.8999C177.4 11.8999 176.7 11.1999 176.5 10.8999C175.4 9.5999 175 8.2 175 6C175 5.5 175 5.1999 175.3 2.8999C175.3 2.7999 175.3 2.6 175.3 2.5L176.6 3C176.9 3.1 177 3.20005 177 3.30005C177 3.40005 176.8 3.5001 176.6 3.6001C176.5 4.0001 176.3 4.9001 176.3 6.1001C176.3 8.4001 177.3 10.1001 177.9 10.1001C178.5 10.1001 179 8.50005 179.2 7.80005L180 8.69995C179.8 9.89995 179.2 11.8999 178.1 11.8999ZM185 9C185 7.8 184.7 6.6 184.1 5.5C183.4 4 183 3.59995 182.8 3.19995L184.1 2.6001C185.5 4.4001 186.5 7.2 186.6 8.5L185 9Z" fill="black" stroke="black" stroke-width="0.2835" stroke-miterlimit="10"/>
<path d="M122.7 21.8999C122.6 22.1999 122.6 22.3 122.2 23.7C121.7 25.4 121.2 26.4 120.5 27.7C119.9 28.8 119.5 29.2 119.2 29.5L117.8 28.8C120.3 26.4 121.2 22.3 121.3 20.8L123 21.3C123.2 21.4 123.3 21.4 123.3 21.5C123.3 21.7 123.2 21.6999 122.7 21.8999ZM128.6 29.2C128.4 28 128.1 26.9 127.4 25.3C126.9 24 126.2 22.8 125.3 21.8L126.5 21C128.6 23.7 129.7 27.1 130.1 28.8L128.6 29.2Z" fill="black" stroke="black" stroke-width="0.2835" stroke-miterlimit="10"/>
<path d="M143.3 29.7C143.4 29.4 143.4 29.2999 143.4 28.8999H136.5C136.5 29.0999 136.5 29.5 136.5 29.7H134.9C134.9 29.3 135 28.6999 135 27.8999C135 26.4999 135 26.4 135 26.2V23.3C135 22.9 135 20.7 134.9 20.3C135.7 20.4 137.5 20.3999 138.4 20.3999H141.4C142.4 20.3999 143.9 20.4 144.9 20.3C144.8 21 144.8 22.7 144.8 23.5V26.3C144.8 26.6 144.8 27.8 144.8 28C144.8 29 144.9 29.3 144.9 29.7H143.3V29.7ZM143.4 21.7H136.5V27.6001H143.4V21.7Z" fill="black" stroke="black" stroke-width="0.2835" stroke-miterlimit="10"/>
<path d="M159.4 23.3C159.3 24 158.8 26.1 158 27.5C157.7 28 156.1 30.5 154.2 31.2L152.8 30.3C153.4 30.1 154.5 29.8001 156 28.1001C156.8 27.2001 157.3 26.4 157.7 25C158.1 23.7 158.1 22.9 158.1 22.5H151.1V24.1001C151.1 24.3001 151.1 25.3 151.2 26H149.7C149.8 25.2 149.8 24.7 149.8 24.5V23.2V22.8999C149.8 22.0999 149.7 21.5999 149.7 21.3999C151.2 21.4999 151.3 21.5 151.5 21.5H152.8H154V20.5C154 19.9 154 19.4 153.9 18.8L155.3 19C155.4 19 155.7 19 155.7 19.3C155.7 19.5 155.5 19.5 155.4 19.5C155.3 20 155.3 20.5999 155.3 20.8999V21.6001H155.8C156.5 21.6001 157.2 21.6001 157.7 21.6001C158.2 21.6001 158.4 21.5 158.7 21.3L159.8 22.2C159.5 22.5 159.5 22.7 159.4 23.3Z" fill="black" stroke="black" stroke-width="0.2835" stroke-miterlimit="10"/>
<path d="M170.9 22.8C170.7 22.8 170.6 22.8 170.5 23C170 23.6 169.6 23.9999 168.4 24.8999V28.8999C168.4 29.3999 168.5 30.6 168.5 31.2H167.2C167.2 30.3 167.3 29.7999 167.3 28.8999V25.6001C166.1 26.4001 165.3 26.7999 164.2 27.3999L163 26.3999C164.4 25.8999 165.5 25.4 167.4 24C168.8 22.9 169.3 22.1999 170 21.3999L171 22.2C171.1 22.3 171.3 22.4001 171.3 22.6001C171.3 22.8001 171.2 22.8 170.9 22.8Z" fill="black" stroke="black" stroke-width="0.2835" stroke-miterlimit="10"/>
<path d="M177.1 30C177.1 30.1 177 30.3 177 30.3C177 30.4 176.9 30.3999 176.8 30.3999C176.7 30.3999 176.7 30.3001 176.5 30.1001L175.7 28.6001C177.9 28.3001 182.9 26.1001 185.6 22.6001L186.2 24C183.5 27.3 179 29.2 177.1 30ZM179 22.7C178.1 21.8 176.6 21.1 175.9 20.8L176.7 19.5C178.8 20.5 179.4 21.1 179.8 21.5L179 22.7Z" fill="black" stroke="black" stroke-width="0.2835" stroke-miterlimit="10"/>
</svg>
