<svg width="314" height="69" viewBox="0 0 314 69" fill="none" xmlns="http://www.w3.org/2000/svg">
<path d="M16.1 12.1001L15.7 17H19.9V20.2998H15.5L15 25.5H13.3L13.7 20.2998H10L9.60002 25.5H7.90002L8.30003 20.2998H4.40002V17H8.60002L9.00002 12.1001H4.90002V8.7998H9.30003L9.80003 3.6001H11.5L11 8.7998H14.7L15.1 3.6001H16.8L16.4 8.7998H20.4V12.1001H16.1ZM10.7 12.1001L10.3 17H14L14.4 12.1001H10.7Z" fill="#CF6500"/>
<path d="M45.2 27L43.4 24.6001C47.7 24.0001 50.7 21.5002 50.7 18.2002C50.7 17.4002 50.4 14.2001 46.9 13.6001C45.9 16.4001 44.3 18.9998 42.3 21.2998C42.5 21.8998 42.5 22.0002 43 23.2002L40.5 24.8999C40.1 23.9999 40 23.8999 39.9 23.3999C38.8 24.2999 37.1 25.6001 34.9 25.6001C32.8 25.6001 31.2 24.4 31.2 21.5C31.2 17.3 34.3 13.6002 38.5 12.2002C38.4 11.1002 38.6 9.5999 38.7 8.8999C35.7 9.1999 34.9 9.2002 33.7 9.2002L32.6 6.2998C33.4 6.4998 34.2 6.7002 36.6 6.7002C37.5 6.7002 38.1 6.7001 38.8 6.6001C39.1 3.7001 39.2 3.4 39.6 1L42.7 1.7998C43.2 1.8998 43.3 2.0002 43.3 2.2002C43.3 2.5002 43.2 2.6001 42.4 3.1001C42.2 4.0001 42 4.6002 41.7 6.2002C45.4 5.7002 47.3 5.0999 50.1 3.8999L49.9 6.7002C46.7 7.5002 45 7.9 41.3 8.5C41 9.9 41 10.3999 41 11.3999C41.9 11.0999 42.6 10.8999 44.8 10.8999C45 9.8999 45.1 9.6001 45.1 9.1001L48.1 9.5C48 10 47.9 10.0998 47.6 11.2998C48.6 11.4998 50.3 12.1002 51.7 13.7002C53.1 15.3002 53.4 17.0998 53.4 18.2998C53.5 21.5998 50.8 25.7 45.2 27ZM38.5 14.7002C37.6 15.2002 37 15.5002 35.9 16.7002C34.9 17.8002 34 19.2002 34 21.2002C34 22.8002 35.3 22.8999 35.6 22.8999C36.1 22.8999 36.8 22.6999 37.3 22.3999C38.2 21.8999 38.7 21.2998 39.2 20.7998C38.8 18.6998 38.5 15.8002 38.5 14.7002ZM41 13.7002C41.2 16.3002 41.3 16.8999 41.5 18.3999C42.9 16.4999 43.7 14.8002 44.2 13.2002C42.8 13.2002 42.2 13.3002 41 13.7002Z" fill="#CF6500"/>
<path d="M75 8.6001C73.5 9.1001 72.2 9.3998 69.3 9.7998C68.9 10.9998 67.1 16.5001 66.7 17.6001C65.2 21.5001 64.1 24.0002 63 26.2002L59.9 25.1001C62.2 21.7001 64.9 15.9002 66.3 10.2002C65.6 10.3002 64.8 10.3999 63.4 10.3999C62.4 10.3999 61.8 10.2998 61 10.2998V7.5C61.8 7.6 63 7.7998 64.4 7.7998C65.5 7.7998 66.2 7.7001 66.9 7.6001C67.2 6.5001 67.4 5.7002 67.9 1.2002L71.3 1.7002C71.8 1.8002 72.1 1.8002 72.1 2.2002C72.1 2.6002 71.9 2.6999 71.1 2.8999C70.6 4.7999 70.4 5.3998 70 7.2998C71.4 7.1998 72.5 6.8998 75.2 5.7998L75 8.6001ZM82.1 26.1001C80.9 26.2001 79.9 26.2002 79.1 26.2002C73 26.2002 71.9 25.7001 70.9 25.1001C70.5 24.8001 69.8 24.2998 69.8 23.2998C69.8 21.4998 71.3 19.7998 71.8 19.2998L74 20.3999C73.3 20.9999 72.5 21.9 72.5 22.5C72.5 23.7 76.3 23.7002 77.4 23.7002C80.7 23.7002 81.5 23.5002 82.5 23.2002L82.1 26.1001ZM82.7 13.8999C82.1 13.6999 81.1 13.3999 78.5 13.3999C75.5 13.3999 74.1 13.6999 73.2 13.8999L73.4 11.2998C74.4 11.1998 75.8 11.2002 77.9 11.2002C80 11.2002 81.3 11.2998 82.7 11.2998V13.8999Z" fill="#CF6500"/>
<path d="M106 24.3999C103.5 25.9999 101.1 26.4001 95.1 26.6001L93.7 23.5C96.8 23.5 99.2 23.5002 101.3 23.2002C103.9 22.9002 106.4 20.8998 106.4 18.2998C106.4 17.4998 106 14.3999 102.2 14.3999C98.8 14.3999 96 16.7001 93.9 19.1001L91.1 17.8999C91.2 17.2999 91.5 14.8002 91.6 14.2002C92 11.8002 92.4 8.7 93 6.5L96.2 7.2998C96.5 7.3998 96.8 7.4998 96.8 7.7998C96.8 8.0998 96.5 8.1998 96.4 8.2998C96 8.4998 95.9 8.6002 95.6 8.7002C94.8 11.3002 94.4 13.7 94.2 15C96.7 13.1 99.4 11.7998 102.5 11.7998C105.4 11.7998 109.4 13.5002 109.4 18.2002C109.4 20.6002 108.6 22.6999 106 24.3999ZM103.2 6.7998C99.7 4.7998 96.3 4.3998 94.7 4.2998L95.7 1.6001C98.7 1.9001 102.1 2.9 104.5 4L103.2 6.7998Z" fill="#CF6500"/>
<path d="M133.4 23.3999C131.1 25.3999 128 26.1001 126.5 26.1001C124.7 26.1001 122.6 25.4002 121.2 23.7002C119.9 22.1002 119.7 20.7 119.7 18C119.7 16.5 120 9.7999 120 8.3999C120 6.3999 119.9 3.4001 119.7 1.6001L123.1 2.1001C123.8 2.2001 124.1 2.3001 124.1 2.6001C124.1 2.9001 124 2.9 123.2 3.5C123.1 4.2 123 5.0002 122.9 6.2002C122.8 8.4002 122.5 15.9001 122.5 17.1001C122.5 19.9001 122.6 20.8002 123.3 21.7002C124.2 23.0002 125.8 23.3999 126.8 23.3999C128.3 23.3999 130.7 22.6002 132.3 20.7002C134.3 18.4002 135.2 16.0999 135.5 14.8999L137.8 17.1001C136.9 19.4001 135.5 21.5999 133.4 23.3999Z" fill="#CF6500"/>
<path d="M151.8 24.3999C150.2 24.3999 148.9 22.8998 148.3 22.2998C146.1 19.5998 145.1 16.5998 145.1 11.7998C145.1 10.5998 145.2 10.1002 145.7 5.2002C145.7 5.1002 145.8 4.4999 145.8 4.3999L148.5 5.3999C149.1 5.5999 149.4 5.7 149.4 6C149.4 6.3 149.1 6.4001 148.6 6.6001C148.4 7.5001 147.9 9.2999 147.9 11.8999C147.9 16.7999 149.9 20.5 151.4 20.5C152.9 20.5 153.7 17.1 154.1 15.5L155.8 17.2998C155.3 20.1998 154.1 24.3999 151.8 24.3999ZM166.5 18.2002C166.4 15.6002 165.8 13.0998 164.7 10.7998C163.1 7.4998 162.5 6.7 161.9 6L164.6 4.7002C167.7 8.5002 169.7 14.5002 169.8 17.2002L166.5 18.2002Z" fill="#CF6500"/>
<path d="M186.9 7.3999C186.8 7.8999 186.7 8.2002 185.9 11.2002C184.9 14.8002 183.9 17.0002 182.2 19.7002C180.8 22.0002 180 23.0001 179.4 23.6001L176.5 22.1001C181.9 17.0001 183.8 8.3 184 5L187.5 6C188 6.1 188.1 6.2 188.1 6.5C188.1 7 188 6.9999 186.9 7.3999ZM199.4 22.8999C198.9 20.2999 198.4 17.9 196.9 14.5C195.8 11.8 194.4 9.1999 192.5 6.8999L195 5.2002C199.4 10.9002 201.9 18.2998 202.6 21.7998L199.4 22.8999Z" fill="#CF6500"/>
<path d="M227.1 24C227.2 23.4 227.2 23.2002 227.3 22.2002H212.7C212.7 22.7002 212.7 23.3999 212.8 23.8999H209.4C209.5 23.0999 209.6 21.8 209.6 20C209.6 17.1 209.6 16.7999 209.6 16.3999V10.2002C209.6 9.3002 209.5 4.6999 209.5 3.8999C211.3 4.0999 215 4.1001 216.9 4.1001H223.3C225.4 4.1001 228.6 4.0999 230.7 3.8999C230.6 5.4999 230.5 9.0002 230.5 10.7002V16.6001C230.5 17.2001 230.6 19.7998 230.6 20.2998C230.6 22.3998 230.7 23.1998 230.9 23.7998H227.1V24ZM227.5 6.8999H212.7V19.5H227.5V6.8999Z" fill="#CF6500"/>
<path d="M259 10.5C258.7 12.1 257.7 16.4999 256 19.3999C255.4 20.3999 252 25.6998 247.8 27.2998L244.9 25.2998C246.1 24.8998 248.5 24.2001 251.6 20.6001C253.2 18.7001 254.4 17 255.3 14C256.2 11.2 256.2 9.6001 256.2 8.6001H241.3V12C241.3 12.4 241.3 14.5 241.5 16H238.2C238.4 14.2 238.5 13.1999 238.5 12.8999V10.1001V9.5C238.5 7.7 238.4 6.8002 238.2 6.2002C241.4 6.4002 241.7 6.3999 242.1 6.3999H244.9H247.5V4.2002C247.5 3.0002 247.4 1.8001 247.4 0.600098L250.5 1C250.8 1 251.3 1.1 251.3 1.5C251.3 1.9 250.8 2 250.6 2C250.4 3.1 250.4 4.3999 250.4 4.8999V6.3999H251.5C253 6.3999 254.6 6.3998 255.5 6.2998C256.5 6.1998 257 6.1002 257.5 5.7002L259.8 7.7002C259.3 8.7002 259.2 9.1 259 10.5Z" fill="#CF6500"/>
<path d="M281.7 9.2998C281.3 9.2998 281.1 9.4002 280.8 9.7002C279.7 10.9002 278.9 11.7998 276.3 13.7998V22.3999C276.3 23.3999 276.4 26.0998 276.5 27.2998H273.8C273.9 25.4998 273.9 24.3 273.9 22.5V15.5C271.3 17.3 269.7 18.0998 267.3 19.2998L264.8 17.2002C267.8 16.0002 270.2 15.1001 274.2 12.1001C277.3 9.7001 278.3 8.3 279.7 6.5L281.8 8.2002C282 8.4002 282.4 8.7 282.4 9C282.5 9.2 282.3 9.2998 281.7 9.2998Z" fill="#CF6500"/>
<path d="M294.4 24.6001C294.3 24.7001 294.2 25.1998 294.1 25.2998C294 25.3998 293.9 25.5 293.8 25.5C293.6 25.5 293.5 25.3998 293.2 24.7998L291.6 21.7002C296.2 21.1002 307 16.4 312.7 9L313.9 11.8999C308 18.7999 298.6 22.9001 294.4 24.6001ZM298.6 9.2002C296.6 7.3002 293.5 5.7001 292.1 5.1001L293.7 2.3999C298.2 4.4999 299.5 5.8001 300.3 6.6001L298.6 9.2002Z" fill="#CF6500"/>
<path d="M19.4 56.2998H8.70002C7.80002 56.2998 3.10002 56.2999 0.900024 56.3999V53.3999C3.30002 53.4999 8.50002 53.6001 8.70002 53.6001H19.4C20.3 53.6001 25 53.5999 27.2 53.3999V56.3999C24.9 56.3999 19.6 56.2998 19.4 56.2998Z" fill="#231815"/>
<path d="M41.4 58C41.4 57.4 41.4 57.0001 41.1 56.1001C40.8 56.2001 39.8 56.2999 39.2 56.3999V61.8999C39.2 64.0999 39.2 65.1002 39.4 68.7002H36.4C36.5 67.1002 36.7 63.7 36.7 62V56.7998C34.5 57.1998 34.2 57.1998 33.6 57.2998C33.4 57.6998 33.3 57.8999 33.1 57.8999C32.8 57.8999 32.8 57.6999 32.7 57.3999L32.2 54.7998C32.5 54.7998 34 54.7998 34.4 54.7998C35.1 53.8998 36.1 52.7998 36.5 52.2998C35.5 50.8998 33.6 48.8999 31.9 47.8999L33.7 45.7998C34.3 46.1998 34.6 46.5 35.2 47C36 45.9 37.2 43.8001 38 41.6001L40.6 42.8999C40.9 43.0999 41 43.0998 41 43.2998C41 43.6998 40.4 43.7998 40.2 43.7998C39.6 44.8998 38.6 47.0001 37 48.6001C37.7 49.3001 37.8 49.4 38.4 50C40.2 47.5 40.4 46.6998 40.7 45.7998L43.1 47.1001C43.4 47.3001 43.5 47.3 43.5 47.5C43.5 47.8 43.2 47.8999 42.7 47.8999C42 49.0999 40.7 50.8999 39.6 52.3999L41.8 51.6001C42.8 53.2001 43.7 55.0002 44.2 56.7002L41.4 58ZM35.7 59.7998C35.6 63.5998 35.1 65.2001 34.6 66.6001L32.1 66C33.1 63 33.3 61.9001 33.3 58.6001L35.9 59C36.1 59 36.3 59.0998 36.3 59.2998C36.3 59.4998 36 59.5998 35.7 59.7998ZM39.2 52.5C38.1 53.9 38 54.1001 37.5 54.6001C37.9 54.6001 39.9 54.3999 40.4 54.3999C39.9 53.2999 39.6 53 39.2 52.5ZM58.4 44.7998C58.1 45.3998 56.7 48.1001 56.4 48.6001C56.3 48.8001 55.7 49.8001 55.2 50.6001C55.6 50.6001 57.5 50.4999 59.2 50.3999V53.2998C57 53.0998 54.3 53.1001 53.4 53.1001C52.5 54.1001 51.8 54.8002 51 55.7002H53.7C54 55.7002 56.8 55.6 57.8 55.5C57.8 56 57.7 56.9 57.7 58V63.7998C57.7 64.6998 57.8 66.7001 57.9 68.6001H55C55.1 68.0001 55.1 67.9002 55.1 67.2002H48.3C48.3 67.4002 48.4 68.4001 48.4 68.6001H45.5C45.6 66.8001 45.7 65.0001 45.7 63.1001V59.7998C44.8 60.2998 44.4 60.4002 43.6 60.7002L42.5 59.2002C43.1 60.6002 43.5 62.1 43.6 64L40.9 64.8999C40.9 62.6999 40.6 60.5998 39.8 58.7998L42 58.1001C42.1 58.3001 42.1 58.3 42.2 58.5C43.1 58.2 43.8 57.8998 44.8 57.2998C46.2 56.4998 48.1 55.1 50.1 53H48C46.1 53 44.3 53.1002 42.4 53.2002V50.2998C44.5 50.4998 47.5 50.6001 47.8 50.6001V47.2998H47.2C46.1 47.2998 44.7 47.4 43.7 47.5V44.6001C44.9 44.8001 46.7 44.8999 47.2 44.8999H47.7C47.7 43.8999 47.7 42.2998 47.6 41.2998L50.5 41.5C51 41.5 51.1 41.6999 51.1 41.8999C51.1 42.1999 50.9 42.3 50.4 42.5C50.4 42.9 50.4 44.4998 50.4 44.7998C51.3 44.7998 52.9 44.7 54.2 44.5V46.6001C55.2 44.6001 55.7 43.0998 55.9 42.2998L58.7 43.8999C58.9 43.9999 59 44.1998 59 44.2998C59.3 44.6998 58.9 44.7998 58.4 44.7998ZM55.1 58H48V60.5H55.1V58ZM55.1 62.6001H48V65.1001H55.1V62.6001ZM50.6 47.3999V50.7002H52C52.3 50.2002 53 49.3001 53.9 47.6001C53.5 47.5001 52.3 47.3999 50.6 47.3999Z" fill="#231815"/>
<path d="M68.9 66.2002L67 66.7002C65.2 63.0002 64.7 58.1999 64.7 55.8999C64.7 53.7999 65 50.7001 65.2 49.6001C65.4 48.3001 66.2 44.2998 66.4 43.2998L69.5 44.2002C70 44.4002 70.2 44.4002 70.2 44.7002C70.2 45.1002 69.7 45.3001 69.3 45.6001C68 48.8001 67.4 52.5 67.4 56C67.4 58.8 67.8 60.1999 68 60.8999C68.6 59.3999 68.9 58.5999 69.6 56.8999L70.7 58.8999C69.5 61.7999 69.1 63.8002 68.9 66.2002ZM87.3 64.3999C84 64.8999 81.8 64.8999 81 64.8999C78.5 64.8999 72.8 64.9001 73.2 58.1001L75.9 58.3999C75.6 61.7999 78.1 62.2002 80.8 62.2002C83.4 62.2002 85.7 61.7002 87.6 61.2002L87.3 64.3999ZM76.1 48.7002C75.5 48.7002 75.1 48.7001 74.3 48.6001L74.2 45.7002C75.1 45.8002 76.2 46 77.9 46C81.8 46 84.1 45.2001 86.1 44.6001V47.5C81.5 48.6 77.6 48.7002 76.1 48.7002Z" fill="#231815"/>
<path d="M99.5 45.2998C97.3 50.5998 97.1 56.3002 97.1 57.7002C97.1 59.7002 97.3 61 97.5 62C97.8 61.5 98 61 98.3 60C98.7 58.7 98.7 58.6002 98.8 58.2002L100.3 59.5C100.1 60.1 98.7 64.2001 98.3 66.6001L96 67C94.9 63.2 94.7 59.8002 94.7 57.2002C94.7 54.6002 94.9 52.8002 95.7 48.2002C96.1 46.1002 96.4 44.7999 96.7 43.3999L100 44.1001C100.2 44.1001 100.4 44.2 100.4 44.5C100.4 44.8 100.4 44.7998 99.5 45.2998ZM116.8 64.7998C115.9 63.8998 114.4 62.8002 112.7 62.2002C113 65.6002 110.3 66.6001 108 66.6001C104.6 66.6001 102.3 65.0002 102.3 62.7002C102.3 60.9002 103.8 59.8 104.7 59.5C106.5 58.8 108.7 58.7998 109 58.7998C109.5 58.7998 109.7 58.7999 109.9 58.8999C109.7 56.4999 109.7 55.7999 109.7 50.8999C107.9 51.0999 107.1 51.2002 105.7 51.2002C104.6 51.2002 103.9 51.1001 103.4 51.1001V48.5C104.1 48.6 105.4 48.8999 106.9 48.8999C107.7 48.8999 108.5 48.8002 109.7 48.7002C109.7 48.2002 109.8 45.3 109.8 44.5C109.8 44 109.8 43.7998 109.8 43.2998L113.5 43.7002C113.6 43.7002 114 43.7001 114 44.1001C114 44.4001 113.9 44.3999 113.2 44.8999C113 45.8999 112.8 46.5998 112.7 48.2998C113.6 48.0998 115 47.8002 116.5 47.2002V49.7002C114.4 50.4002 112.8 50.6002 112.6 50.7002C112.6 51.0002 112.6 53.0002 112.6 53.2002C112.6 55.3002 112.7 57.6002 112.9 59.7002C114.5 60.2002 116.5 60.8998 118.2 62.2998L116.8 64.7998ZM108.1 61.2002C106.2 61.2002 105.1 61.8001 105.1 62.6001C105.1 63.5001 106.2 64.1001 107.6 64.1001C108.7 64.1001 109.5 63.6 109.8 63C110 62.5 109.9 62.0999 109.9 61.3999C109.4 61.2999 108.8 61.2002 108.1 61.2002Z" fill="#231815"/>
<path d="M138.7 64.7002C136.8 66.1002 134.6 66.8999 132.2 66.8999C130.6 66.8999 128.9 66.1998 127.8 65.2998C125.6 63.3998 125.6 61.1001 125.6 60.1001C125.6 58.2001 125.9 49.2999 125.9 47.8999C125.9 44.8999 125.7 43.4 125.6 42.5L129.3 43C129.5 43 130 43.1 130 43.5C130 43.8 129.9 43.7998 129.1 44.2998C129 45.4998 128.8 47.1001 128.7 49.6001C128.5 55.3001 128.4 57.8998 128.4 58.7998C128.4 60.1998 128.4 64.1001 132.8 64.1001C136.1 64.1001 139.4 61.2998 141.6 55.7998L143.8 58.1001C141.9 61.9001 140.3 63.6002 138.7 64.7002ZM140.1 50.3999C139.4 49.6999 138.6 48.9 136.6 47.5L138.2 46C139.9 47 141.3 48.4999 141.6 48.8999L140.1 50.3999ZM143 47.3999C142.1 46.3999 141.4 45.7001 139.8 44.6001L141.2 43.2002C142.1 43.8002 143.2 44.6001 144.6 46.1001L143 47.3999Z" fill="#231815"/>
<path d="M170.4 64.7002C167.8 66.7002 164.8 67.4998 163.4 67.7998L161.7 65C168.2 64.5 171.1 60.4001 171.1 56.6001C171.1 52.8001 167.9 49.6999 164.9 49.8999C164 52.8999 163.1 55.9001 161.1 59.1001C161.7 60.0001 162.2 60.5998 162.8 61.2998L160.8 63.3999C160.4 62.8999 160 62.4 159.4 61.5C158.9 62 157.5 63.7001 155.8 64.6001C155.1 65.0001 154.6 65.1001 153.8 65.1001C150.8 65.1001 150 62.2 150 60C150 56.3 151.9 52.7001 154.4 50.6001C153.8 48.7001 153.5 46.9002 153.1 44.7002L156 43.7002C156 45.2002 155.9 46.2 156.6 49C159.2 47.5 161.5 47.3998 162.5 47.2998C162.5 46.8998 162.6 46.6001 162.8 44.6001C162.9 43.8001 162.9 43.1002 162.9 42.2002L166.4 43.1001C166.6 43.2001 166.6 43.2999 166.6 43.3999C166.6 43.6999 166.1 44.1998 165.9 44.2998C165.6 45.0998 165.6 45.2998 165.3 47.2998C166.2 47.3998 167.3 47.4998 168.7 48.2998C171.7 49.8998 173.8 53.0998 173.8 56.7998C174 59.1998 173.2 62.5002 170.4 64.7002ZM155.5 53.5C153.2 56.1 152.9 58.3001 152.9 59.6001C152.9 62.2001 153.7 62.5 154.4 62.5C155.5 62.5 157.2 60.4998 158.2 59.2998C157.4 57.8998 156.8 56.8 155.5 53.5ZM157.5 51.7002C158.1 53.4002 158.9 55.1002 159.8 56.7002C161.2 54.1002 161.6 52.6 162.1 50C161.3 50.1 159.6 50.3002 157.5 51.7002Z" fill="#231815"/>
<path d="M200.4 66.6001C198.9 65.4001 196.2 63.4002 193.3 62.7002C193.4 63.2002 193.4 63.4001 193.4 63.6001C193.4 67.3001 190 67.6001 188.5 67.6001C184.7 67.6001 181.9 65.5999 181.9 63.3999C181.9 60.7999 185.7 59.5 188.2 59.5C189.1 59.5 190.3 59.6002 190.7 59.7002C190.7 59.2002 190.6 59.0998 190.6 58.7998C190.6 58.2998 190.5 56.1998 190.5 55.7998C189 55.7998 186.1 55.9002 184.6 55.7002C184.1 55.6002 182.3 55.4 182.3 54C182.3 53 183.4 52 185.7 50.5L187.2 51.8999C186.4 52.3999 185.6 52.8002 185.6 53.2002C185.6 53.6002 185.9 53.7002 186.1 53.7002C186.4 53.8002 187.5 53.7998 188.3 53.7998C188.9 53.7998 189 53.8002 190.4 53.7002C190.3 52.4002 190.3 52.1001 190.3 49.1001C185.5 49.2001 183.7 49.3001 181.3 49.6001V46.8999H190.2C190.2 45.1999 190.1 43.6002 190.1 42.7002L193.6 42.8999C193.8 42.8999 194.1 42.9998 194.1 43.2998C194.1 43.6998 193.8 43.8001 193.2 44.1001C193.1 45.1001 193.1 45.6998 193 46.7998H201.4V49.5C199.2 49.2 199.1 49.2 192.9 49C192.8 50.7 192.8 51.8 192.9 53.5C193.8 53.4 197.1 53.1001 200.3 52.1001V54.6001C198.4 55.2001 194.7 55.5001 192.9 55.6001C192.9 56.3001 193 59.4 193.1 60C196.1 60.4 200.3 62.5001 201.5 63.6001L200.4 66.6001ZM188 61.7002C187 61.7002 184.8 62.2 184.8 63.5C184.8 64.5 186.4 65.1001 187.7 65.1001C188.3 65.1001 190.2 64.9 190.6 63.5C190.7 62.9 190.7 62.4999 190.7 61.8999C190.4 61.9999 189 61.7002 188 61.7002Z" fill="#231815"/>
<path d="M231.6 52.1001C231 52.1001 228.6 52.3002 226.4 52.7002C226.5 55.1002 226.3 57.8999 225.3 58.8999C224.2 59.9999 221.5 59.8999 220.3 59.8999L219.3 57C220 57.2 220.6 57.5 221.6 57.5C223.6 57.5 223.8 56.7002 223.9 56.2002C223.9 56.0002 224.2 54.8 224.1 53L216.2 54.2002C216.2 55.8002 216.1 57.5001 216.1 59.1001C216.1 63.2001 216.4 64 222.1 64C223.4 64 226.7 64.0001 229.2 63.1001L228.5 66C224.7 66.3 224 66.3999 222.7 66.3999C222.4 66.3999 218.1 66.4002 216.1 65.7002C213.7 64.9002 213.6 61.9998 213.5 60.2998C213.4 59.3998 213.4 55.5002 213.4 54.7002C211.7 54.9002 209.4 55.3999 207.6 55.8999L207.4 52.8999C209.9 52.9999 212.4 52.5999 213.3 52.3999C213.2 51.1999 213.2 46 213 45L216.4 45.2002C216.9 45.2002 217.3 45.3002 217.3 45.7002C217.3 46.0002 217 46.2002 216.3 46.7002C216 48.5002 215.9 49.9002 215.9 52.2002L223.8 51C223.9 49.7 223.7 44.9 223.6 44L226.7 44.2002C227 44.2002 227.4 44.3001 227.4 44.6001C227.4 45.0001 227.3 45.1001 226.6 45.6001C226.4 46.6001 226.3 47.2001 226.2 50.6001C227.4 50.4001 230.5 49.8999 232.1 49.3999V52.5C232 52.1 231.9 52.1001 231.6 52.1001Z" fill="#231815"/>
<path d="M253.5 66.7998C250.9 66.7998 249.6 65.4002 249.6 63.2002C249.6 62.8002 249.6 62.6 249.9 61C250.1 59.9 250.4 58.3001 250.4 57.6001C250.4 56.2001 249.1 56.1001 248.6 56.1001C245.1 56.1001 242.3 59.0002 238.9 66.2002L235.9 65C237.7 62.3 238.5 60.7999 240.4 57.3999L244.7 49.7998C245.1 49.0998 246.9 45.8002 247.2 45.2002C247.6 44.3002 247.9 43.9002 248.4 42.7002L251.7 44.3999C251.9 44.4999 252.1 44.6999 252.1 44.8999C252.1 45.2999 251.6 45.4002 250.9 45.7002C249.7 47.4002 248.5 49.0999 247.5 50.8999L244.9 55.2998C246 54.5998 247.9 53.5 249.7 53.5C250.9 53.5 252.4 53.9999 253 54.8999C253.4 55.4999 253.5 56.2001 253.5 57.1001C253.5 58.2001 253.2 59.9 253.1 60.5C253 61.2 252.8 62.2001 252.8 62.6001C252.8 63.7001 253.6 64.1001 254.3 64.1001C255.4 64.1001 256.5 63.0998 257.9 61.7998C259.1 60.5998 259.4 60.1002 259.7 59.7002L261.4 62.2002C260 63.6002 257.4 66.7998 253.5 66.7998Z" fill="#231815"/>
<path d="M280.3 63.8999C279.4 65.7999 278.4 66.5 276.1 66.5C274.8 66.5 274.2 66.3001 273.4 66.1001L273 63C274 63.4 274.8 63.7998 275.8 63.7998C276.6 63.7998 277.4 63.6999 278.2 61.3999C279 59.1999 279.6 56.7 279.6 54.5C279.6 52.5 279.1 51.6001 277.7 51.6001C276.9 51.6001 276 51.7 274.7 52C273.3 57.1 271.3 62.0999 268.2 66.3999L265.2 65.1001C267.8 62.8001 270.3 58.1002 271.6 52.7002C270.4 52.9002 267.6 53.6 266.5 54L265.5 51.2002C267.5 51.1002 269.9 50.6002 272.1 50.2002C272.5 48.0002 272.9 45.8001 272.8 43.6001L275.7 43.8999C275.9 43.8999 277 44.0001 277 44.6001C277 44.9001 276.8 45.0002 276 45.7002C275.7 46.9002 275.6 47.3002 275.1 49.7002C276.2 49.6002 277.2 49.3999 278.4 49.3999C281.5 49.3999 282.2 52 282.2 54.5C282.4 57.5 281.4 61.5999 280.3 63.8999ZM285.9 58L283.9 55.2998C286.4 55.3998 286.7 54.9 286.7 54C286.7 53.4 286.4 52.7999 286.1 52.3999C285.3 51.1999 283.4 49.0002 282.5 48.2002L284.6 46.8999C285.4 47.6999 286.5 48.8001 287.9 50.6001C289.4 52.5001 289.7 53.6 289.7 54.5C289.7 57.2 287 57.7 285.9 58Z" fill="#231815"/>
<path d="M296.1 50.8999C296.2 49.1999 296.4 43.8999 303.9 43.8999C308.5 43.8999 311 46.3999 311 49.3999C311 51.3999 310 52.8 307.5 55C305.2 57.1 304.8 57.9 304.7 60.5H301.8C301.9 57.1 302.2 56.3998 305.2 53.2998C307.6 50.9998 307.7 50.0002 307.7 49.2002C307.7 46.4002 304.8 46.2998 303.7 46.2998C299.3 46.2998 299.2 49.1998 299.2 50.7998H296.1V50.8999ZM305 63.3999V66.5H301.8V63.3999H305Z" fill="#231815"/>
</svg>
