<svg width="66" height="54" viewBox="0 0 66 54" fill="none" xmlns="http://www.w3.org/2000/svg">
<path d="M21.2 53.1001C45.6 53.1001 59 32.7998 59 15.2998C59 14.6998 59 14.2001 59 13.6001C61.6 11.7001 63.9 9.4002 65.6 6.7002C63.2 7.8002 60.7 8.4998 58 8.7998C60.7 7.1998 62.9 4.5999 63.8 1.3999C61.2 2.8999 58.4 4.0001 55.4 4.6001C53 2.0001 49.5 0.399902 45.7 0.399902C38.4 0.399902 32.4 6.4002 32.4 13.7002C32.4 14.7002 32.5 15.8002 32.7 16.7002C21.7 16.1002 11.9 10.8998 5.29999 2.7998C4.19999 4.7998 3.49998 7 3.49998 9.5C3.49998 14.1 5.79998 18.2001 9.39998 20.6001C7.19998 20.5001 5.19998 19.8999 3.39998 18.8999C3.39998 18.9999 3.39998 19.0001 3.39998 19.1001C3.39998 25.5001 7.99999 30.9001 14.1 32.1001C13 32.4001 11.8 32.6001 10.6 32.6001C9.69999 32.6001 8.89999 32.4999 8.09999 32.3999C9.79999 37.6999 14.7 41.5001 20.5 41.6001C16 45.2001 10.2 47.2998 3.99998 47.2998C2.89998 47.2998 1.89999 47.2001 0.799988 47.1001C6.69999 50.9001 13.7 53.1001 21.2 53.1001Z" fill="white"/>
</svg>
