<svg width="134" height="104" viewBox="0 0 134 104" fill="none" xmlns="http://www.w3.org/2000/svg">
<path d="M69.7 44.7998H61V28H69.4V31.2998H64.3V34.2002H66.9V37.5H64.3V41.5H69.7V44.7998V44.7998Z" fill="black"/>
<path d="M56.6 44.7998H53.6L47.5 35.7002C47.1 35.1002 46.5 34.1998 46.3 33.7998C46.3 34.3998 46.3 36.5 46.3 37.5V44.8999H43V28H46.2L52.1 36.8999C52.5 37.4999 53.1 38.3998 53.3 38.7998C53.3 38.1998 53.3 36.1001 53.3 35.1001V28H56.6V44.7998Z" fill="black"/>
<path d="M90.8 28L87.3 44.7002H84L81.9 36.1001C81.7 35.1001 81.4 33.9002 81.3 33.2002C81.2 33.8002 81 35.1001 80.7 36.1001L78.6 44.7002H75.5L72 28H75.5L77 36.2002C77.1 37.0002 77.3 38.3 77.4 39C77.5 38.3 77.8 37.1002 78 36.2002L80 28H82.9L84.9 36.2002C85.1 37.0002 85.4 38.3 85.5 39C85.6 38.3 85.8 37.0002 85.9 36.2002L87.4 28H90.8Z" fill="black"/>
<path d="M66.6 103.7L71.4 100.5L80.2 103.7L88.7 79.7998L76.7 85.7998L73.3 82.2002L66.6 87L59.9 82.2002L56.6 85.7998L44.6 79.7998L53.1 103.7L61.9 100.5L66.6 103.7Z" fill="black"/>
<path d="M36 93C36 92.1 36.4 89.2002 40.1 89.2002H59.5V86.2002H40C34.6 86.2002 32.8 90.4 32.8 93C32.8 95.6 34.6 99.7998 40 99.7998H60.3V96.7998H40.2C36.4 96.7998 36 93.9 36 93Z" fill="black"/>
<path d="M97.3 93C97.3 92.1 96.9 89.2002 93.2 89.2002H73.8V86.2002H93.3C98.7 86.2002 100.5 90.4 100.5 93C100.5 95.6 98.7 99.7998 93.3 99.7998H73V96.7998H93.1C96.8 96.7998 97.3 93.9 97.3 93Z" fill="black"/>
<path d="M104.7 72.3999H96V55.7002H104.4V59H99.3V61.8999H101.9V65.2002H99.3V69.2002H104.7V72.3999V72.3999Z" fill="black"/>
<path d="M116.8 72.3999H108V55.7002H116.4V59H111.3V61.8999H113.9V65.2002H111.3V69.2002H116.7V72.3999H116.8Z" fill="black"/>
<path d="M13.5 72.3999H10.2V65.3999H3.3V72.3999H0V55.7002H3.3V62.1001H10.2V55.7002H13.5V72.3999Z" fill="black"/>
<path d="M32.4 72.3999H28.7L27.4 68.7002H21.3L20 72.3999H16.4L22.8 55.7002H26.1L32.4 72.3999ZM26.2 65.5L25.1 62.5C24.8 61.5 24.4 60.4999 24.3 59.8999C24.1 60.4999 23.8 61.5 23.5 62.5L22.4 65.5H26.2Z" fill="black"/>
<path d="M92.8 55.7002L89.3 72.3999H86L83.9 63.7998C83.7 62.7998 83.4 61.5999 83.3 60.8999C83.2 61.4999 83 62.7998 82.7 63.7998L80.6 72.3999H77.5L74 55.7002H77.5L79 63.8999C79.1 64.6999 79.3 66.0002 79.4 66.7002C79.5 66.0002 79.8 64.7999 80 63.8999L82 55.7002H84.9L86.9 63.8999C87.1 64.6999 87.4 66.0002 87.5 66.7002C87.6 66.0002 87.8 64.6999 87.9 63.8999L89.4 55.7002H92.8Z" fill="black"/>
<path d="M133.3 72.3999H130.3L124.2 63.2998C123.8 62.6998 123.2 61.7999 123 61.3999C123 61.9999 123 64.1001 123 65.1001V72.5H119.7V55.7998H122.9L128.8 64.7002C129.2 65.3002 129.8 66.2001 130 66.6001C130 66.0001 130 63.8999 130 62.8999V55.7998H133.3V72.3999V72.3999Z" fill="black"/>
<path d="M42.7 72.3999H35.5V55.7002H38.8V69.1001H42.7V72.3999V72.3999Z" fill="black"/>
<path d="M53.5 72.3999H46.3V55.7002H49.6V69.1001H53.5V72.3999V72.3999Z" fill="black"/>
<path d="M63.7 69.2998C61 69.2998 58.8 67.0999 58.8 64.3999C58.8 61.6999 61 59.5 63.7 59.5C66.4 59.5 68.6 61.6999 68.6 64.3999C68.6 67.0999 66.4 69.2998 63.7 69.2998ZM63.7 72.7998C68.3 72.7998 72.1 68.9999 72.1 64.3999C72.1 59.7999 68.3 56 63.7 56C59.1 56 55.3 59.7999 55.3 64.3999C55.3 68.9999 59.1 72.7998 63.7 72.7998Z" fill="black"/>
<path d="M62.7 68.1001C64.0807 68.1001 65.2 66.9808 65.2 65.6001C65.2 64.2194 64.0807 63.1001 62.7 63.1001C61.3193 63.1001 60.2 64.2194 60.2 65.6001C60.2 66.9808 61.3193 68.1001 62.7 68.1001Z" fill="black"/>
<path d="M42.8 17.1001H39.5V10.1001H32.6V17.1001H29.3V0.399902H32.6V6.7998H39.5V0.399902H42.8V17.1001Z" fill="black"/>
<path d="M56.1 17.1001H47.3V0.399902H55.7V3.7002H50.6V6.6001H53.2V9.8999H50.6V13.8999H56V17.1001H56.1Z" fill="black"/>
<path d="M67.6 17H60.4V0.299805H63.7V13.7002H67.6V17V17Z" fill="black"/>
<path d="M78.5 17H71.3V0.299805H74.6V13.7002H78.5V17V17Z" fill="black"/>
<path d="M88.6 4C91.3 4 93.5 6.1999 93.5 8.8999C93.5 11.5999 91.3 13.7998 88.6 13.7998C85.9 13.7998 83.7 11.5999 83.7 8.8999C83.7 6.1999 85.9 4 88.6 4ZM88.6 0.600098C84 0.600098 80.2 4.4 80.2 9C80.2 13.6 84 17.3999 88.6 17.3999C93.2 17.3999 97 13.6 97 9C97 4.3 93.2 0.600098 88.6 0.600098Z" fill="black"/>
<path d="M89.6 10.2002C90.9807 10.2002 92.1 9.08091 92.1 7.7002C92.1 6.31948 90.9807 5.2002 89.6 5.2002C88.2193 5.2002 87.1 6.31948 87.1 7.7002C87.1 9.08091 88.2193 10.2002 89.6 10.2002Z" fill="black"/>
<path d="M103.9 7.2998L103.3 11.2998H101L100.4 7.2998V0.399902H103.8V7.2998H103.9ZM104.3 17.3999H100.2V13.2998H104.3V17.3999Z" fill="black"/>
</svg>
