<svg width="788" height="111" viewBox="0 0 788 111" fill="none" xmlns="http://www.w3.org/2000/svg">
<path d="M6.2 0.5L0 85.7L11.6 110.9H788V2.09998L6.2 0.5Z" fill="#D06500"/>
<path d="M135.1 52.5L134.6 57.8H139.2V61.5H134.3L133.8 67.2H131.9L132.4 61.5H128.3L127.8 67.2H125.9L126.4 61.5H122.1V57.8H126.8L127.3 52.5H122.8V48.8H127.6L128.1 43.1H130L129.5 48.8H133.6L134.1 43.1H136L135.5 48.8H139.9V52.5H135.1ZM129.1 52.5L128.6 57.8H132.7L133.2 52.5H129.1Z" fill="white"/>
<path d="M171.2 68.9L169.2 66.3C173.9 65.6 177.2 62.9 177.2 59.3C177.2 58.4 176.9 54.9 173 54.2C171.9 57.3 170.1 60.2 168 62.7C168.2 63.3 168.2 63.5 168.8 64.7L166.1 66.5C165.7 65.5 165.6 65.4 165.4 64.8C164.2 65.8 162.3 67.3 159.9 67.3C157.6 67.3 155.8 65.9 155.8 62.8C155.8 58.2 159.2 54.1 163.8 52.5C163.7 51.3 163.9 49.7 164 48.8C160.7 49.1 159.8 49.1 158.5 49.1L157.3 45.9C158.2 46.1 159.1 46.4 161.7 46.4C162.7 46.4 163.4 46.4 164.2 46.3C164.6 43.1 164.6 42.7 165.1 40.2L168.5 41.1C169.1 41.3 169.2 41.3 169.2 41.5C169.2 41.9 169.1 41.9 168.2 42.5C167.9 43.5 167.8 44.1 167.4 45.9C171.5 45.3 173.5 44.7 176.6 43.4L176.4 46.5C172.9 47.4 171 47.8 166.9 48.5C166.6 50 166.6 50.6 166.5 51.6C167.5 51.2 168.2 51.1 170.7 51.1C171 49.9 171 49.7 171 49.1L174.3 49.6C174.2 50.1 174.1 50.2 173.7 51.5C174.8 51.8 176.6 52.3 178.2 54.1C179.7 55.8 180.1 57.8 180.1 59.2C180.3 63 177.4 67.5 171.2 68.9ZM163.8 55.4C162.8 55.9 162.2 56.3 161 57.6C159.9 58.8 158.9 60.4 158.9 62.6C158.9 64.3 160.3 64.5 160.7 64.5C161.3 64.5 162 64.2 162.5 63.9C163.5 63.3 164.1 62.7 164.6 62.2C164.1 59.8 163.9 56.6 163.8 55.4ZM166.6 54.3C166.8 57.2 166.9 57.9 167.1 59.4C168.7 57.4 169.6 55.4 170.1 53.7C168.6 53.7 167.9 53.9 166.6 54.3Z" fill="white"/>
<path d="M204.3 48.7C202.6 49.2 201.3 49.6 198.1 50.1C197.6 51.5 195.7 57.5 195.2 58.7C193.6 63 192.3 65.8 191.1 68.2L187.7 67C190.2 63.3 193.2 56.9 194.7 50.6C193.9 50.7 193 50.8 191.6 50.8C190.5 50.8 189.8 50.7 189 50.7V47.7C189.9 47.8 191.2 48 192.7 48C193.9 48 194.7 47.9 195.5 47.8C195.8 46.5 196 45.7 196.6 40.7L200.4 41.3C201 41.4 201.2 41.5 201.2 41.9C201.2 42.3 200.9 42.5 200.1 42.6C199.5 44.7 199.4 45.3 198.8 47.4C200.3 47.2 201.6 46.9 204.5 45.7L204.3 48.7ZM212.1 67.9C210.8 68 209.7 68 208.8 68C202.1 68 200.8 67.5 199.8 66.8C199.4 66.5 198.6 65.9 198.6 64.9C198.6 62.9 200.2 61.1 200.8 60.4L203.2 61.6C202.5 62.3 201.5 63.2 201.5 63.9C201.5 65.3 205.7 65.3 206.9 65.3C210.5 65.3 211.4 65 212.5 64.7L212.1 67.9ZM212.8 54.5C212.2 54.3 211.1 53.9 208.1 53.9C204.8 53.9 203.3 54.2 202.3 54.4L202.5 51.6C203.6 51.5 205.2 51.4 207.5 51.4C209.8 51.4 211.3 51.5 212.8 51.6V54.5Z" fill="white"/>
<path d="M238.8 66.1C236.1 67.9 233.4 68.2 226.9 68.6L225.3 65.2C228.7 65.2 231.3 65.2 233.7 64.9C236.6 64.5 239.3 62.3 239.3 59.5C239.3 58.6 238.9 55.2 234.6 55.2C230.8 55.2 227.8 57.7 225.5 60.4L222.4 59.1C222.5 58.4 222.8 55.7 222.9 55.1C223.3 52.5 223.8 49.1 224.4 46.6L227.9 47.4C228.2 47.5 228.6 47.6 228.6 48C228.6 48.3 228.3 48.5 228.1 48.5C227.7 48.7 227.5 48.8 227.2 49C226.3 51.8 225.9 54.5 225.7 56C228.5 53.9 231.4 52.5 234.8 52.5C237.9 52.5 242.4 54.3 242.4 59.5C242.5 61.9 241.6 64.2 238.8 66.1ZM235.7 46.7C231.8 44.5 228.1 44.1 226.4 43.9L227.5 41C230.8 41.3 234.6 42.4 237.1 43.6L235.7 46.7Z" fill="white"/>
<path d="M269.5 64.9C267 67.1 263.6 67.8 261.9 67.8C260 67.8 257.6 67 256.1 65.2C254.6 63.4 254.5 61.9 254.5 59C254.5 57.3 254.8 49.9 254.8 48.4C254.8 46.3 254.7 43 254.4 40.9L258.2 41.4C259 41.5 259.3 41.6 259.3 42C259.3 42.3 259.2 42.4 258.3 43C258.2 43.8 258.1 44.7 258 46C257.8 48.4 257.6 56.6 257.6 57.9C257.6 61 257.7 62 258.5 63C259.5 64.4 261.3 64.9 262.3 64.9C263.9 64.9 266.6 64 268.4 62C270.6 59.5 271.5 56.9 272 55.7L274.6 58.1C273.3 60.6 271.7 63 269.5 64.9Z" fill="white"/>
<path d="M290.6 66.1C288.9 66.1 287.4 64.5 286.8 63.8C284.3 60.9 283.2 57.6 283.2 52.3C283.2 51 283.3 50.4 283.9 45.1C283.9 45 284 44.4 284 44.2L287 45.3C287.7 45.5 288 45.7 288 46C288 46.3 287.6 46.5 287.2 46.7C286.9 47.7 286.4 49.7 286.4 52.6C286.4 58 288.6 62.1 290.2 62.1C291.8 62.1 292.8 58.4 293.1 56.6L295 58.6C294.4 61.5 293.1 66.1 290.6 66.1ZM306.7 59.3C306.6 56.5 305.9 53.7 304.7 51.1C303 47.5 302.2 46.6 301.6 45.8L304.6 44.4C308 48.5 310.2 55.2 310.4 58.2L306.7 59.3Z" fill="white"/>
<path d="M327 47.4C326.8 48 326.7 48.3 325.9 51.6C324.8 55.5 323.7 58 321.8 61C320.3 63.5 319.4 64.6 318.7 65.3L315.5 63.6C321.4 58 323.5 48.4 323.8 44.8L327.7 45.9C328.2 46 328.3 46.2 328.3 46.4C328.3 46.9 328.2 46.9 327 47.4ZM340.8 64.4C340.3 61.5 339.7 58.9 338.1 55.2C336.8 52.2 335.3 49.4 333.3 46.9L336.1 45.1C341 51.3 343.7 59.5 344.5 63.3L340.8 64.4Z" fill="white"/>
<path d="M372.2 65.6C372.3 64.9 372.3 64.8 372.4 63.6H356.3C356.3 64.1 356.3 65 356.4 65.5H352.6C352.7 64.6 352.9 63.2 352.9 61.2C352.9 58 352.9 57.6 352.9 57.3V50.4C352.9 49.4 352.8 44.3 352.7 43.5C354.6 43.7 358.8 43.8 360.8 43.8H367.9C370.2 43.8 373.7 43.8 376 43.6C375.9 45.3 375.8 49.2 375.8 51.1V57.6C375.8 58.3 375.9 61.1 375.9 61.7C375.9 64 376.1 64.8 376.2 65.6H372.2V65.6ZM372.5 46.8H356.3V60.7H372.5V46.8Z" fill="white"/>
<path d="M408.4 50.7C408.1 52.4 406.9 57.3 405.1 60.5C404.4 61.6 400.7 67.4 396.1 69.2L392.9 67C394.3 66.6 396.9 65.7 400.3 61.8C402.1 59.8 403.3 57.8 404.4 54.5C405.4 51.5 405.4 49.6 405.4 48.6H389V52.3C389 52.8 389 55 389.2 56.7H385.5C385.8 54.8 385.8 53.6 385.8 53.3V50.2V49.6C385.8 47.6 385.6 46.7 385.5 46C389 46.2 389.4 46.3 389.8 46.3H392.9H395.7V43.9C395.7 42.6 395.6 41.3 395.6 39.9L399 40.4C399.3 40.4 399.9 40.5 399.9 41C399.9 41.4 399.4 41.5 399.1 41.6C398.9 42.9 398.8 44.2 398.8 44.8V46.4H400.1C401.7 46.4 403.5 46.4 404.6 46.3C405.7 46.2 406.3 46.1 406.8 45.6L409.3 47.8C408.7 48.8 408.6 49.3 408.4 50.7Z" fill="white"/>
<path d="M436.3 49.5C435.9 49.5 435.6 49.6 435.3 49.9C434.1 51.2 433.2 52.2 430.3 54.5V63.9C430.3 65 430.5 68 430.5 69.3H427.5C427.6 67.3 427.7 66 427.7 64V56.3C424.8 58.2 423.1 59.2 420.5 60.5L417.8 58.2C421.1 56.9 423.8 55.9 428.1 52.6C431.5 50 432.7 48.4 434.2 46.4L436.5 48.2C436.8 48.4 437.2 48.8 437.2 49.1C437.2 49.4 437 49.4 436.3 49.5Z" fill="white"/>
<path d="M448.4 66.3C448.3 66.4 448.2 67 448.1 67.1C448 67.2 447.9 67.3 447.7 67.3C447.5 67.3 447.4 67.2 447 66.5L445.2 63.1C450.3 62.4 462.2 57.2 468.4 49.1L469.7 52.3C463.3 59.9 452.9 64.4 448.4 66.3ZM453 49.3C450.8 47.2 447.4 45.4 445.8 44.7L447.6 41.7C452.5 44 454 45.5 454.9 46.3L453 49.3Z" fill="white"/>
<path d="M500.5 44C498.1 49.9 497.9 56.1 497.9 57.6C497.9 59.8 498.2 61.2 498.4 62.3C498.7 61.7 499 61.1 499.3 60.1C499.7 58.7 499.8 58.6 499.9 58.2L501.6 59.7C501.3 60.4 499.8 64.8 499.4 67.5L496.9 67.9C495.7 63.7 495.4 60 495.4 57.1C495.4 54.3 495.6 52.3 496.6 47.2C497 44.9 497.3 43.4 497.7 42L501.3 42.7C501.5 42.7 501.8 42.9 501.8 43.2C501.5 43.4 501.4 43.4 500.5 44ZM519.6 65.4C518.6 64.4 516.9 63.2 515.1 62.6C515.5 66.4 512.5 67.4 509.9 67.4C506.2 67.4 503.6 65.6 503.6 63.1C503.6 61.2 505.2 59.9 506.3 59.5C508.3 58.8 510.8 58.8 511.1 58.8C511.6 58.8 511.8 58.8 512.1 58.9C511.9 56.3 511.9 55.5 511.8 50.1C509.9 50.3 509 50.4 507.3 50.4C506.1 50.4 505.4 50.3 504.7 50.3V47.4C505.5 47.6 506.9 47.8 508.6 47.8C509.5 47.8 510.4 47.7 511.7 47.6C511.7 47 511.8 43.8 511.8 43C511.8 42.4 511.8 42.2 511.8 41.7L515.8 42.1C515.9 42.1 516.3 42.1 516.3 42.6C516.3 42.9 516.2 43 515.4 43.5C515.1 44.6 514.9 45.3 514.8 47.2C515.8 47 517.4 46.7 518.9 46V48.7C516.6 49.5 514.9 49.7 514.6 49.8C514.6 50.1 514.6 52.3 514.6 52.5C514.6 54.8 514.7 57.3 514.9 59.6C516.6 60.1 518.8 61 520.8 62.5L519.6 65.4ZM509.9 61.5C507.8 61.5 506.6 62.1 506.6 63.1C506.6 64.1 507.8 64.7 509.3 64.7C510.5 64.7 511.4 64.2 511.8 63.4C512 62.9 512 62.4 511.9 61.7C511.4 61.6 510.7 61.5 509.9 61.5Z" fill="white"/>
<path d="M545.3 65.4C543.2 66.9 540.7 67.8 538.2 67.8C536.4 67.8 534.6 67.1 533.3 66C530.9 64 530.9 61.4 530.9 60.3C530.9 58.2 531.2 48.5 531.2 46.8C531.2 43.5 531 41.8 530.8 40.9L534.9 41.5C535.1 41.5 535.7 41.6 535.7 42.1C535.7 42.4 535.6 42.5 534.7 43C534.6 44.3 534.4 46.1 534.3 48.8C534.1 55.1 534 58 534 58.9C534 60.5 534 64.7 538.8 64.7C542.4 64.7 546.1 61.6 548.4 55.6L550.9 58.1C548.8 62.3 547.1 64.1 545.3 65.4ZM546.9 49.6C546.2 48.8 545.2 48 543 46.4L544.7 44.8C546.6 45.9 548.1 47.6 548.4 48L546.9 49.6ZM550.1 46.3C549.1 45.2 548.3 44.5 546.6 43.2L548.2 41.6C549.2 42.3 550.4 43.2 551.9 44.8L550.1 46.3Z" fill="white"/>
<path d="M582.3 65.3C579.4 67.5 576.1 68.3 574.6 68.7L572.8 65.7C580 65.1 583.2 60.7 583.2 56.5C583.2 52.3 579.7 48.9 576.4 49.2C575.4 52.5 574.4 55.8 572.3 59.3C572.9 60.3 573.5 61 574.2 61.8L572 64.1C571.6 63.5 571.1 63 570.4 62C569.9 62.6 568.4 64.4 566.5 65.5C565.7 65.9 565.1 66.1 564.3 66.1C561 66.1 560.1 62.9 560.1 60.5C560.1 56.5 562.2 52.5 564.9 50.2C564.2 48.2 563.9 46.1 563.5 43.7L566.6 42.6C566.6 44.2 566.5 45.3 567.3 48.4C570.1 46.8 572.7 46.6 573.8 46.5C573.8 46 573.9 45.8 574.1 43.5C574.2 42.6 574.2 41.8 574.3 40.8L578.2 41.8C578.4 41.9 578.5 42 578.5 42.1C578.5 42.4 577.9 42.9 577.7 43.1C577.4 43.9 577.4 44.2 577 46.4C578 46.5 579.2 46.7 580.7 47.5C584 49.2 586.3 52.8 586.3 56.8C586.2 59.2 585.4 62.9 582.3 65.3ZM565.8 53C563.3 55.8 563 58.2 563 59.7C563 62.5 563.8 62.9 564.6 62.9C565.8 62.9 567.7 60.7 568.7 59.4C567.9 57.9 567.2 56.6 565.8 53ZM568.1 51C568.8 52.9 569.6 54.8 570.6 56.5C572.1 53.6 572.6 52 573.1 49.1C572.3 49.3 570.4 49.4 568.1 51Z" fill="white"/>
<path d="M617.6 67.2C613.2 63.7 610 62.8 608.5 62.5C608.5 63.9 608.5 65.5 607.5 66.5C606.1 67.9 603.2 68.3 601.5 68.3C598.7 68.3 594 67.1 594 63.5C594 60.2 597.8 58.6 602.1 58.6C603.3 58.6 604.6 58.7 605.2 58.7C604.9 55.8 604.9 52.4 604.8 49.3C604.7 43.4 604.7 42.8 604.6 40.9L609.1 41.3C609.3 41.3 609.7 41.4 609.7 41.8C609.7 42.1 609.6 42.2 608.4 43.2C608.2 44.8 608 46.4 608 48C609.8 48 614.1 48.1 617.6 46.7V49.9C614.9 50.8 610.9 50.8 607.9 50.8C607.9 55.2 607.9 56.5 608.1 59.3C610.2 59.8 612.2 60.5 614.2 61.3C615.6 61.9 617.4 62.9 619 63.8L617.6 67.2ZM602 61.4C600.5 61.4 598.9 61.7 598.1 62.1C597.7 62.3 597.1 62.7 597.1 63.6C597.1 65.4 600.5 65.6 601.2 65.6C605.6 65.6 605.4 63.2 605.3 61.8C604.5 61.6 603.4 61.4 602 61.4Z" fill="white"/>
<path d="M642.9 65.2C639.4 68.6 636.2 69.4 634.7 69.7L632.4 66.6C633.9 66.4 636.8 66 639.7 63.7C642.4 61.5 644 58.3 644 55.3C644 53.3 643.1 50.8 639.8 50.8C637.9 50.8 633.5 52.2 630.2 54.5C630.1 54.8 629.9 55.1 629.6 55.1C629.2 55.1 629.1 54.8 628.8 54.1L627.6 51.5C634.9 48.9 637.9 47.8 640.6 47.8C641 47.8 644 47.8 645.6 50C646.7 51.5 647.2 53.2 647.2 55.1C647.4 57.8 646.3 61.8 642.9 65.2ZM642.9 44.2C642.3 44.2 641.6 44.1 639.8 44.8C637.8 45.5 637.3 45.8 636.7 46.2L634.9 45C635.2 44.9 636.6 44.1 636.9 43.9C634.6 43.4 634.4 43.3 633.9 43.2C632.2 42.7 632.1 42.6 631.9 42.6L632.3 39.7C635.7 41 638.2 41.4 641.8 41.4C642.4 41.4 642.7 41.3 643.4 41.2L642.9 44.2Z" fill="white"/>
<path d="M664.6 69.2C661.9 69.2 659.8 67 659.8 64.3C659.8 61.6 662 59.4 664.6 59.4C667.2 59.4 669.4 61.6 669.4 64.3C669.4 66.9 667.2 69.1 664.6 69.2ZM664.6 60.8C662.8 60.8 661.2 62.3 661.2 64.2C661.2 66 662.7 67.6 664.6 67.6C666.5 67.6 668 66 668 64.2C667.9 62.3 666.4 60.8 664.6 60.8Z" fill="white"/>
</svg>
