<?xml version="1.0" encoding="utf-8"?>
<!-- Generator: Adobe Illustrator 24.3.0, SVG Export Plug-In . SVG Version: 6.00 Build 0)  -->
<svg version="1.1" id="レイヤー_1" xmlns="http://www.w3.org/2000/svg" xmlns:xlink="http://www.w3.org/1999/xlink" x="0px"
	 y="0px" viewBox="0 0 401 249" style="enable-background:new 0 0 401 249;" xml:space="preserve">
<style type="text/css">
	.st0{fill:#CF6500;}
</style>
<path d="M88.6,28.6c-5.2-1-12-5.3-12.9-5.9c-4.6-3-7.4-6.1-10.5-9.6c-2.3,3.3-4.3,5.8-8.5,9.6c-6.3,5.7-10.4,7.6-12.3,8.4L40.1,27
	c5.6-1.8,10.3-5.3,14.5-9.3c4.2-4.1,6.4-7.6,8.9-11.8L69,7.4c0.2,0,0.8,0.3,0.8,0.9c0,0.7-0.5,1-0.9,1.1c4.1,5,7.9,8.2,12.1,10.2
	c3.6,1.7,7.2,3.4,11.1,3.9L88.6,28.6z M79.8,41.6l-4.4,8.5c-1.1,2.3-2.2,4.5-3.2,6.8l-6-2c3.9-6.1,5.7-9.1,8.7-15.3l-12.6,0.7
	c-3.7,0.2-10.2,0.9-13.7,1.4l-0.3-5.8c1.6,0,9.3-0.1,10.8-0.2L71.5,35c2.4-0.1,7.3-0.5,9.4-0.9l1.8,2.1C82.2,37,80.2,40.8,79.8,41.6
	z M70.6,30l-8.3,0.5c-1.8,0.1-6.1,0.7-7.2,0.8l-0.3-5.6c3.5,0.3,6.8,0.2,7.3,0.1l8.2-0.5c2.1-0.1,4.8-0.4,6.8-0.9l0.3,5.7
	C75.1,29.8,72.8,29.9,70.6,30z"/>
<path d="M134.4,39.8l-2.5,0.1c0.7,7.6,0.9,9.6,1.3,12.7l-6.5,0.4c0.2-2.8,0.1-3.5-0.1-12.7l-10.2,0.6c-5.1,0.3-10.1,0.7-15.1,1.4
	l-0.3-5.4c3,0,3.8,0,11-0.2l-0.3-6c-0.2-3.2-0.5-5.5-0.7-7.3c5.1-0.1,6.6-0.2,11.7-0.4l3.1-0.2l-0.4-7.4l-12.3,0.7
	c-3.6,4.4-5.7,5.8-7.4,6.8l-4.6-3.5c4.6-2.8,10.3-6.9,13.3-16.3l5.2,2.3c0.3,0.1,0.9,0.5,0.9,0.9c0,0.8-1.3,0.8-2,0.8
	c-1,1.9-1.4,2.5-2.3,4.2l12.1-0.7c5.7-0.3,11.5-0.7,17.2-1.4l0.3,5.1c-4.3,0.2-11,0.6-15.2,0.8l0.4,7.4c8.6-0.6,9.6-0.7,12.7-1.2
	l0.3,5.1c-4.8,0.1-5.5,0.1-12.7,0.4l0.5,8.8l2.6-0.1c5.5-0.3,11.1-0.7,16.6-1.4l0.3,5.4C143.9,39.3,135.1,39.8,134.4,39.8z
	 M125.9,27.1l-9.5,0.5l0.5,8.8l9.5-0.5L125.9,27.1z"/>
<path d="M169.7,7.8c-3.4,10-3.2,20.3-3.1,22.8c0.2,3.7,0.8,5.9,1.2,7.7c0.4-1,0.8-2,1.3-3.8c0.5-2.3,0.6-2.6,0.8-3.3l2.9,2.3
	c-0.4,1.2-2.5,8.7-3,13.1l-4.2,1c-2.4-6.8-3.2-13-3.4-17.8c-0.3-4.7-0.1-8,1-16.5c0.5-3.9,0.8-6.3,1.3-8.8l6.1,0.9
	c0.4,0,0.8,0.2,0.8,0.7C171.4,6.7,171.2,6.8,169.7,7.8z M203.3,41.6c-1.7-1.6-4.6-3.5-7.7-4.3c1,6.3-3.9,8.2-8.2,8.5
	c-6.2,0.4-10.6-2.4-10.9-6.5c-0.2-3.2,2.4-5.5,4.1-6.2c3.3-1.4,7.3-1.6,7.8-1.7c0.8,0,1.2,0,1.7,0c-0.6-4.3-0.7-5.6-1.3-14.6
	c-3.2,0.5-4.7,0.8-7.4,0.9c-2,0.1-3.2,0.1-4.3,0l-0.3-4.8c1.3,0.2,3.8,0.5,6.5,0.3c1.4-0.1,2.9-0.3,5.2-0.7
	c-0.1-0.9-0.2-6.3-0.2-7.7c-0.1-0.9-0.1-1.3-0.2-2.2l6.7,0.3c0.2,0,0.8,0,0.9,0.7c0,0.5-0.1,0.6-1.4,1.5c-0.3,1.8-0.6,3.1-0.6,6.2
	c1.6-0.4,4.2-1.1,6.7-2.4l0.3,4.5c-3.7,1.5-6.6,2.1-7,2.2c0,0.5,0.2,4.2,0.2,4.5c0.2,3.8,0.6,8,1.2,11.8c2.9,0.7,6.6,1.9,10,4.3
	L203.3,41.6z M187,35.9c-3.4,0.2-5.5,1.4-5.4,2.9c0.1,1.6,2.1,2.6,4.6,2.4c2-0.1,3.5-1,4-2.3c0.3-0.8,0.2-1.7,0.1-2.9
	C189.4,36,188.3,35.8,187,35.9z"/>
<path d="M224.8,46.5c-3.5-4.6-7.1-7.9-12-10.6l3.6-3.9c6.9,4.1,10.4,7.8,12.4,9.8L224.8,46.5z"/>
<path class="st0" d="M94.8,149.2c-4.9-0.6-14.1-2.9-19.7-7.1l0.1,1.2c0.1,2.1,0.7,6.3,0.9,7.3l-6,0.3c0.4-1.6,0.2-6.7,0.2-7.5
	l-0.1-1.4c-8,6.7-16.7,9.4-18.8,10l-3.5-4.2c4.2-0.6,11.3-2.5,17.9-7.9l-1.4,0.1c-2.1,0.1-10.1,0.7-16,1.4l-0.3-5.1
	c5.4,0.1,10.7-0.1,16.1-0.4l5.7-0.3l-0.2-3.3c-5.6,0.3-6.3,0.4-13.3,1.2c0.1-2.7,0.1-4.7,0-6.3l-0.6-11.3c-1.9,2.1-3.9,4.2-6.1,5.5
	l-4.8-3.1c7.9-3.7,13-12.8,14.4-17.2l5.4,1.6c0.3,0.1,0.7,0.2,0.8,0.7c0,0.8-0.5,1-2.1,1.3c-0.5,1.1-1,2.3-2.1,3.9l8.4-0.5
	c1.2-3.1,1.9-5.4,2.2-7.3l5.9,1.1c0.4,0.1,0.7,0.5,0.7,0.7c0,0.4-0.2,0.6-1.5,1.2c-0.7,1.4-1.3,2.8-1.9,4l3.7-0.2
	c2-0.1,8-0.6,12.2-1.1l0.3,4.8c-3.8-0.1-8.3,0.1-12.3,0.4l-3.8,0.2l0.2,2.8l2.4-0.1c2.4-0.1,7.1-0.6,9.9-0.9l0.2,4.4
	c-3.4,0-8.2,0.1-9.9,0.2l-2.4,0.1l0.2,2.8l2.3-0.1c3.1-0.2,6.9-0.4,9.9-0.9l0.2,4.4c-5.3,0-9.1,0.2-9.9,0.2l-2.3,0.1l0.2,2.9
	l5.5-0.3c1.9-0.1,7.5-0.5,11.5-1.1l0.3,4.9c-3.6-0.1-7.8,0.1-11.5,0.3l-7.4,0.4l0.2,3.3l5.3-0.3c2.6-0.1,10.7-0.7,16.2-1.4l0.3,5.1
	c-5.1,0-11.1,0.1-16.2,0.4l-1.8,0.1c1.8,1.1,4.8,2.5,6.8,3.2c2.2,0.8,8.7,2.1,12.2,2.2L94.8,149.2z M70.4,112.2l-10.5,0.6l0.2,2.8
	l10.5-0.6L70.4,112.2z M70.7,118.7l-10.5,0.6l0.2,2.8l10.5-0.6L70.7,118.7z M71.1,125.2l-10.5,0.6l0.2,2.9l10.5-0.6L71.1,125.2z"/>
<path class="st0" d="M142.4,143.1c-2.9-2-8-5.4-13.4-6.4c0.2,1,0.2,1.3,0.2,1.6c0.4,6.7-5.9,7.6-8.4,7.8c-7,0.4-12.2-3-12.5-7
	c-0.3-4.7,6.5-7.6,11.1-7.8c1.6-0.1,3.9,0,4.6,0.1c-0.1-0.8-0.2-1.1-0.2-1.6c-0.1-0.9-0.4-4.6-0.5-5.5c-2.7,0.2-8,0.6-10.7,0.4
	c-0.9-0.1-4.2-0.3-4.3-2.9c-0.1-1.9,1.8-3.8,5.9-6.8l2.9,2.4c-1.5,1-2.8,1.8-2.8,2.5s0.6,0.8,0.9,0.9c0.5,0.1,2.5,0.1,4,0
	c1-0.1,1.3-0.1,3.8-0.3c-0.2-2.3-0.3-2.9-0.8-8.4c-8.7,0.7-12,1.1-16.3,1.9l-0.3-5l16.2-0.9c-0.2-3.2-0.4-6-0.7-7.6l6.4,0.1
	c0.3,0,1,0.1,1,0.7c0,0.7-0.5,1-1.6,1.6c0,1.8,0,3,0,4.9l15.4-0.9l0.3,4.9c-4-0.4-4.2-0.4-15.6,0c0.1,3,0.2,5.1,0.4,8.2
	c1.6-0.2,7.6-1.1,13.4-3.3l0.3,4.7c-3.4,1.2-10.1,2.3-13.4,2.6c0.1,1.3,0.7,6.9,0.8,8c5.6,0.4,13.3,3.9,15.7,5.7L142.4,143.1z
	 M119.3,135.5c-1.8,0.1-5.7,1.2-5.6,3.7c0.1,1.9,3.1,2.8,5.5,2.7c1.1-0.1,4.6-0.6,5-3.1c0.2-1.1,0.2-1.9,0.1-2.9
	C123.7,135.8,121.1,135.4,119.3,135.5z"/>
<path class="st0" d="M190.4,138.2c-4.4,3.2-8.8,4.1-19.6,5.2l-2.9-5.5c5.6-0.4,10-0.6,13.9-1.3c4.7-0.9,9.1-4.8,8.8-9.4
	c-0.1-1.5-1.1-7.1-8.1-6.7c-6.2,0.4-11.1,4.8-14.7,9.5l-5.2-1.8c0-1.1,0.4-5.7,0.5-6.7c0.4-4.4,1-10.1,1.7-14.2l5.9,1
	c0.5,0.1,1.1,0.3,1.1,0.9c0,0.5-0.4,0.8-0.7,0.9c-0.7,0.4-1,0.5-1.4,0.8c-1.2,4.8-1.6,9.2-1.9,11.7c4.5-3.8,9.2-6.3,14.8-6.7
	c5.2-0.3,12.8,2.3,13.2,10.9C196.2,130.8,195,134.9,190.4,138.2z M183.4,106.3c-6.7-3.2-12.8-3.6-15.7-3.7l1.5-5
	c5.4,0.2,11.8,1.7,16.2,3.4L183.4,106.3z"/>
<path class="st0" d="M233.8,105.4c-4.8,1.6-6.9,1.9-9,2.2c-1.1,3.7-4.9,15.5-9.5,23.8l-5.2-2.4c2.2-3.3,5.1-8.1,9.2-20.6
	c-2,0.3-2.2,0.3-7.4,0.6l-0.7-5c1.5,0.2,3,0.4,5.8,0.2c1.5-0.1,2.6-0.3,3.7-0.4c1.2-4.1,1.7-8.1,1.9-10.5l5.8,1
	c1.2,0.2,1.3,0.3,1.4,0.7c0,0.5-0.1,0.6-1.6,1.3c-1.2,4.1-1.4,4.8-1.9,6.5c2.5-0.5,4.1-0.9,7.8-2.2L233.8,105.4z M249.7,112.3
	c-1.1-0.2-2.3-0.4-4.2-0.3c-6.3,0.4-7.6,3.1-7.4,6.2c0.1,1.8,0.3,2.3,1.8,7.3c0,0.1,0.1,0.6,0.1,0.7c5.2,1.4,7,2.1,11.7,4.8
	l-2.8,4.7c-4.5-3-5.8-3.6-8-4.3c0.1,2.1,0.2,4.3-1.1,5.9c-1.3,1.8-4.1,3.1-7.6,3.3c-5.9,0.3-11.1-2.8-11.4-7.5
	c-0.2-3.6,2.5-7.3,9.9-7.8c1.5-0.1,2.6,0,4,0.1c-1.2-3.9-1.8-5.8-1.9-7.6c0-0.5-0.1-3.2,1.5-5.2c1.9-2.3,4.8-2.8,8.9-3.3
	c-2.5-1.2-3.8-1.7-7.5-2.2l2.3-4.1c2.7,0.4,7.2,1.2,13.7,5.2L249.7,112.3z M235.5,129.9c-2.2-0.5-3.2-0.6-4.5-0.5
	c-3.2,0.2-5.2,1.4-5.1,3.5c0.1,2.4,4,3.2,6,3.1c3-0.2,4.1-1.9,3.9-4C235.8,131.4,235.6,130.4,235.5,129.9z"/>
<path class="st0" d="M278.7,133.2c-2.9,0.2-5.5-2.4-6.6-3.5c-4.4-4.6-6.5-10-7-18.8c-0.1-2.1-0.1-3.1,0.4-12c0-0.2,0-1.2,0.1-1.4
	l5.1,1.5c1.1,0.3,1.7,0.5,1.8,1.1c0,0.5-0.6,0.8-1.3,1.2c-0.3,1.7-1,5-0.7,9.8c0.5,9,4.6,15.5,7.2,15.3c2.6-0.1,3.9-6.4,4.3-9.4
	l3.4,3.2C284.6,125.2,282.9,133,278.7,133.2z M304.8,120.3c-0.4-4.7-1.8-9.2-4.1-13.4c-3.2-5.8-4.5-7.3-5.6-8.5l4.8-2.6
	c6,6.5,10.3,17.4,10.9,22.3L304.8,120.3z"/>
<path class="st0" d="M71.2,208.7c-0.2,1-0.4,1.6-1.5,7c-1.4,6.6-3.1,10.9-5.8,16c-2.3,4.4-3.7,6.2-4.7,7.5l-5.5-2.5
	c9.3-9.9,11.9-25.9,11.9-31.9l6.6,1.5c0.8,0.2,1.1,0.4,1.1,0.8C73.2,207.7,73,207.8,71.2,208.7z M95.6,235.6
	c-1.1-4.7-2.3-9-5.4-15.1c-2.4-4.8-5.2-9.4-8.8-13.3l4.4-3.3c8.6,9.9,13.9,23.1,15.6,29.4L95.6,235.6z"/>
<path class="st0" d="M148.1,234.6c0.2-1.2,0.1-1.4,0.2-3.3l-26.6,1.5c0,0.8,0.1,2.2,0.3,3.2l-6.2,0.4c0.1-1.4,0.2-3.8,0-7.1
	c-0.2-5.3-0.3-5.9-0.3-6.5l-0.6-11.4c-0.1-1.7-0.7-10.1-0.9-11.5c3.2,0.1,10.1-0.1,13.5-0.3l11.8-0.7c3.9-0.2,9.7-0.6,13.4-1
	c-0.1,2.9,0.2,9.3,0.4,12.4l0.6,10.8c0.1,1.1,0.5,5.8,0.5,6.8c0.3,3.9,0.6,5.2,0.9,6.4L148.1,234.6z M146.9,203.4l-26.9,1.5l1.3,23
	l26.9-1.5L146.9,203.4z"/>
<path class="st0" d="M206.7,206.5c-0.3,2.9-1.8,11.1-4.6,16.5c-1,1.9-6.6,11.9-14.1,15.3l-5.5-3.3c2.2-0.8,6.4-2.5,11.8-9.3
	c2.8-3.6,4.7-6.9,6-12.4c1.3-5.1,1.1-8.2,1.1-9.9l-27.2,1.5l0.4,6.2c0,0.8,0.3,4.5,0.7,7.2l-6,0.3c0.3-3.3,0.2-5.2,0.2-5.7l-0.3-5.1
	l-0.1-1c-0.2-3.3-0.6-4.9-0.8-5.9c5.8,0.1,6.4,0.1,7.1,0l5.2-0.3l4.7-0.3l-0.2-4c-0.1-2.2-0.4-4.4-0.6-6.6l5.7,0.4
	c0.5,0,1.5,0.1,1.5,0.9c0,0.7-0.8,0.9-1.2,1c-0.2,2.1-0.2,4.3-0.1,5.3l0.2,2.7l2.1-0.1c2.7-0.2,5.6-0.4,7.4-0.6
	c1.9-0.3,2.8-0.5,3.7-1.3l4.4,3.4C207,203.2,206.9,204.1,206.7,206.5z"/>
<path class="st0" d="M249.8,202c-0.7,0.1-1.1,0.2-1.5,0.7c-1.9,2.3-3.3,4-7.8,8l0.9,15.6c0.1,1.8,0.7,6.8,0.9,8.9l-5,0.3
	c0-3.3,0-5.5-0.2-8.8l-0.7-12.7c-4.6,3.5-7.3,5.2-11.6,7.6l-4.8-3.5c5.4-2.4,9.7-4.4,16.6-10.3c5.3-4.6,7.2-7.4,9.5-10.9l3.9,2.8
	c0.5,0.4,1.1,0.9,1.2,1.4C251.2,201.8,250.9,201.8,249.8,202z"/>
<path class="st0" d="M282.4,199.9c-3.8-3.2-9.6-5.9-12.4-6.9l2.7-5.1c8.4,3.4,11,5.6,12.5,6.9L282.4,199.9z M276.4,228.5
	c-0.1,0.2-0.3,1.1-0.4,1.3s-0.3,0.3-0.6,0.4c-0.4,0-0.6-0.2-1.2-1.2l-3.3-5.5c8.4-1.6,27.6-11.3,37.2-25.3l2.5,5.2
	C300.6,216.5,283.8,224.9,276.4,228.5z"/>
<path d="M361.3,203.3c-0.3,0-1.5-0.1-2.1-0.1c-2.9,0.9-3.1,1-9.9,4.2c0.1,1.6,0.6,8.8,0.7,10.2l-5.9,0.7c0.1-1.8,0.3-4.5,0.3-8.5
	c-3.3,1.9-5.3,3.2-7,5.2c-1.2,1.4-2,3.4-1.9,4.8c0.2,4.2,6.3,4.4,10.8,4.1c2.8-0.2,8.3-0.9,12.3-2.3l-1.3,5.7c-0.4,0-0.8,0.1-4,0.6
	c-1.3,0.2-2.8,0.4-5.1,0.5c-10,0.6-12.4-0.6-14.5-2.2c-2-1.5-3.1-3.7-3.3-6.1c-0.4-7.1,8.2-12.6,13.1-15.3c-0.6-1.4-1.3-3.2-4.2-3.1
	c-3,0.2-5.9,2.7-7.6,4.5c-2.2,2.4-3.7,5.1-4.8,7.2L322,211c5.4-6,8-10.8,10.6-16.7c-3.8,0.7-5.4,1-8.7,1.3l-1.2-5.1
	c1.5,0,3,0.1,5.2,0c2.7-0.2,4.7-0.5,6.5-0.8c1.3-3.9,1.7-5.9,2.2-8.2l6.1,0.5c0.5,0,0.9,0.3,1,0.8c0,0.6-0.1,0.7-1.9,2
	c-0.8,1.9-1,2.4-1.5,3.7c5.3-1.2,8.3-2.3,11.5-3.7l-0.3,5.2c-3,0.9-9.8,2.5-13.2,3.2c-1.2,2.6-2,4.1-2.8,5.6
	c1.1-0.5,3.8-1.6,5.8-1.7c1.9-0.1,4.9,0.9,6.4,3.8c0.2,0.5,0.4,1.1,0.6,1.5c6.9-3.4,7.2-3.5,9.7-4.9l3.8,4.3
	c0.2,0.3,0.3,0.5,0.3,0.8C362.2,203,361.9,203.3,361.3,203.3z"/>
<path d="M381.2,227.2c-4.4,0.2-8.2-3.3-8.5-7.7c-0.3-4.5,3.1-8.4,7.5-8.6c4.4-0.2,8.2,3.2,8.5,7.7
	C388.9,223.1,385.6,226.9,381.2,227.2z M380.4,213.4c-3.1,0.2-5.4,2.8-5.3,6c0.2,3.1,2.8,5.5,5.9,5.4c3.1-0.1,5.4-2.9,5.3-6
	C386.1,215.5,383.4,213.2,380.4,213.4z"/>
</svg>
