<svg width="50" height="76" viewBox="0 0 50 76" fill="none" xmlns="http://www.w3.org/2000/svg">
<path d="M27.9 10.2C35.8 10.2 42.3 16.7 42.3 24.6C42.3 32.5 35.9 39 27.9 39C19.9 39 13.5 32.5 13.5 24.6C13.5 16.7 20 10.2 27.9 10.2ZM27.9 0C14.3 0 3.29999 11 3.29999 24.6C3.29999 38.2 14.3 49.2 27.9 49.2C41.5 49.2 52.5 38.2 52.5 24.6C52.6 11 41.5 0 27.9 0Z" fill="black"/>
<path d="M31 28.3C35.0317 28.3 38.3 25.0316 38.3 21C38.3 16.9683 35.0317 13.7 31 13.7C26.9683 13.7 23.7 16.9683 23.7 21C23.7 25.0316 26.9683 28.3 31 28.3Z" fill="black"/>
<path d="M13.6 75.7001H10.9V70.7001C10.9 70.0001 10.9 68.2001 10.9 67.7001C10.7 68.2001 10.3 69.2001 9.89996 70.0001L7.09998 76.0001L4.29996 70.0001C3.89996 69.2001 3.49996 68.3001 3.29996 67.7001C3.29996 68.2001 3.29996 70.0001 3.29996 70.7001V75.7001H0.599976V62.1001H3.19998L5.99997 68.3001C6.39997 69.1001 6.79996 70.1001 6.89996 70.6001C7.09996 70.1001 7.49996 69.1001 7.79996 68.3001L10.5 62.1001H13.2V75.7001H13.6Z" fill="black"/>
<path d="M26.8 75.7001H17.1V62.1001H26.5V64.8001H19.8V67.2001H23.7V69.8001H19.8V73.1001H26.8V75.7001Z" fill="black"/>
<path d="M40.7 75.7H38.3L33.3 68.3C33 67.8 32.5 67.1 32.3 66.8C32.3 67.3 32.3 69 32.3 69.8V75.8H29.6V62.1H32.2L37 69.3C37.3 69.8 37.8 70.5 38 70.8C38 70.3 38 68.6 38 67.8V62H40.7V75.7V75.7Z" fill="black"/>
<path d="M55.1 69.7001C55.1 73.6001 53 75.9001 49.6 75.9001C46.3 75.9001 44.1 73.7001 44.1 69.7001V62.1001H46.8V69.7001C46.8 71.9001 47.8 73.3001 49.6 73.3001C51.4 73.3001 52.4 72.0001 52.4 69.8001V62.2001H55.1V69.7001Z" fill="black"/>
</svg>
