<svg width="113" height="88" viewBox="0 0 113 88" fill="none" xmlns="http://www.w3.org/2000/svg">
<g clip-path="url(#clip0)">
<path d="M59.0999 37.7H51.7V23.5H58.7999V26.3H54.5V28.8H56.7V31.6H54.5V35H59.0999V37.7V37.7Z" fill="#D06500"/>
<path d="M48.1 37.7H45.6L40.3 30C40 29.5 39.5 28.8 39.3 28.4C39.3 28.9 39.3 30.7 39.3 31.5V37.7H36.5V23.5H39.2L44.2 31C44.5 31.5 45 32.2 45.2 32.6C45.2 32.1 45.2 30.3 45.2 29.5V23.5H48V37.7H48.1Z" fill="#D06500"/>
<path d="M77 23.5L74 37.7H71.2L69.5 30.4C69.3 29.5 69.1 28.5 69 28C68.9 28.5 68.7 29.6 68.5 30.4L66.7 37.7H64L61 23.5H64L65.2 30.4C65.3 31.1 65.5 32.1 65.5 32.7C65.6 32.1 65.8 31.1 66 30.4L67.7 23.5H70.2L71.9 30.4C72.1 31.1 72.3 32.1 72.4 32.7C72.5 32.1 72.6 31 72.7 30.4L73.9 23.5H77V23.5Z" fill="#D06500"/>
<path d="M56.5001 87.7L60.5001 85L68.0001 87.7L75.2001 67.5L65.0001 72.5L62.2001 69.4L56.5001 73.5L50.8001 69.4L48.0001 72.5L37.9001 67.5L45.0001 87.7L52.5001 85L56.5001 87.7Z" fill="black"/>
<path d="M30.6 78.6C30.6 77.9 31 75.4 34.1 75.4H50.5V72.8H33.9001C29.4001 72.8 27.8 76.3 27.8 78.6C27.8 80.9 29.4001 84.4 33.9001 84.4H51.1V81.8H34.1C30.9 81.8 30.6 79.3 30.6 78.6Z" fill="black"/>
<path d="M82.5001 78.6C82.5001 77.9 82.1001 75.4 79.0001 75.4H62.6001V72.8H79.1001C83.6001 72.8 85.2001 76.3 85.2001 78.6C85.2001 80.9 83.6001 84.4 79.1001 84.4H61.9001V81.8H79.0001C82.1001 81.8 82.5001 79.3 82.5001 78.6Z" fill="black"/>
<path d="M88.7999 61.2H81.3999V47H88.4999V49.8H84.1999V52.3H86.3999V55.1H84.1999V58.5H88.7999V61.2V61.2Z" fill="#D06500"/>
<path d="M99.1 61.2H91.7V47H98.8V49.8H94.5V52.3H96.7V55.1H94.5V58.5H99.1V61.2V61.2Z" fill="#D06500"/>
<path d="M11.5 61.2H8.7V55.2H2.8V61.2H0V47H2.8V52.4H8.6V47H11.4V61.2H11.5Z" fill="#D06500"/>
<path d="M27.5 61.2H24.4L23.3 58H18.1L17 61.2H14L19.4 47H22.2L27.5 61.2ZM22.3 55.3L21.4 52.7C21.1 51.9 20.8 51 20.7 50.5C20.6 51 20.3 51.9 20 52.7L19.1 55.3H22.3Z" fill="#D06500"/>
<path d="M78.6999 47L75.6999 61.2H72.9L71.1999 53.9C70.9999 53 70.7999 52 70.6999 51.5C70.5999 52 70.3999 53.1 70.1999 53.9L68.4 61.2H65.6999L62.7 47H65.6999L66.9 53.9C67 54.6 67.1999 55.6 67.1999 56.2C67.2999 55.6 67.4999 54.6 67.6999 53.9L69.4 47H72L73.6999 53.9C73.8999 54.6 74.0999 55.6 74.1999 56.2C74.2999 55.6 74.4 54.5 74.5 53.9L75.6999 47H78.6999Z" fill="#D06500"/>
<path d="M113 61.2H110.5L105.3 53.5C105 53 104.5 52.3 104.3 51.9C104.3 52.4 104.3 54.2 104.3 55V61.2H101.5V47H104.2L109.2 54.5C109.5 55 110 55.7 110.2 56.1C110.2 55.6 110.2 53.8 110.2 53V47H113V61.2Z" fill="#D06500"/>
<path d="M36.2001 61.2H30.1001V47H32.9001V58.4H36.2001V61.2V61.2Z" fill="#D06500"/>
<path d="M45.4001 61.2H39.3V47H42.1V58.4H45.4001V61.2V61.2Z" fill="#D06500"/>
<path d="M54.1 58.5C51.8 58.5 49.9 56.6 49.9 54.3C49.9 52 51.8 50.1 54.1 50.1C56.4 50.1 58.3 52 58.3 54.3C58.2 56.7 56.4 58.5 54.1 58.5ZM54.1 61.5C58 61.5 61.2 58.3 61.2 54.4C61.2 50.5 58 47.3 54.1 47.3C50.2 47.3 47 50.5 47 54.4C47 58.3 50.1 61.5 54.1 61.5Z" fill="black"/>
<path d="M53.2001 57.5C54.3599 57.5 55.3001 56.5598 55.3001 55.4C55.3001 54.2402 54.3599 53.3 53.2001 53.3C52.0403 53.3 51.1001 54.2402 51.1001 55.4C51.1001 56.5598 52.0403 57.5 53.2001 57.5Z" fill="black"/>
<path d="M36.4 14.3H33.6V8.29998H27.8V14.3H25V0.0999756H27.8V5.49998H33.6V0.0999756H36.4V14.3Z" fill="#D06500"/>
<path d="M47.5999 14.3H40.2V0.0999756H47.2999V2.89998H43V5.39998H45.2V8.19998H43V11.6H47.5999V14.3Z" fill="#D06500"/>
<path d="M57.4001 14.2H51.3V0H54.1V11.4H57.4001V14.2V14.2Z" fill="#D06500"/>
<path d="M66.6 14.2H60.5V0H63.3V11.4H66.6V14.2Z" fill="#D06500"/>
<path d="M75.1 3.19999C77.4 3.19999 79.3 5.09999 79.3 7.39999C79.3 9.69999 77.4 11.6 75.1 11.6C72.8 11.6 71 9.69999 71 7.39999C71 5.09999 72.8 3.19999 75.1 3.19999ZM75.1 0.299988C71.2 0.299988 68 3.49999 68 7.39999C68 11.3 71.2 14.5 75.1 14.5C79 14.5 82.2 11.3 82.2 7.39999C82.2 3.49999 79 0.299988 75.1 0.299988Z" fill="black"/>
<path d="M75.9999 8.40001C77.1597 8.40001 78.0999 7.45981 78.0999 6.30001C78.0999 5.14021 77.1597 4.20001 75.9999 4.20001C74.8401 4.20001 73.8999 5.14021 73.8999 6.30001C73.8999 7.45981 74.8401 8.40001 75.9999 8.40001Z" fill="black"/>
<path d="M88.1 5.99998L87.6 9.39997H85.7L85.3 5.99998V0.0999756H88.1V5.99998ZM88.4 14.6H85V11.1H88.5V14.6H88.4Z" fill="#D06500"/>
</g>
<defs>
<clipPath id="clip0">
<rect width="113" height="87.7" fill="white"/>
</clipPath>
</defs>
</svg>
