<svg width="83" height="30" viewBox="0 0 83 30" fill="none" xmlns="http://www.w3.org/2000/svg">
<path d="M41.5 29.3999L47.3 25.3999L58.2 29.2998L68.5 0L53.8 7.3999L49.7 2.8999L41.5 8.7998L33.3 2.8999L29.2 7.3999L14.5 0L24.9 29.2998L35.7 25.3999L41.5 29.3999Z" fill="black"/>
<path d="M3.90002 16.2C3.90002 15.1 4.4 11.5999 9 11.5999H32.8V7.8999H8.80005C2.20005 7.8999 0 13 0 16.2C0 19.4 2.30005 24.5 8.80005 24.5H33.7V20.7998H9C4.4 20.7998 3.90002 17.2 3.90002 16.2Z" fill="black"/>
<path d="M79.1 16.2C79.1 15.1 78.6 11.5999 74 11.5999H50.2V7.8999H74.2C80.8 7.8999 83 13 83 16.2C83 19.4 80.7 24.5 74.2 24.5H49.3V20.7998H74C78.6 20.7998 79.1 17.2 79.1 16.2Z" fill="black"/>
</svg>
