<svg width="275" height="222" viewBox="0 0 275 222" fill="none" xmlns="http://www.w3.org/2000/svg">
<path d="M137.6 221.4L143.4 217.4L154.3 221.3L164.6 192L149.9 199.4L145.8 194.9L137.6 200.7L129.4 194.9L125.3 199.4L110.6 192L121 221.3L131.8 217.4L137.6 221.4Z" fill="black"/>
<path d="M100 208.1C100 207 100.5 203.5 105.1 203.5H128.9V199.8H104.9C98.3 199.8 96.1 204.9 96.1 208.1C96.1 211.3 98.4 216.4 104.9 216.4H129.8V212.7H105.1C100.5 212.8 100 209.2 100 208.1Z" fill="black"/>
<path d="M175.2 208.1C175.2 207 174.7 203.5 170.1 203.5H146.3V199.8H170.3C176.9 199.8 179.1 204.9 179.1 208.1C179.1 211.3 176.8 216.4 170.3 216.4H145.4V212.7H170.1C174.7 212.8 175.2 209.2 175.2 208.1Z" fill="black"/>
<path d="M138.2 65.1999C138.2 80.0999 129.5 88.3998 117.8 88.3998C106.2 88.3998 97.6 80.2998 97.6 65.3998C97.6 50.4998 106.3 42.1999 118 42.1999C129.6 42.0999 138.2 50.2999 138.2 65.1999ZM125.5 65.3C125.5 57.1 122.7 52.8 117.9 52.8C113.1 52.8 110.4 56.9999 110.4 65.1999C110.4 73.3999 113.2 77.6999 118 77.6999C122.8 77.6999 125.5 73.5 125.5 65.3Z" fill="black"/>
<path d="M177.6 73.3999C177.6 83.7999 170.1 88.3 158 88.3C150.4 88.3 143.9 85.7 139.1 81.5L145.5 73.3999C149.1 76.1999 153.3 78.1001 158.2 78.1001C163.4 78.1001 165.6 76.6001 165.6 73.6001C165.6 70.5001 163.8 69.3 159.3 69.3H152.8V59.6001H158.6C162.5 59.6001 163.8 58.8 163.8 55.8C163.8 53.4 162 52.2 157.6 52.2C153.2 52.2 149.9 53.5 146.5 56L140.6 47.8999C144.8 44.6999 150.1 42.1001 157.9 42.1001C168.7 42.1001 175.8 45.5 175.8 55C175.8 59.9 172.9 62.3 169.8 63.8C174 64.7 177.6 67.6999 177.6 73.3999Z" fill="black"/>
<path d="M12.7 120.4L12.3 125.3H16.5V128.6H12L11.5 133.8H9.79999L10.3 128.6H6.59998L6.09998 133.8H4.40002L4.79999 128.6H0.900024V125.3H5.09998L5.5 120.4H1.40002V117.1H5.79999L6.29999 111.9H8L7.59998 117.1H11.3L11.7 111.9H13.4L13 117.1H17V120.4H12.7ZM7.29999 120.4L6.90002 125.3H10.6L11 120.4H7.29999Z" fill="black"/>
<path d="M42.9001 117.4C41.3001 122.6 40.6 124.9 37.8 128.4C35.2 131.7 31.8001 134.3 27.9001 135.6L25.2001 133C34.3001 130.8 39.0001 123 39.9001 116.7H29.0001C27.7001 116.7 25.1 116.8 22.8 117V113.9C24 114.2 27.6001 114.2 29.0001 114.2H35.1C35.7 114.2 39 114.2 39.6 114.1C40.2 114 40.2 114 41.1 113.4L43.8 115.6C43.4 116.1 43.2001 116.6 42.9001 117.4ZM45.9001 114.6C44.1001 114.6 42.7001 113.2 42.7001 111.4C42.7001 109.6 44.1001 108.1 45.9001 108.1C47.7001 108.1 49.2001 109.6 49.2001 111.4C49.2001 113.2 47.7001 114.6 45.9001 114.6ZM45.9001 109.9C45.1001 109.9 44.5001 110.5 44.5001 111.3C44.5001 112.1 45.1001 112.8 46.0001 112.8C46.9001 112.8 47.4001 112.1 47.4001 111.3C47.3001 110.5 46.7001 109.9 45.9001 109.9Z" fill="black"/>
<path d="M57.8 133.2L55.9001 131.8C56.0001 131.1 56.0001 130.6 56.0001 128.8C56.0001 128.3 56.0001 126 56.0001 125.5V118.2C56.0001 116.8 55.9 112.7 55.8 111.4L59.3 111.9C59.7 112 60.1 112.1 60.1 112.7C60.1 113 60 113.1 59.3 113.6C59.1 115.1 59.0001 115.7 59.0001 120.8V129.2C62.9001 128.6 70.6001 124.2 74.9001 118.4L75.9001 121.9C71.8001 127.2 63.9 131.6 57.8 133.2Z" fill="black"/>
<path d="M105.2 120C104.8 120.4 104.5 120.8 103.8 122C100.7 126.7 100.6 126.9 99.5 128L96.8 126.6C99 124.3 100.4 122.1 101.4 120.2L92.7 121.1V127.7C92.7 128.2 92.7 129.5 93.2 130.4C93.7 131.3 95.8 131.4 96.8 131.4C98 131.4 100.2 131.3 102.3 131C103.3 130.9 103.7 130.8 104.4 130.5L104.5 133.5C101.9 133.8 99.3 134 96.7 134C94.8 134 91.8 134 90.7 132.4C89.8 131.1 89.8 130.2 89.8 127.9V121.4C88.8 121.5 87.1 121.6 86 121.8C84.2 122 83.5 122.2 82.8 122.4L82.4 119.1C84.2 119.2 87.9 119 89.8 118.9C89.8 115.3 89.7 112.9 89.5 111.1L93 111.5C93.2 111.5 93.8 111.6 93.8 112.1C93.8 112.3 93.7 112.4 93.6 112.5C93.4 112.6 93.1 112.8 92.9 113C92.8 114.4 92.7 116.4 92.7 118.8L97.3 118.5C99 118.4 100.7 118.3 102.3 117.9C102.8 117.8 103.2 117.6 103.9 117.2L106.5 119.5C106.3 119.4 105.4 119.9 105.2 120ZM104.1 115.4C103.8 115.1 102.4 113.9 102.1 113.7C101.6 113.3 101.3 113.1 100.8 112.8L102.1 111.3C103.4 112 104.6 112.8 105.5 113.9L104.1 115.4ZM107.1 113.3C105.4 111.6 104.6 111 104 110.5L105.3 109.2C106.4 109.8 107.3 110.5 108.4 111.7L107.1 113.3Z" fill="black"/>
<path d="M116.6 132.9C116.5 133 116.4 133.5 116.3 133.6C116.2 133.7 116.1 133.8 116 133.8C115.8 133.8 115.7 133.7 115.4 133.1L113.8 130C118.4 129.4 129.2 124.7 134.9 117.3L136.1 120.2C130.2 127.1 120.7 131.2 116.6 132.9ZM120.8 117.5C118.8 115.6 115.7 114 114.3 113.4L116 110.7C120.5 112.8 121.8 114.1 122.6 114.9L120.8 117.5Z" fill="black"/>
<path d="M158.1 127.2C156.5 125.6 153.8 122.9 149.2 121V126C149.2 127.8 149.3 133 149.5 134.5H145.9C146.1 133 146.1 130.7 146.1 130.1C146.1 129.4 146.2 126.4 146.2 125.8V118C146.2 116.8 146.1 113.6 146 112.5C145.9 111.7 145.9 111.2 145.7 110.5L149.7 110.8C149.9 110.8 150.3 110.9 150.3 111.3C150.3 111.6 150 111.8 149.3 112.2C149.2 114.1 149.2 115.9 149.2 117.7V121L150.6 118.3C154.7 120.2 158.8 123.2 160 124.8L158.1 127.2Z" fill="black"/>
<path d="M183.4 120.2C182.5 121.2 178.8 125.7 178 126.6C179.2 128 179.9 128.9 180.8 130.2L178.2 132.2C176.3 129.2 173.9 126 169.7 123.2L171.8 121C173.4 122.1 174.8 123.4 176.2 124.7C177.2 123.6 180 120.2 181.9 116.9H172.4C170.6 116.9 167.1 117 164.1 117.2V114.1C166.7 114.4 169.6 114.4 172.3 114.4H179.4C184.2 114.4 184.8 114.2 186 113.6L188.4 115.8C186.2 116.9 184.2 119.2 183.4 120.2Z" fill="black"/>
<path d="M213.7 133.2C211 128.8 207.3 125.9 206 125C201.8 129.8 197.7 132 194.9 133.3L192.7 130.6C194.2 130.1 197.2 129 200.5 126.4C204.3 123.4 206.9 119.3 208.6 114.9H203.3C201.1 114.9 198.2 115 196 115.2V112.2C197 112.3 200.6 112.4 201.9 112.4H206.3C209.2 112.4 209.6 112.3 209.9 112.3C210.5 112.2 211.1 111.8 211.4 111.6L213.6 114.1C213 114.5 212.8 114.6 212.2 115.1C210.4 118.6 209.2 120.7 207.8 122.8C212.2 125.9 215.5 129.9 216.2 131L213.7 133.2Z" fill="black"/>
<path d="M241 116.5C238.6 123.4 235.1 130.8 226.6 135.3L223.9 133.1C226.2 132.1 229.7 130.6 233.2 125.9C236.6 121.5 237.4 117.8 237.8 116H228.6C227.1 118.3 225.4 120.7 222.7 123.1L220.2 121.4C221 120.7 223.1 119.2 225.5 115.6C226.6 113.9 228.1 111.5 228.4 109.8L231.7 111.2C231.9 111.3 232.1 111.4 232.1 111.6C232.1 111.9 231.7 112.1 231.6 112.1C231.2 112.2 231.1 112.2 230.7 112.6C230.3 113 230.4 113.1 229.9 113.8H234.6C238.2 113.8 238.7 113.6 239.5 113.2L241.7 115.5C241.4 116 241.4 116.1 241 116.5Z" fill="black"/>
<path d="M269.3 113.9C267.1 114.6 263.4 115.8 260.3 120.7C259.3 122.3 258.8 123.9 258.8 125.2C258.8 128.9 262.7 131.3 267.3 131.7L266.3 134.7C256.8 133.1 255.8 127.6 255.8 125.2C255.8 123.5 256.4 118.8 263.4 114.1C258.7 114.3 252.9 115.2 249.3 116.1L248.8 112.7C253.7 112.9 266.1 111.9 272.1 110.4V113.6C271.6 113.6 270.4 113.6 269.3 113.9ZM270.4 122.4C269.4 121.4 268.2 120.7 266.9 120.1L268.1 118.4C269.6 118.8 271 120 271.7 120.8L270.4 122.4ZM273.4 119.3C272 118.1 271.2 117.5 269.6 116.8L270.9 115.2C271.5 115.4 272.8 115.9 274.5 117.6L273.4 119.3Z" fill="black"/>
<path d="M79 156.2C78.8 156.7 78.8 157 78 160C77 163.6 76 165.8 74.3 168.6C72.9 170.9 72.1 171.9 71.5 172.5L68.6 171C74 165.9 75.9 157.2 76.1 153.9L79.6 154.9C80 155 80.2 155.1 80.2 155.4C80.1 155.7 80 155.7 79 156.2ZM91.5 171.6C91 169 90.5 166.6 89 163.2C87.9 160.5 86.5 157.9 84.6 155.6L87.1 153.9C91.5 159.6 94 167 94.7 170.5L91.5 171.6Z" fill="black"/>
<path d="M118.9 172.7C119 172.1 119 171.9 119.1 170.9H104.5C104.5 171.3 104.5 172.1 104.6 172.6H101.2C101.3 171.8 101.4 170.5 101.4 168.7C101.4 165.8 101.4 165.5 101.4 165.1V158.9C101.4 158 101.3 153.4 101.3 152.6C103.1 152.8 106.8 152.8 108.7 152.8H115.2C117.3 152.8 120.5 152.8 122.6 152.6C122.5 154.2 122.4 157.7 122.4 159.4V165.3C122.4 165.9 122.5 168.5 122.5 169C122.5 171.1 122.6 171.8 122.8 172.5H118.9V172.7ZM119.2 155.6H104.4V168.2H119.2V155.6Z" fill="black"/>
<path d="M150.7 159.2C150.4 160.8 149.4 165.2 147.7 168.1C147.1 169.1 143.7 174.4 139.5 176L136.6 174C137.8 173.6 140.2 172.9 143.3 169.3C144.9 167.4 146.1 165.7 147 162.7C147.9 159.9 147.9 158.3 147.9 157.3H133V160.7C133 161.1 133 163.2 133.2 164.7H129.9C130.1 162.9 130.2 161.9 130.2 161.6V158.8V158.2C130.2 156.4 130 155.5 129.9 154.9C133.1 155.1 133.4 155.1 133.8 155.1H136.6H139.2V152.9C139.2 151.7 139.1 150.5 139.1 149.3L142.2 149.7C142.5 149.7 143 149.8 143 150.2C143 150.6 142.5 150.7 142.3 150.7C142.1 151.8 142.1 153.1 142.1 153.6V155.1H143.2C144.7 155.1 146.3 155.1 147.2 155C148.2 154.9 148.7 154.8 149.2 154.4L151.5 156.4C151 157.4 150.9 157.9 150.7 159.2Z" fill="black"/>
<path d="M174.9 158.1C174.5 158.1 174.3 158.2 174 158.5C172.9 159.7 172.1 160.6 169.5 162.6V171.2C169.5 172.2 169.6 174.9 169.7 176.1H167C167.1 174.3 167.2 173.1 167.2 171.3V164.3C164.6 166.1 163 166.9 160.6 168.1L158.1 166C161.1 164.8 163.5 163.9 167.5 160.9C170.6 158.5 171.6 157.1 173 155.3L175.1 157C175.3 157.2 175.7 157.5 175.7 157.8C175.7 158 175.5 158 174.9 158.1Z" fill="black"/>
<path d="M184.7 173.4C184.6 173.5 184.5 174 184.4 174.1C184.3 174.2 184.2 174.3 184.1 174.3C183.9 174.3 183.8 174.2 183.5 173.6L181.9 170.5C186.5 169.9 197.3 165.2 203 157.8L204.2 160.7C198.3 167.6 188.8 171.6 184.7 173.4ZM188.9 157.9C186.9 156 183.8 154.4 182.4 153.8L184.1 151.1C188.6 153.2 189.9 154.5 190.7 155.3L188.9 157.9Z" fill="black"/>
<path d="M112.5 13.3L111.6 12.2C113.6 11.9 115 10.8 115 9.19995C115 8.79995 114.9 7.3 113.2 7C112.7 8.3 112 9.5001 111 10.6001C111.1 10.9001 111.1 10.9 111.3 11.5L110.1 12.3C109.9 11.9 109.9 11.8001 109.8 11.6001C109.3 12.0001 108.5 12.7 107.5 12.7C106.5 12.7 105.8 12.1 105.8 10.8C105.8 8.80005 107.3 7.0999 109.2 6.3999C109.2 5.8999 109.2 5.20005 109.3 4.80005C107.9 4.90005 107.5 4.8999 107 4.8999L106.5 3.5C106.9 3.6 107.3 3.69995 108.4 3.69995C108.8 3.69995 109.1 3.69995 109.5 3.69995C109.7 2.29995 109.7 2.2001 109.9 1.1001L111.4 1.5C111.7 1.6 111.7 1.59995 111.7 1.69995C111.7 1.89995 111.7 1.9001 111.3 2.1001C111.2 2.5001 111.1 2.8 111 3.5C112.7 3.2 113.6 2.9999 114.9 2.3999L114.8 3.69995C113.3 4.09995 112.5 4.3001 110.8 4.6001C110.7 5.2001 110.7 5.4999 110.6 5.8999C111 5.6999 111.3 5.69995 112.4 5.69995C112.5 5.19995 112.5 5.0999 112.5 4.8999L113.9 5.1001C113.8 5.3001 113.8 5.3999 113.6 5.8999C114.1 5.9999 114.9 6.3 115.5 7C116.1 7.7 116.3 8.59995 116.3 9.19995C116.4 10.8 115.1 12.7 112.5 13.3ZM109.3 7.5C108.9 7.7 108.6 7.8999 108.1 8.3999C107.6 8.8999 107.2 9.6 107.2 10.5C107.2 11.2 107.8 11.3 108 11.3C108.3 11.3 108.6 11.2001 108.8 11.1001C109.2 10.9001 109.5 10.5999 109.7 10.3999C109.5 9.3999 109.4 8 109.3 7.5ZM110.5 7.1001C110.6 8.3001 110.6 8.60005 110.7 9.30005C111.4 8.40005 111.8 7.5999 112 6.8999C111.4 6.7999 111.1 6.9001 110.5 7.1001Z" fill="black" stroke="black" stroke-width="0.2835" stroke-miterlimit="10"/>
<path d="M127.3 4.69995C126.6 4.89995 126 5.10005 124.6 5.30005C124.4 5.90005 123.6 8.5 123.4 9C122.7 10.8 122.2 12.0001 121.7 13.1001L120.3 12.6001C121.4 11.0001 122.7 8.3001 123.3 5.6001C123 5.7001 122.6 5.69995 122 5.69995C121.5 5.69995 121.2 5.7001 120.9 5.6001V4.30005C121.3 4.30005 121.8 4.3999 122.5 4.3999C123 4.3999 123.4 4.30005 123.7 4.30005C123.8 3.80005 123.9 3.40005 124.2 1.30005L125.8 1.5C126 1.5 126.2 1.60005 126.2 1.80005C126.2 2.00005 126.1 2.0001 125.7 2.1001C125.4 3.0001 125.4 3.29995 125.2 4.19995C125.8 4.09995 126.4 4 127.6 3.5L127.3 4.69995ZM130.7 12.8999C130.2 12.8999 129.7 12.8999 129.3 12.8999C126.4 12.8999 125.9 12.6999 125.5 12.3999C125.3 12.2999 125 12.0001 125 11.6001C125 10.7001 125.7 9.99995 126 9.69995L127 10.2C126.7 10.5 126.3 10.9 126.3 11.2C126.3 11.8 128.1 11.8 128.6 11.8C130.1 11.8 130.5 11.7001 131 11.6001L130.7 12.8999ZM130.9 7.19995C130.6 7.09995 130.2 7 128.9 7C127.5 7 126.8 7.09995 126.4 7.19995L126.5 6C127 6 127.6 5.8999 128.6 5.8999C129.6 5.8999 130.2 5.9 130.9 6V7.19995Z" fill="black" stroke="black" stroke-width="0.2835" stroke-miterlimit="10"/>
<path d="M142.5 12.1001C141.3 12.9001 140.2 13 137.4 13.2L136.7 11.8C138.1 11.8 139.3 11.8 140.3 11.7C141.5 11.5 142.7 10.5999 142.7 9.3999C142.7 8.9999 142.5 7.6001 140.7 7.6001C139.1 7.6001 137.8 8.70005 136.8 9.80005L135.5 9.30005C135.5 9.00005 135.7 7.8001 135.7 7.6001C135.9 6.5001 136.1 5 136.3 4L137.8 4.3999C137.9 4.3999 138.1 4.5001 138.1 4.6001C138.1 4.7001 138 4.80005 137.9 4.80005C137.7 4.90005 137.6 4.9 137.5 5C137.1 6.2 137 7.3 136.9 8C138.1 7.1 139.3 6.5 140.8 6.5C142.1 6.5 144 7.3 144 9.5C144 10.3 143.7 11.3001 142.5 12.1001ZM141.1 3.80005C139.4 2.90005 137.9 2.7001 137.1 2.6001L137.6 1.30005C139 1.40005 140.6 1.8999 141.7 2.3999L141.1 3.80005Z" fill="black" stroke="black" stroke-width="0.2835" stroke-miterlimit="10"/>
<path d="M156 11.6001C154.9 12.5001 153.5 12.8999 152.8 12.8999C152 12.8999 151 12.6 150.3 11.8C149.7 11 149.6 10.4001 149.6 9.1001C149.6 8.4001 149.7 5.2001 149.7 4.6001C149.7 3.7001 149.7 2.2999 149.5 1.3999L151.1 1.6001C151.4 1.6001 151.6 1.6999 151.6 1.8999C151.6 1.9999 151.6 2.10005 151.2 2.30005C151.2 2.60005 151.1 3.0001 151.1 3.6001C151 4.6001 150.9 8.09995 150.9 8.69995C150.9 9.99995 151 10.3999 151.3 10.8999C151.7 11.4999 152.5 11.7 152.9 11.7C153.6 11.7 154.7 11.2999 155.5 10.3999C156.5 9.2999 156.8 8.19995 157 7.69995L158.1 8.69995C157.6 9.69995 156.9 10.8001 156 11.6001Z" fill="black" stroke="black" stroke-width="0.2835" stroke-miterlimit="10"/>
<path d="M165.1 12.1001C164.4 12.1001 163.7 11.4001 163.5 11.1001C162.4 9.8001 162 8.39995 162 6.19995C162 5.69995 162 5.4001 162.3 3.1001C162.3 3.0001 162.3 2.79995 162.3 2.69995L163.6 3.19995C163.9 3.29995 164 3.4 164 3.5C164 3.6 163.8 3.70005 163.6 3.80005C163.5 4.20005 163.3 5.10005 163.3 6.30005C163.3 8.60005 164.3 10.3 164.9 10.3C165.5 10.3 166 8.7 166.2 8L167 8.8999C166.7 10.0999 166.2 12.1001 165.1 12.1001ZM172 9.19995C172 7.99995 171.7 6.79995 171.1 5.69995C170.4 4.19995 170 3.7999 169.8 3.3999L171.1 2.80005C172.5 4.60005 173.5 7.39995 173.6 8.69995L172 9.19995Z" fill="black" stroke="black" stroke-width="0.2835" stroke-miterlimit="10"/>
<path d="M109.7 22.1001C109.6 22.4001 109.6 22.4999 109.2 23.8999C108.7 25.5999 108.2 26.5999 107.5 27.8999C106.9 28.9999 106.5 29.4 106.2 29.7L104.8 29C107.3 26.6 108.2 22.5 108.3 21L110 21.5C110.2 21.6 110.3 21.6 110.3 21.7C110.3 21.9 110.2 21.9001 109.7 22.1001ZM115.6 29.3999C115.4 28.1999 115.1 27.1 114.4 25.5C113.9 24.2 113.2 23 112.3 22L113.5 21.2C115.6 23.9 116.7 27.3 117.1 29L115.6 29.3999Z" fill="black" stroke="black" stroke-width="0.2835" stroke-miterlimit="10"/>
<path d="M130.2 29.8999C130.3 29.5999 130.3 29.5001 130.3 29.1001H123.4C123.4 29.3001 123.4 29.6999 123.4 29.8999H121.8C121.8 29.4999 121.9 28.9001 121.9 28.1001C121.9 26.7001 121.9 26.5999 121.9 26.3999V23.5C121.9 23.1 121.9 20.9 121.8 20.5C122.6 20.6 124.4 20.6001 125.3 20.6001H128.3C129.3 20.6001 130.8 20.6 131.8 20.5C131.7 21.2 131.7 22.9 131.7 23.7V26.5C131.7 26.8 131.7 28 131.7 28.2C131.7 29.2 131.8 29.4999 131.8 29.8999H130.2ZM130.4 21.8999H123.5V27.8H130.4V21.8999Z" fill="black" stroke="black" stroke-width="0.2835" stroke-miterlimit="10"/>
<path d="M146.4 23.5C146.3 24.2 145.8 26.3 145 27.7C144.7 28.2 143.1 30.6999 141.2 31.3999L139.8 30.5C140.4 30.3 141.5 30 143 28.3C143.8 27.4 144.3 26.6 144.7 25.2C145.1 23.9 145.1 23.1 145.1 22.7H138.1V24.3C138.1 24.5 138.1 25.5 138.2 26.2H136.7C136.8 25.4 136.8 24.9 136.8 24.7V23.3999V23.1001C136.8 22.3001 136.7 21.8001 136.7 21.6001C138.2 21.7001 138.3 21.7 138.5 21.7H139.8H141V20.7C141 20.1 141 19.6 140.9 19L142.3 19.2C142.4 19.2 142.7 19.2 142.7 19.5C142.7 19.7 142.5 19.7 142.4 19.7C142.3 20.2 142.3 20.8001 142.3 21.1001V21.8H142.8C143.5 21.8 144.2 21.8 144.7 21.8C145.2 21.8 145.4 21.7 145.7 21.5L146.8 22.3999C146.5 22.6999 146.5 22.9 146.4 23.5Z" fill="black" stroke="black" stroke-width="0.2835" stroke-miterlimit="10"/>
<path d="M157.9 23C157.7 23 157.6 23 157.5 23.2C157 23.8 156.6 24.2001 155.4 25.1001V29.1001C155.4 29.6001 155.5 30.7999 155.5 31.3999H154.2C154.2 30.4999 154.3 30.0001 154.3 29.1001V25.8C153.1 26.6 152.3 27.0001 151.2 27.6001L150 26.6001C151.4 26.1001 152.5 25.6 154.4 24.2C155.8 23.1 156.3 22.4001 157 21.6001L158 22.3999C158.1 22.4999 158.3 22.6 158.3 22.8C158.3 23 158.2 23 157.9 23Z" fill="black" stroke="black" stroke-width="0.2835" stroke-miterlimit="10"/>
<path d="M164.1 30.2C164.1 30.3 164 30.5 164 30.5C164 30.6 163.9 30.6001 163.8 30.6001C163.7 30.6001 163.7 30.5 163.5 30.3L162.7 28.8C164.9 28.5 169.9 26.3 172.6 22.8L173.2 24.2C170.4 27.5 166 29.4 164.1 30.2ZM166 22.8999C165.1 21.9999 163.6 21.3 162.9 21L163.7 19.7C165.8 20.7 166.4 21.3 166.8 21.7L166 22.8999Z" fill="black" stroke="black" stroke-width="0.2835" stroke-miterlimit="10"/>
</svg>
