<svg id="design" xmlns="http://www.w3.org/2000/svg" xmlns:xlink="http://www.w3.org/1999/xlink" viewBox="0 0 54.95 54.95"><defs><style>.cls-1,.cls-4{fill:none;}.cls-2{fill:#d06500;}.cls-3{clip-path:url(#clip-path);}.cls-4{stroke:#000;stroke-miterlimit:10;stroke-width:1.14px;}.cls-5{fill:#fff;}.cls-6{fill:#040000;}</style><clipPath id="clip-path"><rect class="cls-1" y="-449.21" width="384.63" height="334.74"/></clipPath></defs><rect class="cls-2" x="-663.92" y="-797.12" width="1200" height="2694"/><g class="cls-3"><path class="cls-4" d="M116.72-226.24A183.21,183.21,0,0,0,71-220.49,183,183,0,0,0-66.17-43.35V12.72"/></g><circle class="cls-5" cx="27.47" cy="27.47" r="27.47"/><path class="cls-6" d="M42.21,38.47H38v5.61H29.87V38.24H11.42V31.61L29,11.38h9V30.81h4.21ZM30,20.54a50.43,50.43,0,0,1-3.92,5.09l-.47.56A55.37,55.37,0,0,1,21.33,31c1.63-.09,3.87-.14,6.12-.14h2.42V27.59C29.87,25.67,29.92,22.08,30,20.54Z"/></svg>