<svg id="design" xmlns="http://www.w3.org/2000/svg" viewBox="0 0 54.95 54.95"><defs><style>.cls-1{fill:#d06500;}.cls-2{fill:#fff;}.cls-3{fill:#040000;}</style></defs><rect class="cls-1" x="-663.92" y="-222.93" width="1200" height="2694"/><circle class="cls-2" cx="27.47" cy="27.47" r="27.47"/><path class="cls-3" d="M40.58,44.08H13.86c.28-11,5.46-16.35,13.64-20,3.45-1.54,4-2,4-3.36s-1-2.24-3.65-2.24a17.21,17.21,0,0,0-9.71,3.32L14,15.12a24.57,24.57,0,0,1,14-4.25c8.13,0,12.38,3.27,12.38,9.2,0,4.3-1.49,6.91-7.75,9.81-6.54,3-8.36,4.85-9.06,6.82h17Z"/></svg>